<svg id="Layer_1" data-name="Layer 1" xmlns="http://www.w3.org/2000/svg" xmlns:xlink="http://www.w3.org/1999/xlink" viewBox="0 0 111.22 111.22"><defs><style>.cls-1{fill:none;}.cls-2{fill:#3b5999;}.cls-3{clip-path:url(#clip-path);}.cls-4{fill:#2e324c;}.cls-5{fill:#fff;}</style><clipPath id="clip-path"><rect class="cls-1" width="111.22" height="111.22"/></clipPath></defs><title>Artboard 2</title><rect class="cls-2" width="111.22" height="111.22"/><g class="cls-3"><path class="cls-4" d="M33.36,41H42.9V32.4c0-3.81.1-9.69,3.07-13.33,3.13-3.86,7.42-6.48,14.8-6.48,12,0,17.09,1.6,17.09,1.6L75.48,27.37a34.31,34.31,0,0,0-7.68-1.07c-3.71,0-7,1.24-7,4.7V41H76L74.91,53.92H60.77V98.63H42.9V53.92H33.36Z"/><path class="cls-4" d="M33.55,41.23h9.53V32.59c0-3.81.1-9.69,3.07-13.33,3.13-3.86,7.42-6.48,14.8-6.48,12,0,17.09,1.6,17.09,1.6L75.66,27.56A34.31,34.31,0,0,0,68,26.49c-3.71,0-7,1.24-7,4.7V41.23h15.2L75.1,54.11H61V98.82H43.09V54.11H33.55Z"/><path class="cls-4" d="M33.74,41.42h9.53V32.78c0-3.81.1-9.69,3.07-13.33C49.47,15.59,53.76,13,61.15,13c12,0,17.09,1.6,17.09,1.6L75.85,27.75a34.31,34.31,0,0,0-7.68-1.07c-3.71,0-7,1.24-7,4.7V41.42h15.2L75.29,54.3H61.15V99H43.28V54.3H33.74Z"/><path class="cls-4" d="M33.93,41.61h9.53V33c0-3.81.1-9.69,3.07-13.33,3.13-3.86,7.42-6.48,14.8-6.48,12,0,17.09,1.6,17.09,1.6L76,27.94a34.31,34.31,0,0,0-7.68-1.07c-3.71,0-7,1.24-7,4.7V41.61h15.2L75.48,54.48H61.34V99.2H43.46V54.48H33.93Z"/><path class="cls-4" d="M34.12,41.8h9.53V33.16c0-3.81.1-9.69,3.07-13.33,3.13-3.86,7.42-6.48,14.8-6.48,12,0,17.09,1.6,17.09,1.6L76.23,28.13a34.31,34.31,0,0,0-7.68-1.07c-3.71,0-7,1.24-7,4.7V41.8h15.2L75.67,54.67H61.52V99.39H43.65V54.67H34.12Z"/><path class="cls-4" d="M34.31,42h9.53V33.35c0-3.81.1-9.69,3.07-13.33,3.13-3.86,7.42-6.48,14.8-6.48,12,0,17.09,1.6,17.09,1.6L76.42,28.32a34.31,34.31,0,0,0-7.68-1.07c-3.71,0-7,1.24-7,4.7V42h15.2L75.86,54.86H61.71V99.58H43.84V54.86H34.31Z"/><path class="cls-4" d="M34.5,42.18H44V33.54c0-3.81.1-9.69,3.07-13.33,3.13-3.86,7.42-6.48,14.8-6.48,12,0,17.09,1.6,17.09,1.6L76.61,28.5a34.31,34.31,0,0,0-7.68-1.07c-3.71,0-7,1.24-7,4.7V42.18h15.2L76,55.05H61.9V99.77H44V55.05H34.5Z"/><path class="cls-4" d="M34.69,42.37h9.53V33.73c0-3.81.1-9.69,3.07-13.33,3.13-3.86,7.42-6.48,14.8-6.48,12,0,17.09,1.6,17.09,1.6L76.8,28.69a34.31,34.31,0,0,0-7.68-1.07c-3.71,0-7,1.24-7,4.7V42.37H77.3L76.24,55.24H62.09V100H44.22V55.24H34.69Z"/><path class="cls-4" d="M34.88,42.56h9.53V33.92c0-3.81.1-9.69,3.07-13.33,3.13-3.86,7.42-6.48,14.8-6.48,12,0,17.09,1.6,17.09,1.6L77,28.88a34.31,34.31,0,0,0-7.68-1.07c-3.71,0-7,1.24-7,4.7V42.56h15.2L76.43,55.43H62.28v44.72H44.41V55.43H34.88Z"/><path class="cls-4" d="M35.07,42.75H44.6V34.11c0-3.81.1-9.69,3.07-13.33,3.13-3.86,7.42-6.48,14.8-6.48,12,0,17.09,1.6,17.09,1.6L77.18,29.07A34.31,34.31,0,0,0,69.5,28c-3.71,0-7,1.24-7,4.7V42.75h15.2L76.61,55.62H62.47v44.72H44.6V55.62H35.07Z"/><path class="cls-4" d="M35.26,42.94h9.53V34.3c0-3.81.1-9.69,3.07-13.33,3.13-3.86,7.42-6.48,14.8-6.48,12,0,17.09,1.6,17.09,1.6L77.37,29.26a34.31,34.31,0,0,0-7.68-1.07c-3.71,0-7,1.24-7,4.7V42.94h15.2L76.8,55.81H62.66v44.72H44.79V55.81H35.26Z"/><path class="cls-4" d="M35.45,43.13H45V34.49c0-3.81.1-9.69,3.07-13.33,3.13-3.86,7.42-6.48,14.8-6.48,12,0,17.09,1.6,17.09,1.6L77.56,29.45a34.31,34.31,0,0,0-7.68-1.07c-3.71,0-7,1.24-7,4.7V43.13h15.2L77,56H62.85v44.72H45V56H35.45Z"/><path class="cls-4" d="M35.64,43.32h9.53V34.68c0-3.81.1-9.69,3.07-13.33,3.13-3.86,7.42-6.48,14.8-6.48,12,0,17.09,1.6,17.09,1.6L77.75,29.64a34.31,34.31,0,0,0-7.68-1.07c-3.71,0-7,1.24-7,4.7V43.32h15.2L77.18,56.19H63v44.72H45.17V56.19H35.64Z"/><path class="cls-4" d="M35.83,43.51h9.53V34.86c0-3.81.1-9.69,3.07-13.33,3.13-3.86,7.42-6.48,14.8-6.48,12,0,17.09,1.6,17.09,1.6L77.94,29.83a34.31,34.31,0,0,0-7.68-1.07c-3.71,0-7,1.24-7,4.7V43.51h15.2L77.37,56.38H63.23V101.1H45.36V56.38H35.83Z"/><path class="cls-4" d="M36,43.7h9.53V35.05c0-3.81.1-9.69,3.07-13.33,3.13-3.86,7.42-6.48,14.8-6.48,12,0,17.09,1.6,17.09,1.6L78.13,30a34.31,34.31,0,0,0-7.68-1.07c-3.71,0-7,1.24-7,4.7V43.7h15.2L77.56,56.57H63.42v44.72H45.55V56.57H36Z"/><path class="cls-4" d="M36.21,43.89h9.53V35.24c0-3.81.1-9.69,3.07-13.33,3.13-3.86,7.42-6.48,14.8-6.48,12,0,17.09,1.6,17.09,1.6L78.32,30.21a34.31,34.31,0,0,0-7.68-1.07c-3.71,0-7,1.24-7,4.7V43.89h15.2L77.75,56.76H63.61v44.72H45.74V56.76H36.21Z"/><path class="cls-4" d="M36.4,44.08h9.53V35.43c0-3.81.1-9.69,3.07-13.33,3.13-3.86,7.42-6.48,14.8-6.48,12,0,17.09,1.6,17.09,1.6L78.51,30.4a34.31,34.31,0,0,0-7.68-1.07c-3.71,0-7,1.24-7,4.7V44.08H79L77.94,56.95H63.8v44.72H45.93V56.95H36.4Z"/><path class="cls-4" d="M36.58,44.27h9.53V35.62c0-3.81.1-9.69,3.07-13.33,3.13-3.86,7.42-6.48,14.8-6.48,12,0,17.09,1.6,17.09,1.6L78.7,30.59A34.31,34.31,0,0,0,71,29.52c-3.71,0-7,1.24-7,4.7V44.27h15.2L78.13,57.14H64v44.72H46.12V57.14H36.58Z"/><path class="cls-4" d="M36.77,44.46h9.53V35.81c0-3.81.1-9.69,3.07-13.33C52.51,18.62,56.8,16,64.18,16c12,0,17.09,1.6,17.09,1.6L78.89,30.78a34.31,34.31,0,0,0-7.68-1.07c-3.71,0-7,1.24-7,4.7V44.46h15.2L78.32,57.33H64.18V102H46.31V57.33H36.77Z"/><path class="cls-4" d="M37,44.65H46.5V36c0-3.81.1-9.69,3.07-13.33,3.13-3.86,7.42-6.48,14.8-6.48,12,0,17.09,1.6,17.09,1.6L79.08,31A34.31,34.31,0,0,0,71.4,29.9c-3.71,0-7,1.24-7,4.7V44.65h15.2L78.51,57.52H64.37v44.72H46.5V57.52H37Z"/><path class="cls-4" d="M37.15,44.84h9.53V36.19c0-3.81.1-9.69,3.07-13.33,3.13-3.86,7.42-6.48,14.8-6.48,12,0,17.09,1.6,17.09,1.6L79.27,31.16a34.31,34.31,0,0,0-7.68-1.07c-3.71,0-7,1.24-7,4.7V44.84h15.2L78.7,57.71H64.56v44.72H46.69V57.71H37.15Z"/><path class="cls-4" d="M37.34,45h9.53V36.38c0-3.81.1-9.69,3.07-13.33,3.13-3.86,7.42-6.48,14.8-6.48,12,0,17.09,1.6,17.09,1.6L79.46,31.35a34.31,34.31,0,0,0-7.68-1.07c-3.71,0-7,1.24-7,4.7V45H80L78.89,57.9H64.75v44.72H46.88V57.9H37.34Z"/><path class="cls-4" d="M37.53,45.21h9.53V36.57c0-3.81.1-9.69,3.07-13.33,3.13-3.86,7.42-6.48,14.8-6.48,12,0,17.09,1.6,17.09,1.6L79.64,31.54A34.31,34.31,0,0,0,72,30.47c-3.71,0-7,1.24-7,4.7V45.21h15.2L79.08,58.09H64.94V102.8H47.07V58.09H37.53Z"/><path class="cls-4" d="M37.72,45.4h9.53V36.76c0-3.81.1-9.69,3.07-13.33,3.13-3.86,7.42-6.48,14.8-6.48,12,0,17.09,1.6,17.09,1.6L79.83,31.73a34.31,34.31,0,0,0-7.68-1.07c-3.71,0-7,1.24-7,4.7V45.4h15.2L79.27,58.28H65.13V103H47.26V58.28H37.72Z"/><path class="cls-4" d="M37.91,45.59h9.53V36.95c0-3.81.1-9.69,3.07-13.33,3.13-3.86,7.42-6.48,14.8-6.48,12,0,17.09,1.6,17.09,1.6L80,31.92a34.31,34.31,0,0,0-7.68-1.07c-3.71,0-7,1.24-7,4.7V45.59h15.2L79.46,58.47H65.32v44.72H47.44V58.47H37.91Z"/><path class="cls-4" d="M38.1,45.78h9.53V37.14c0-3.81.1-9.69,3.07-13.33,3.13-3.86,7.42-6.48,14.8-6.48,12,0,17.09,1.6,17.09,1.6L80.21,32.11A34.31,34.31,0,0,0,72.53,31c-3.71,0-7,1.24-7,4.7V45.78h15.2L79.65,58.65H65.5v44.72H47.63V58.65H38.1Z"/><path class="cls-4" d="M38.29,46h9.53V37.33c0-3.81.1-9.69,3.07-13.33,3.13-3.86,7.42-6.48,14.8-6.48,12,0,17.09,1.6,17.09,1.6L80.4,32.3a34.31,34.31,0,0,0-7.68-1.07c-3.71,0-7,1.24-7,4.7V46H80.9L79.84,58.84H65.69v44.72H47.82V58.84H38.29Z"/><path class="cls-4" d="M38.48,46.16H48V37.52c0-3.81.1-9.69,3.07-13.33,3.13-3.86,7.42-6.48,14.8-6.48,12,0,17.09,1.6,17.09,1.6L80.59,32.48a34.31,34.31,0,0,0-7.68-1.07c-3.71,0-7,1.24-7,4.7V46.16h15.2L80,59H65.88v44.72H48V59H38.48Z"/><path class="cls-4" d="M38.67,46.35H48.2V37.71c0-3.81.1-9.69,3.07-13.33,3.13-3.86,7.42-6.48,14.8-6.48,12,0,17.09,1.6,17.09,1.6L80.78,32.67A34.31,34.31,0,0,0,73.1,31.6c-3.71,0-7,1.24-7,4.7V46.35h15.2L80.22,59.22H66.07v44.72H48.2V59.22H38.67Z"/><path class="cls-4" d="M38.86,46.54h9.53V37.9c0-3.81.1-9.69,3.07-13.33,3.13-3.86,7.42-6.48,14.8-6.48,12,0,17.09,1.6,17.09,1.6L81,32.86a34.31,34.31,0,0,0-7.68-1.07c-3.71,0-7,1.24-7,4.7V46.54h15.2L80.41,59.41H66.26v44.72H48.39V59.41H38.86Z"/><path class="cls-4" d="M39,46.73h9.53V38.09c0-3.81.1-9.69,3.07-13.33,3.13-3.86,7.42-6.48,14.8-6.48,12,0,17.09,1.6,17.09,1.6L81.16,33.05A34.31,34.31,0,0,0,73.48,32c-3.71,0-7,1.24-7,4.7V46.73h15.2L80.59,59.6H66.45v44.72H48.58V59.6H39Z"/><path class="cls-4" d="M39.24,46.92h9.53V38.28c0-3.81.1-9.69,3.07-13.33,3.13-3.86,7.42-6.48,14.8-6.48,12,0,17.09,1.6,17.09,1.6L81.35,33.24a34.31,34.31,0,0,0-7.68-1.07c-3.71,0-7,1.24-7,4.7V46.92h15.2L80.78,59.79H66.64v44.72H48.77V59.79H39.24Z"/><path class="cls-4" d="M39.43,47.11H49V38.47c0-3.81.1-9.69,3.07-13.33,3.13-3.86,7.42-6.48,14.8-6.48,12,0,17.09,1.6,17.09,1.6L81.54,33.43a34.31,34.31,0,0,0-7.68-1.07c-3.71,0-7,1.24-7,4.7V47.11H82L81,60H66.83V104.7H49V60H39.43Z"/><path class="cls-4" d="M39.62,47.3h9.53V38.66c0-3.81.1-9.69,3.07-13.33,3.13-3.86,7.42-6.48,14.8-6.48,12,0,17.09,1.6,17.09,1.6L81.73,33.62A34.31,34.31,0,0,0,74,32.55c-3.71,0-7,1.24-7,4.7V47.3h15.2L81.16,60.17H67v44.72H49.15V60.17H39.62Z"/><path class="cls-4" d="M39.81,47.49h9.53V38.84c0-3.81.1-9.69,3.07-13.33C55.54,21.66,59.83,19,67.21,19c12,0,17.09,1.6,17.09,1.6L81.92,33.81a34.31,34.31,0,0,0-7.68-1.07c-3.71,0-7,1.24-7,4.7V47.49h15.2L81.35,60.36H67.21v44.72H49.34V60.36H39.81Z"/><path class="cls-4" d="M40,47.68h9.53V39c0-3.81.1-9.69,3.07-13.33,3.13-3.86,7.42-6.48,14.8-6.48,12,0,17.09,1.6,17.09,1.6L82.11,34a34.31,34.31,0,0,0-7.68-1.07c-3.71,0-7,1.24-7,4.7V47.68H82.6L81.54,60.55H67.4v44.72H49.53V60.55H40Z"/><path class="cls-4" d="M40.19,47.87h9.53V39.22c0-3.81.1-9.69,3.07-13.33,3.13-3.86,7.42-6.48,14.8-6.48,12,0,17.09,1.6,17.09,1.6L82.3,34.19a34.31,34.31,0,0,0-7.68-1.07c-3.71,0-7,1.24-7,4.7V47.87h15.2L81.73,60.74H67.59v44.72H49.72V60.74H40.19Z"/><path class="cls-4" d="M40.38,48.06h9.53V39.41c0-3.81.1-9.69,3.07-13.33,3.13-3.86,7.42-6.48,14.8-6.48,12,0,17.09,1.6,17.09,1.6L82.49,34.38a34.31,34.31,0,0,0-7.68-1.07c-3.71,0-7,1.24-7,4.7V48.06H83L81.92,60.93H67.78v44.72H49.91V60.93H40.38Z"/><path class="cls-4" d="M40.56,48.25H50.1V39.6c0-3.81.1-9.69,3.07-13.33,3.13-3.86,7.42-6.48,14.8-6.48,12,0,17.09,1.6,17.09,1.6L82.68,34.57A34.31,34.31,0,0,0,75,33.5c-3.71,0-7,1.24-7,4.7V48.25h15.2L82.11,61.12H68v44.72H50.1V61.12H40.56Z"/><path class="cls-4" d="M40.75,48.44h9.53V39.79c0-3.81.1-9.69,3.07-13.33C56.49,22.6,60.78,20,68.16,20c12,0,17.09,1.6,17.09,1.6L82.87,34.76a34.31,34.31,0,0,0-7.68-1.07c-3.71,0-7,1.24-7,4.7V48.44h15.2L82.3,61.31H68.16V106H50.29V61.31H40.75Z"/><path class="cls-4" d="M40.94,48.63h9.53V40c0-3.81.1-9.69,3.07-13.33,3.13-3.86,7.42-6.48,14.8-6.48,12,0,17.09,1.6,17.09,1.6L83.06,34.95a34.31,34.31,0,0,0-7.68-1.07c-3.71,0-7,1.24-7,4.7V48.63h15.2L82.49,61.5H68.35v44.72H50.48V61.5H40.94Z"/><path class="cls-4" d="M41.13,48.82h9.53V40.17c0-3.81.1-9.69,3.07-13.33,3.13-3.86,7.42-6.48,14.8-6.48,12,0,17.09,1.6,17.09,1.6L83.25,35.14a34.31,34.31,0,0,0-7.68-1.07c-3.71,0-7,1.24-7,4.7V48.82h15.2L82.68,61.69H68.54V106.4H50.67V61.69H41.13Z"/><path class="cls-4" d="M41.32,49h9.53V40.36c0-3.81.1-9.69,3.07-13.33,3.13-3.86,7.42-6.48,14.8-6.48,12,0,17.09,1.6,17.09,1.6L83.44,35.33a34.31,34.31,0,0,0-7.68-1.07c-3.71,0-7,1.24-7,4.7V49h15.2L82.87,61.88H68.73v44.72H50.86V61.88H41.32Z"/><path class="cls-4" d="M41.51,49.19H51V40.55c0-3.81.1-9.69,3.07-13.33,3.13-3.86,7.42-6.48,14.8-6.48,12,0,17.09,1.6,17.09,1.6L83.62,35.52a34.31,34.31,0,0,0-7.68-1.07c-3.71,0-7,1.24-7,4.7V49.19h15.2L83.06,62.07H68.92v44.72H51V62.07H41.51Z"/><path class="cls-4" d="M41.7,49.38h9.53V40.74c0-3.81.1-9.69,3.07-13.33,3.13-3.86,7.42-6.48,14.8-6.48,12,0,17.09,1.6,17.09,1.6L83.81,35.71a34.31,34.31,0,0,0-7.68-1.07c-3.71,0-7,1.24-7,4.7V49.38h15.2L83.25,62.26H69.11V107H51.24V62.26H41.7Z"/><path class="cls-4" d="M41.89,49.57h9.53V40.93c0-3.81.1-9.69,3.07-13.33,3.13-3.86,7.42-6.48,14.8-6.48,12,0,17.09,1.6,17.09,1.6L84,35.9a34.31,34.31,0,0,0-7.68-1.07c-3.71,0-7,1.24-7,4.7V49.57H84.5L83.44,62.45H69.3v44.72H51.43V62.45H41.89Z"/><path class="cls-4" d="M42.08,49.76h9.53V41.12c0-3.81.1-9.69,3.07-13.33,3.13-3.86,7.42-6.48,14.8-6.48,12,0,17.09,1.6,17.09,1.6L84.19,36.09A34.31,34.31,0,0,0,76.51,35c-3.71,0-7,1.24-7,4.7V49.76h15.2L83.63,62.63H69.48v44.72H51.61V62.63H42.08Z"/><path class="cls-4" d="M42.27,50H51.8V41.31c0-3.81.1-9.69,3.07-13.33,3.13-3.86,7.42-6.48,14.8-6.48,12,0,17.09,1.6,17.09,1.6L84.38,36.28A34.31,34.31,0,0,0,76.7,35.2c-3.71,0-7,1.24-7,4.7V50h15.2L83.82,62.82H69.67v44.72H51.8V62.82H42.27Z"/><path class="cls-4" d="M42.46,50.14H52V41.5c0-3.81.1-9.69,3.07-13.33,3.13-3.86,7.42-6.48,14.8-6.48,12,0,17.09,1.6,17.09,1.6L84.57,36.47a34.31,34.31,0,0,0-7.68-1.07c-3.71,0-7,1.24-7,4.7V50.14h15.2L84,63H69.86v44.72H52V63H42.46Z"/><path class="cls-4" d="M42.65,50.33h9.53V41.69c0-3.81.1-9.69,3.07-13.33,3.13-3.86,7.42-6.48,14.8-6.48,12,0,17.09,1.6,17.09,1.6L84.76,36.65a34.31,34.31,0,0,0-7.68-1.07c-3.71,0-7,1.24-7,4.7V50.33h15.2L84.2,63.2H70.05v44.72H52.18V63.2H42.65Z"/><path class="cls-4" d="M42.84,50.52h9.53V41.88c0-3.81.1-9.69,3.07-13.33,3.13-3.86,7.42-6.48,14.8-6.48,12,0,17.09,1.6,17.09,1.6L85,36.84a34.31,34.31,0,0,0-7.68-1.07c-3.71,0-7,1.24-7,4.7V50.52h15.2L84.39,63.39H70.24v44.72H52.37V63.39H42.84Z"/><path class="cls-4" d="M43,50.71h9.53V42.07c0-3.81.1-9.69,3.07-13.33,3.13-3.86,7.42-6.48,14.8-6.48,12,0,17.09,1.6,17.09,1.6L85.14,37A34.31,34.31,0,0,0,77.46,36c-3.71,0-7,1.24-7,4.7V50.71h15.2L84.57,63.58H70.43V108.3H52.56V63.58H43Z"/><path class="cls-4" d="M43.22,50.9h9.53V42.26c0-3.81.1-9.69,3.07-13.33,3.13-3.86,7.42-6.48,14.8-6.48,12,0,17.09,1.6,17.09,1.6L85.33,37.22a34.31,34.31,0,0,0-7.68-1.07c-3.71,0-7,1.24-7,4.7V50.9h15.2L84.76,63.77H70.62v44.72H52.75V63.77H43.22Z"/><path class="cls-4" d="M43.41,51.09h9.53V42.45c0-3.81.1-9.69,3.07-13.33,3.13-3.86,7.42-6.48,14.8-6.48,12,0,17.09,1.6,17.09,1.6L85.52,37.41a34.31,34.31,0,0,0-7.68-1.07c-3.71,0-7,1.24-7,4.7V51.09H86L85,64H70.81v44.72H52.94V64H43.41Z"/><path class="cls-4" d="M43.6,51.28h9.53V42.64c0-3.81.1-9.69,3.07-13.33,3.13-3.86,7.42-6.48,14.8-6.48,12,0,17.09,1.6,17.09,1.6L85.71,37.6A34.31,34.31,0,0,0,78,36.53c-3.71,0-7,1.24-7,4.7V51.28h15.2L85.14,64.15H71v44.72H53.13V64.15H43.6Z"/><path class="cls-4" d="M43.79,51.47h9.53V42.82c0-3.81.1-9.69,3.07-13.33C59.52,25.64,63.81,23,71.19,23c12,0,17.09,1.6,17.09,1.6L85.9,37.79a34.31,34.31,0,0,0-7.68-1.07c-3.71,0-7,1.24-7,4.7V51.47h15.2L85.33,64.34H71.19v44.72H53.32V64.34H43.79Z"/><path class="cls-4" d="M44,51.66h9.53V43c0-3.81.1-9.69,3.07-13.33,3.13-3.86,7.42-6.48,14.8-6.48,12,0,17.09,1.6,17.09,1.6L86.09,38a34.31,34.31,0,0,0-7.68-1.07c-3.71,0-7,1.24-7,4.7V51.66h15.2L85.52,64.53H71.38v44.72H53.51V64.53H44Z"/><path class="cls-4" d="M44.17,51.85H53.7V43.2c0-3.81.1-9.69,3.07-13.33,3.13-3.86,7.42-6.48,14.8-6.48,12,0,17.09,1.6,17.09,1.6L86.28,38.17A34.31,34.31,0,0,0,78.6,37.1c-3.71,0-7,1.24-7,4.7V51.85h15.2L85.71,64.72H71.57v44.72H53.7V64.72H44.17Z"/><path class="cls-4" d="M44.36,52h9.53V43.39c0-3.81.1-9.69,3.07-13.33,3.13-3.86,7.42-6.48,14.8-6.48,12,0,17.09,1.6,17.09,1.6L86.47,38.36a34.31,34.31,0,0,0-7.68-1.07c-3.71,0-7,1.24-7,4.7V52H87L85.9,64.91H71.76v44.72H53.89V64.91H44.36Z"/><path class="cls-4" d="M44.55,52.23h9.53V43.58c0-3.81.1-9.69,3.07-13.33,3.13-3.86,7.42-6.48,14.8-6.48,12,0,17.09,1.6,17.09,1.6L86.66,38.55A34.31,34.31,0,0,0,79,37.48c-3.71,0-7,1.24-7,4.7V52.23h15.2L86.09,65.1H71.95v44.72H54.08V65.1H44.55Z"/><path class="cls-4" d="M44.73,52.42h9.53V43.77c0-3.81.1-9.69,3.07-13.33C60.47,26.58,64.76,24,72.14,24c12,0,17.09,1.6,17.09,1.6L86.85,38.74a34.31,34.31,0,0,0-7.68-1.07c-3.71,0-7,1.24-7,4.7V52.42h15.2L86.28,65.29H72.14V110H54.27V65.29H44.73Z"/><path class="cls-4" d="M44.92,52.61h9.53V44c0-3.81.1-9.69,3.07-13.33,3.13-3.86,7.42-6.48,14.8-6.48,12,0,17.09,1.6,17.09,1.6L87,38.93a34.31,34.31,0,0,0-7.68-1.07c-3.71,0-7,1.24-7,4.7V52.61h15.2L86.47,65.48H72.33v44.72H54.46V65.48H44.92Z"/><path class="cls-4" d="M45.11,52.8h9.53V44.15c0-3.81.1-9.69,3.07-13.33,3.13-3.86,7.42-6.48,14.8-6.48,12,0,17.09,1.6,17.09,1.6L87.23,39.12A34.31,34.31,0,0,0,79.55,38c-3.71,0-7,1.24-7,4.7V52.8h15.2L86.66,65.67H72.52v44.72H54.65V65.67H45.11Z"/><path class="cls-4" d="M45.3,53h9.53V44.34c0-3.81.1-9.69,3.07-13.33,3.13-3.86,7.42-6.48,14.8-6.48,12,0,17.09,1.6,17.09,1.6L87.42,39.31a34.31,34.31,0,0,0-7.68-1.07c-3.71,0-7,1.24-7,4.7V53h15.2L86.85,65.86H72.71v44.72H54.84V65.86H45.3Z"/><path class="cls-4" d="M45.49,53.17H55V44.53c0-3.81.1-9.69,3.07-13.33,3.13-3.86,7.42-6.48,14.8-6.48,12,0,17.09,1.6,17.09,1.6L87.6,39.5a34.31,34.31,0,0,0-7.68-1.07c-3.71,0-7,1.24-7,4.7V53.17H88.1L87,66H72.9v44.72H55V66H45.49Z"/><path class="cls-4" d="M45.68,53.36h9.53V44.72c0-3.81.1-9.69,3.07-13.33,3.13-3.86,7.42-6.48,14.8-6.48,12,0,17.09,1.6,17.09,1.6L87.79,39.69a34.31,34.31,0,0,0-7.68-1.07c-3.71,0-7,1.24-7,4.7V53.36h15.2L87.23,66.24H73.09V111H55.22V66.24H45.68Z"/><path class="cls-4" d="M45.87,53.55h9.53V44.91c0-3.81.1-9.69,3.07-13.33,3.13-3.86,7.42-6.48,14.8-6.48,12,0,17.09,1.6,17.09,1.6L88,39.88A34.31,34.31,0,0,0,80.3,38.8c-3.71,0-7,1.24-7,4.7V53.55h15.2L87.42,66.43H73.28v44.72H55.41V66.43H45.87Z"/><path class="cls-4" d="M46.06,53.74h9.53V45.1c0-3.81.1-9.69,3.07-13.33,3.13-3.86,7.42-6.48,14.8-6.48,12,0,17.09,1.6,17.09,1.6L88.17,40.07A34.31,34.31,0,0,0,80.49,39c-3.71,0-7,1.24-7,4.7V53.74h15.2L87.61,66.61H73.46v44.72H55.59V66.61H46.06Z"/><path class="cls-4" d="M46.25,53.93h9.53V45.29c0-3.81.1-9.69,3.07-13.33,3.13-3.86,7.42-6.48,14.8-6.48,12,0,17.09,1.6,17.09,1.6L88.36,40.26a34.31,34.31,0,0,0-7.68-1.07c-3.71,0-7,1.24-7,4.7V53.93h15.2L87.8,66.8H73.65v44.72H55.78V66.8H46.25Z"/><path class="cls-4" d="M46.44,54.12H56V45.48c0-3.81.1-9.69,3.07-13.33,3.13-3.86,7.42-6.48,14.8-6.48,12,0,17.09,1.6,17.09,1.6L88.55,40.45a34.31,34.31,0,0,0-7.68-1.07c-3.71,0-7,1.24-7,4.7V54.12H89L88,67H73.84v44.72H56V67H46.44Z"/><path class="cls-4" d="M46.63,54.31h9.53V45.67c0-3.81.1-9.69,3.07-13.33,3.13-3.86,7.42-6.48,14.8-6.48,12,0,17.09,1.6,17.09,1.6L88.74,40.63a34.31,34.31,0,0,0-7.68-1.07c-3.71,0-7,1.24-7,4.7V54.31h15.2L88.18,67.18H74V111.9H56.16V67.18H46.63Z"/><path class="cls-4" d="M46.82,54.5h9.53V45.86c0-3.81.1-9.69,3.07-13.33C62.55,28.67,66.84,26,74.22,26c12,0,17.09,1.6,17.09,1.6L88.93,40.82a34.31,34.31,0,0,0-7.68-1.07c-3.71,0-7,1.24-7,4.7V54.5h15.2L88.37,67.37H74.22v44.72H56.35V67.37H46.82Z"/><path class="cls-4" d="M47,54.69h9.53V46c0-3.81.1-9.69,3.07-13.33,3.13-3.86,7.42-6.48,14.8-6.48,12,0,17.09,1.6,17.09,1.6L89.12,41a34.31,34.31,0,0,0-7.68-1.07c-3.71,0-7,1.24-7,4.7V54.69h15.2L88.56,67.56H74.41v44.72H56.54V67.56H47Z"/><path class="cls-4" d="M47.2,54.88h9.53V46.24c0-3.81.1-9.69,3.07-13.33,3.13-3.86,7.42-6.48,14.8-6.48,12,0,17.09,1.6,17.09,1.6L89.31,41.2a34.31,34.31,0,0,0-7.68-1.07c-3.71,0-7,1.24-7,4.7V54.88h15.2L88.74,67.75H74.6v44.72H56.73V67.75H47.2Z"/><path class="cls-4" d="M47.39,55.07h9.53V46.43c0-3.81.1-9.69,3.07-13.33,3.13-3.86,7.42-6.48,14.8-6.48,12,0,17.09,1.6,17.09,1.6L89.5,41.39a34.31,34.31,0,0,0-7.68-1.07c-3.71,0-7,1.24-7,4.7V55.07H90L88.93,67.94H74.79v44.72H56.92V67.94H47.39Z"/><path class="cls-4" d="M47.58,55.26h9.53V46.62c0-3.81.1-9.69,3.07-13.33C63.31,29.43,67.6,26.8,75,26.8c12,0,17.09,1.6,17.09,1.6L89.69,41.58A34.31,34.31,0,0,0,82,40.51c-3.71,0-7,1.24-7,4.7V55.26h15.2L89.12,68.13H75v44.72H57.11V68.13H47.58Z"/><path class="cls-4" d="M47.77,55.45H57.3V46.8c0-3.81.1-9.69,3.07-13.33C63.5,29.62,67.79,27,75.17,27c12,0,17.09,1.6,17.09,1.6L89.88,41.77A34.31,34.31,0,0,0,82.2,40.7c-3.71,0-7,1.24-7,4.7V55.45h15.2L89.31,68.32H75.17V113H57.3V68.32H47.77Z"/><path class="cls-4" d="M48,55.64h9.53V47c0-3.81.1-9.69,3.07-13.33,3.13-3.86,7.42-6.48,14.8-6.48,12,0,17.09,1.6,17.09,1.6L90.07,42a34.31,34.31,0,0,0-7.68-1.07c-3.71,0-7,1.24-7,4.7V55.64h15.2L89.5,68.51H75.36v44.72H57.49V68.51H48Z"/><path class="cls-4" d="M48.15,55.83h9.53V47.18c0-3.81.1-9.69,3.07-13.33,3.13-3.86,7.42-6.48,14.8-6.48,12,0,17.09,1.6,17.09,1.6L90.26,42.15a34.31,34.31,0,0,0-7.68-1.07c-3.71,0-7,1.24-7,4.7V55.83h15.2L89.69,68.7H75.55v44.72H57.68V68.7H48.15Z"/><path class="cls-4" d="M48.34,56h9.53V47.37c0-3.81.1-9.69,3.07-13.33,3.13-3.86,7.42-6.48,14.8-6.48,12,0,17.09,1.6,17.09,1.6L90.45,42.34a34.31,34.31,0,0,0-7.68-1.07c-3.71,0-7,1.24-7,4.7V56h15.2L89.88,68.89H75.74V113.6H57.87V68.89H48.34Z"/><path class="cls-4" d="M48.53,56.21h9.53V47.56c0-3.81.1-9.69,3.07-13.33,3.13-3.86,7.42-6.48,14.8-6.48,12,0,17.09,1.6,17.09,1.6L90.64,42.53A34.31,34.31,0,0,0,83,41.46c-3.71,0-7,1.24-7,4.7V56.21h15.2L90.07,69.08H75.93v44.72H58.06V69.08H48.53Z"/><path class="cls-4" d="M48.71,56.4h9.53V47.75c0-3.81.1-9.69,3.07-13.33,3.13-3.86,7.42-6.48,14.8-6.48,12,0,17.09,1.6,17.09,1.6L90.83,42.72a34.31,34.31,0,0,0-7.68-1.07c-3.71,0-7,1.24-7,4.7V56.4h15.2L90.26,69.27H76.12V114H58.25V69.27H48.71Z"/><path class="cls-4" d="M48.9,56.59h9.53V47.94c0-3.81.1-9.69,3.07-13.33,3.13-3.86,7.42-6.48,14.8-6.48,12,0,17.09,1.6,17.09,1.6L91,42.91a34.31,34.31,0,0,0-7.68-1.07c-3.71,0-7,1.24-7,4.7V56.59h15.2L90.45,69.46H76.31v44.72H58.44V69.46H48.9Z"/><path class="cls-4" d="M49.09,56.78h9.53V48.13c0-3.81.1-9.69,3.07-13.33,3.13-3.86,7.42-6.48,14.8-6.48,12,0,17.09,1.6,17.09,1.6L91.21,43.1A34.31,34.31,0,0,0,83.53,42c-3.71,0-7,1.24-7,4.7V56.78H91.7L90.64,69.65H76.5v44.72H58.63V69.65H49.09Z"/><path class="cls-4" d="M49.28,57h9.53V48.32c0-3.81.1-9.69,3.07-13.33,3.13-3.86,7.42-6.48,14.8-6.48,12,0,17.09,1.6,17.09,1.6L91.4,43.29a34.31,34.31,0,0,0-7.68-1.07c-3.71,0-7,1.24-7,4.7V57h15.2L90.83,69.84H76.69v44.72H58.82V69.84H49.28Z"/><path class="cls-4" d="M49.47,57.15H59V48.51c0-3.81.1-9.69,3.07-13.33,3.13-3.86,7.42-6.48,14.8-6.48,12,0,17.09,1.6,17.09,1.6L91.58,43.48a34.31,34.31,0,0,0-7.68-1.07c-3.71,0-7,1.24-7,4.7V57.15h15.2L91,70H76.88v44.72H59V70H49.47Z"/><path class="cls-4" d="M49.66,57.34H59.2V48.7c0-3.81.1-9.69,3.07-13.33,3.13-3.86,7.42-6.48,14.8-6.48,12,0,17.09,1.6,17.09,1.6L91.77,43.67a34.31,34.31,0,0,0-7.68-1.07c-3.71,0-7,1.24-7,4.7V57.34h15.2L91.21,70.22H77.07v44.72H59.2V70.22H49.66Z"/><path class="cls-4" d="M49.85,57.53h9.53V48.89c0-3.81.1-9.69,3.07-13.33,3.13-3.86,7.42-6.48,14.8-6.48,12,0,17.09,1.6,17.09,1.6L92,43.86a34.31,34.31,0,0,0-7.68-1.07c-3.71,0-7,1.24-7,4.7V57.53h15.2L91.4,70.41H77.26v44.72H59.39V70.41H49.85Z"/><path class="cls-4" d="M50,57.72h9.53V49.08c0-3.81.1-9.69,3.07-13.33,3.13-3.86,7.42-6.48,14.8-6.48,12,0,17.09,1.6,17.09,1.6L92.15,44A34.31,34.31,0,0,0,84.47,43c-3.71,0-7,1.24-7,4.7V57.72h15.2L91.59,70.59H77.44v44.72H59.57V70.59H50Z"/><path class="cls-4" d="M50.23,57.91h9.53V49.27c0-3.81.1-9.69,3.07-13.33,3.13-3.86,7.42-6.48,14.8-6.48,12,0,17.09,1.6,17.09,1.6L92.34,44.24a34.31,34.31,0,0,0-7.68-1.07c-3.71,0-7,1.24-7,4.7V57.91h15.2L91.78,70.78H77.63V115.5H59.76V70.78H50.23Z"/><path class="cls-4" d="M50.42,58.1H60V49.46c0-3.81.1-9.69,3.07-13.33,3.13-3.86,7.42-6.48,14.8-6.48,12,0,17.09,1.6,17.09,1.6L92.53,44.43a34.31,34.31,0,0,0-7.68-1.07c-3.71,0-7,1.24-7,4.7V58.1H93L92,71H77.82v44.72H60V71H50.42Z"/><path class="cls-4" d="M50.61,58.29h9.53V49.65c0-3.81.1-9.69,3.07-13.33,3.13-3.86,7.42-6.48,14.8-6.48,12,0,17.09,1.6,17.09,1.6L92.72,44.61A34.31,34.31,0,0,0,85,43.54c-3.71,0-7,1.24-7,4.7V58.29h15.2L92.16,71.16H78v44.72H60.14V71.16H50.61Z"/><path class="cls-4" d="M50.8,58.48h9.53V49.84c0-3.81.1-9.69,3.07-13.33C66.53,32.65,70.82,30,78.2,30c12,0,17.09,1.6,17.09,1.6L92.91,44.8a34.31,34.31,0,0,0-7.68-1.07c-3.71,0-7,1.24-7,4.7V58.48h15.2L92.35,71.35H78.2v44.72H60.33V71.35H50.8Z"/><path class="cls-4" d="M51,58.67h9.53V50c0-3.81.1-9.69,3.07-13.33,3.13-3.86,7.42-6.48,14.8-6.48,12,0,17.09,1.6,17.09,1.6L93.1,45a34.31,34.31,0,0,0-7.68-1.07c-3.71,0-7,1.24-7,4.7V58.67H93.6L92.54,71.54H78.39v44.72H60.52V71.54H51Z"/><path class="cls-4" d="M51.18,58.86h9.53V50.22c0-3.81.1-9.69,3.07-13.33C66.91,33,71.2,30.4,78.58,30.4c12,0,17.09,1.6,17.09,1.6L93.29,45.18a34.31,34.31,0,0,0-7.68-1.07c-3.71,0-7,1.24-7,4.7V58.86h15.2L92.72,71.73H78.58v44.72H60.71V71.73H51.18Z"/><path class="cls-4" d="M51.37,59H60.9V50.41c0-3.81.1-9.69,3.07-13.33,3.13-3.86,7.42-6.48,14.8-6.48,12,0,17.09,1.6,17.09,1.6L93.48,45.37A34.31,34.31,0,0,0,85.8,44.3c-3.71,0-7,1.24-7,4.7V59H94L92.91,71.92H78.77v44.72H60.9V71.92H51.37Z"/><path class="cls-4" d="M51.56,59.24h9.53V50.6c0-3.81.1-9.69,3.07-13.33,3.13-3.86,7.42-6.48,14.8-6.48,12,0,17.09,1.6,17.09,1.6L93.67,45.56A34.31,34.31,0,0,0,86,44.49c-3.71,0-7,1.24-7,4.7V59.24h15.2L93.1,72.11H79v44.72H61.09V72.11H51.56Z"/><path class="cls-4" d="M51.75,59.43h9.53V50.78c0-3.81.1-9.69,3.07-13.33C67.48,33.6,71.77,31,79.15,31c12,0,17.09,1.6,17.09,1.6L93.86,45.75a34.31,34.31,0,0,0-7.68-1.07c-3.71,0-7,1.24-7,4.7V59.43h15.2L93.29,72.3H79.15V117H61.28V72.3H51.75Z"/><path class="cls-4" d="M51.94,59.62h9.53V51c0-3.81.1-9.69,3.07-13.33,3.13-3.86,7.42-6.48,14.8-6.48,12,0,17.09,1.6,17.09,1.6L94,45.94a34.31,34.31,0,0,0-7.68-1.07c-3.71,0-7,1.24-7,4.7V59.62h15.2L93.48,72.49H79.34v44.72H61.47V72.49H51.94Z"/><path class="cls-4" d="M52.13,59.81h9.53V51.16c0-3.81.1-9.69,3.07-13.33,3.13-3.86,7.42-6.48,14.8-6.48,12,0,17.09,1.6,17.09,1.6L94.24,46.13a34.31,34.31,0,0,0-7.68-1.07c-3.71,0-7,1.24-7,4.7V59.81h15.2L93.67,72.68H79.53v44.72H61.66V72.68H52.13Z"/><path class="cls-4" d="M52.32,60h9.53V51.35c0-3.81.1-9.69,3.07-13.33,3.13-3.86,7.42-6.48,14.8-6.48,12,0,17.09,1.6,17.09,1.6L94.43,46.32a34.31,34.31,0,0,0-7.68-1.07c-3.71,0-7,1.24-7,4.7V60h15.2L93.86,72.87H79.72v44.72H61.85V72.87H52.32Z"/><path class="cls-4" d="M52.51,60.19H62V51.54c0-3.81.1-9.69,3.07-13.33,3.13-3.86,7.42-6.48,14.8-6.48,12,0,17.09,1.6,17.09,1.6L94.62,46.51a34.31,34.31,0,0,0-7.68-1.07c-3.71,0-7,1.24-7,4.7V60.19h15.2L94.05,73.06H79.91v44.72H62V73.06H52.51Z"/><path class="cls-4" d="M52.69,60.38h9.53V51.73c0-3.81.1-9.69,3.07-13.33,3.13-3.86,7.42-6.48,14.8-6.48,12,0,17.09,1.6,17.09,1.6L94.81,46.7a34.31,34.31,0,0,0-7.68-1.07c-3.71,0-7,1.24-7,4.7V60.38H95.3L94.24,73.25H80.1V118H62.23V73.25H52.69Z"/><path class="cls-4" d="M52.88,60.57h9.53V51.92c0-3.81.1-9.69,3.07-13.33,3.13-3.86,7.42-6.48,14.8-6.48,12,0,17.09,1.6,17.09,1.6L95,46.89a34.31,34.31,0,0,0-7.68-1.07c-3.71,0-7,1.24-7,4.7V60.57h15.2L94.43,73.44H80.29v44.72H62.42V73.44H52.88Z"/><path class="cls-4" d="M53.07,60.76h9.53V52.11c0-3.81.1-9.69,3.07-13.33,3.13-3.86,7.42-6.48,14.8-6.48,12,0,17.09,1.6,17.09,1.6L95.19,47.08A34.31,34.31,0,0,0,87.51,46c-3.71,0-7,1.24-7,4.7V60.76h15.2L94.62,73.63H80.48v44.72H62.61V73.63H53.07Z"/><path class="cls-4" d="M53.26,60.94H62.8V52.3c0-3.81.1-9.69,3.07-13.33,3.13-3.86,7.42-6.48,14.8-6.48,12,0,17.09,1.6,17.09,1.6L95.38,47.27A34.31,34.31,0,0,0,87.7,46.2c-3.71,0-7,1.24-7,4.7V60.94h15.2L94.81,73.82H80.67v44.72H62.8V73.82H53.26Z"/><path class="cls-4" d="M53.45,61.13H63V52.49c0-3.81.1-9.69,3.07-13.33,3.13-3.86,7.42-6.48,14.8-6.48,12,0,17.09,1.6,17.09,1.6L95.56,47.46a34.31,34.31,0,0,0-7.68-1.07c-3.71,0-7,1.24-7,4.7V61.13h15.2L95,74H80.86v44.72H63V74H53.45Z"/><path class="cls-4" d="M53.64,61.32h9.53V52.68c0-3.81.1-9.69,3.07-13.33,3.13-3.86,7.42-6.48,14.8-6.48,12,0,17.09,1.6,17.09,1.6L95.75,47.65a34.31,34.31,0,0,0-7.68-1.07c-3.71,0-7,1.24-7,4.7V61.32h15.2L95.19,74.2H81v44.72H63.18V74.2H53.64Z"/><path class="cls-4" d="M53.83,61.51h9.53V52.87c0-3.81.1-9.69,3.07-13.33,3.13-3.86,7.42-6.48,14.8-6.48,12,0,17.09,1.6,17.09,1.6L95.94,47.84a34.31,34.31,0,0,0-7.68-1.07c-3.71,0-7,1.24-7,4.7V61.51h15.2L95.38,74.39H81.24V119.1H63.37V74.39H53.83Z"/><path class="cls-4" d="M54,61.7h9.53V53.06c0-3.81.1-9.69,3.07-13.33,3.13-3.86,7.42-6.48,14.8-6.48,12,0,17.09,1.6,17.09,1.6L96.13,48A34.31,34.31,0,0,0,88.45,47c-3.71,0-7,1.24-7,4.7V61.7h15.2L95.57,74.57H81.42v44.72H63.55V74.57H54Z"/><path class="cls-4" d="M54.21,61.89h9.53V53.25c0-3.81.1-9.69,3.07-13.33,3.13-3.86,7.42-6.48,14.8-6.48,12,0,17.09,1.6,17.09,1.6L96.32,48.22a34.31,34.31,0,0,0-7.68-1.07c-3.71,0-7,1.24-7,4.7V61.89h15.2L95.76,74.76H81.61v44.72H63.74V74.76H54.21Z"/><path class="cls-4" d="M54.4,62.08h9.53V53.44c0-3.81.1-9.69,3.07-13.33,3.13-3.86,7.42-6.48,14.8-6.48,12,0,17.09,1.6,17.09,1.6L96.51,48.41a34.31,34.31,0,0,0-7.68-1.07c-3.71,0-7,1.24-7,4.7V62.08H97L95.95,75H81.8v44.72H63.93V75H54.4Z"/><path class="cls-4" d="M54.59,62.27h9.53V53.63c0-3.81.1-9.69,3.07-13.33,3.13-3.86,7.42-6.48,14.8-6.48,12,0,17.09,1.6,17.09,1.6L96.7,48.59A34.31,34.31,0,0,0,89,47.52c-3.71,0-7,1.24-7,4.7V62.27H97.2L96.14,75.14H82v44.72H64.12V75.14H54.59Z"/><path class="cls-4" d="M54.78,62.46h9.53V53.82c0-3.81.1-9.69,3.07-13.33C70.51,36.63,74.8,34,82.18,34c12,0,17.09,1.6,17.09,1.6L96.89,48.78a34.31,34.31,0,0,0-7.68-1.07c-3.71,0-7,1.24-7,4.7V62.46h15.2L96.33,75.33H82.18V120H64.31V75.33H54.78Z"/><path class="cls-4" d="M55,62.65H64.5V54c0-3.81.1-9.69,3.07-13.33C70.7,36.82,75,34.2,82.37,34.2c12,0,17.09,1.6,17.09,1.6L97.08,49A34.31,34.31,0,0,0,89.4,47.9c-3.71,0-7,1.24-7,4.7V62.65h15.2L96.52,75.52H82.37v44.72H64.5V75.52H55Z"/><path class="cls-4" d="M55.16,62.84h9.53V54.2c0-3.81.1-9.69,3.07-13.33,3.13-3.86,7.42-6.48,14.8-6.48,12,0,17.09,1.6,17.09,1.6L97.27,49.16a34.31,34.31,0,0,0-7.68-1.07c-3.71,0-7,1.24-7,4.7V62.84h15.2L96.7,75.71H82.56v44.72H64.69V75.71H55.16Z"/><path class="cls-4" d="M55.35,63h9.53V54.39c0-3.81.1-9.69,3.07-13.33,3.13-3.86,7.42-6.48,14.8-6.48,12,0,17.09,1.6,17.09,1.6L97.46,49.35a34.31,34.31,0,0,0-7.68-1.07c-3.71,0-7,1.24-7,4.7V63H98L96.89,75.9H82.75v44.72H64.88V75.9H55.35Z"/><path class="cls-4" d="M55.54,63.22h9.53V54.58c0-3.81.1-9.69,3.07-13.33,3.13-3.86,7.42-6.48,14.8-6.48,12,0,17.09,1.6,17.09,1.6L97.65,49.54A34.31,34.31,0,0,0,90,48.47c-3.71,0-7,1.24-7,4.7V63.22h15.2L97.08,76.09H82.94v44.72H65.07V76.09H55.54Z"/><path class="cls-4" d="M55.73,63.41h9.53V54.76c0-3.81.1-9.69,3.07-13.33C71.46,37.58,75.75,35,83.13,35c12,0,17.09,1.6,17.09,1.6L97.84,49.73a34.31,34.31,0,0,0-7.68-1.07c-3.71,0-7,1.24-7,4.7V63.41h15.2L97.27,76.28H83.13V121H65.26V76.28H55.73Z"/><path class="cls-4" d="M55.92,63.6h9.53V55c0-3.81.1-9.69,3.07-13.33,3.13-3.86,7.42-6.48,14.8-6.48,12,0,17.09,1.6,17.09,1.6L98,49.92a34.31,34.31,0,0,0-7.68-1.07c-3.71,0-7,1.24-7,4.7V63.6h15.2L97.46,76.47H83.32v44.72H65.45V76.47H55.92Z"/><path class="cls-4" d="M56.11,63.79h9.53V55.14c0-3.81.1-9.69,3.07-13.33,3.13-3.86,7.42-6.48,14.8-6.48,12,0,17.09,1.6,17.09,1.6L98.22,50.11A34.31,34.31,0,0,0,90.54,49c-3.71,0-7,1.24-7,4.7V63.79h15.2L97.65,76.66H83.51v44.72H65.64V76.66H56.11Z"/><path class="cls-4" d="M56.3,64h9.53V55.33c0-3.81.1-9.69,3.07-13.33,3.13-3.86,7.42-6.48,14.8-6.48,12,0,17.09,1.6,17.09,1.6L98.41,50.3a34.31,34.31,0,0,0-7.68-1.07c-3.71,0-7,1.24-7,4.7V64H98.9L97.84,76.85H83.7v44.72H65.83V76.85H56.3Z"/><path class="cls-4" d="M56.49,64.17H66V55.52c0-3.81.1-9.69,3.07-13.33,3.13-3.86,7.42-6.48,14.8-6.48,12,0,17.09,1.6,17.09,1.6L98.6,50.49a34.31,34.31,0,0,0-7.68-1.07c-3.71,0-7,1.24-7,4.7V64.17h15.2L98,77H83.89v44.72H66V77H56.49Z"/><path class="cls-4" d="M56.67,64.36h9.53V55.71c0-3.81.1-9.69,3.07-13.33,3.13-3.86,7.42-6.48,14.8-6.48,12,0,17.09,1.6,17.09,1.6L98.79,50.68a34.31,34.31,0,0,0-7.68-1.07c-3.71,0-7,1.24-7,4.7V64.36h15.2L98.22,77.23H84.08v44.72H66.21V77.23H56.67Z"/><path class="cls-4" d="M56.86,64.55H66.4V55.9c0-3.81.1-9.69,3.07-13.33,3.13-3.86,7.42-6.48,14.8-6.48,12,0,17.09,1.6,17.09,1.6L99,50.87A34.31,34.31,0,0,0,91.3,49.8c-3.71,0-7,1.24-7,4.7V64.55h15.2L98.41,77.42H84.27v44.72H66.4V77.42H56.86Z"/><path class="cls-4" d="M57.05,64.74h9.53V56.09c0-3.81.1-9.69,3.07-13.33,3.13-3.86,7.42-6.48,14.8-6.48,12,0,17.09,1.6,17.09,1.6L99.17,51.06A34.31,34.31,0,0,0,91.49,50c-3.71,0-7,1.24-7,4.7V64.74h15.2L98.6,77.61H84.46v44.72H66.59V77.61H57.05Z"/><path class="cls-4" d="M57.24,64.93h9.53V56.28c0-3.81.1-9.69,3.07-13.33,3.13-3.86,7.42-6.48,14.8-6.48,12,0,17.09,1.6,17.09,1.6L99.36,51.25a34.31,34.31,0,0,0-7.68-1.07c-3.71,0-7,1.24-7,4.7V64.93h15.2L98.79,77.8H84.65v44.72H66.78V77.8H57.24Z"/><path class="cls-4" d="M57.43,65.11H67V56.47c0-3.81.1-9.69,3.07-13.33,3.13-3.86,7.42-6.48,14.8-6.48,12,0,17.09,1.6,17.09,1.6L99.55,51.44a34.31,34.31,0,0,0-7.68-1.07c-3.71,0-7,1.24-7,4.7V65.11H100L99,78H84.84V122.7H67V78H57.43Z"/><path class="cls-4" d="M57.62,65.3h9.53V56.66c0-3.81.1-9.69,3.07-13.33,3.13-3.86,7.42-6.48,14.8-6.48,12,0,17.09,1.6,17.09,1.6L99.73,51.63a34.31,34.31,0,0,0-7.68-1.07c-3.71,0-7,1.24-7,4.7V65.3h15.2L99.17,78.18H85v44.72H67.16V78.18H57.62Z"/><path class="cls-4" d="M57.81,65.49h9.53V56.85c0-3.81.1-9.69,3.07-13.33C73.54,39.66,77.83,37,85.22,37c12,0,17.09,1.6,17.09,1.6L99.92,51.82a34.31,34.31,0,0,0-7.68-1.07c-3.71,0-7,1.24-7,4.7V65.49h15.2L99.36,78.37H85.22v44.72H67.35V78.37H57.81Z"/><path class="cls-4" d="M58,65.68h9.53V57c0-3.81.1-9.69,3.07-13.33,3.13-3.86,7.42-6.48,14.8-6.48,12,0,17.09,1.6,17.09,1.6L100.11,52a34.31,34.31,0,0,0-7.68-1.07c-3.71,0-7,1.24-7,4.7V65.68h15.2L99.55,78.55H85.4v44.72H67.53V78.55H58Z"/><path class="cls-4" d="M58.19,65.87h9.53V57.23c0-3.81.1-9.69,3.07-13.33,3.13-3.86,7.42-6.48,14.8-6.48,12,0,17.09,1.6,17.09,1.6L100.3,52.2a34.31,34.31,0,0,0-7.68-1.07c-3.71,0-7,1.24-7,4.7V65.87h15.2L99.74,78.74H85.59v44.72H67.72V78.74H58.19Z"/><path class="cls-4" d="M58.38,66.06h9.53V57.42c0-3.81.1-9.69,3.07-13.33,3.13-3.86,7.42-6.48,14.8-6.48,12,0,17.09,1.6,17.09,1.6l-2.38,13.18a34.31,34.31,0,0,0-7.68-1.07c-3.71,0-7,1.24-7,4.7V66.06H101L99.93,78.93H85.78v44.72H67.91V78.93H58.38Z"/><path class="cls-4" d="M58.57,66.25H68.1V57.61c0-3.81.1-9.69,3.07-13.33C74.3,40.42,78.59,37.8,86,37.8c12,0,17.09,1.6,17.09,1.6l-2.38,13.18A34.31,34.31,0,0,0,93,51.5c-3.71,0-7,1.24-7,4.7V66.25h15.2l-1.06,12.87H86v44.72H68.1V79.12H58.57Z"/><path class="cls-4" d="M58.76,66.44h9.53V57.8c0-3.81.1-9.69,3.07-13.33C74.49,40.61,78.78,38,86.16,38c12,0,17.09,1.6,17.09,1.6l-2.38,13.18a34.31,34.31,0,0,0-7.68-1.07c-3.71,0-7,1.24-7,4.7V66.44h15.2l-1.06,12.87H86.16V124H68.29V79.31H58.76Z"/><path class="cls-4" d="M58.95,66.63h9.53V58c0-3.81.1-9.69,3.07-13.33,3.13-3.86,7.42-6.48,14.8-6.48,12,0,17.09,1.6,17.09,1.6L101.06,53a34.31,34.31,0,0,0-7.68-1.07c-3.71,0-7,1.24-7,4.7V66.63h15.2L100.5,79.5H86.35v44.72H68.48V79.5H58.95Z"/><path class="cls-4" d="M59.14,66.82h9.53V58.18c0-3.81.1-9.69,3.07-13.33,3.13-3.86,7.42-6.48,14.8-6.48,12,0,17.09,1.6,17.09,1.6l-2.38,13.18a34.31,34.31,0,0,0-7.68-1.07c-3.71,0-7,1.24-7,4.7V66.82h15.2l-1.06,12.87H86.54v44.72H68.67V79.69H59.14Z"/><path class="cls-4" d="M59.33,67h9.53V58.37c0-3.81.1-9.69,3.07-13.33,3.13-3.86,7.42-6.48,14.8-6.48,12,0,17.09,1.6,17.09,1.6l-2.38,13.18a34.31,34.31,0,0,0-7.68-1.07c-3.71,0-7,1.24-7,4.7V67h15.2l-1.06,12.87H86.73V124.6H68.86V79.88H59.33Z"/><path class="cls-4" d="M59.52,67.2h9.53V58.56c0-3.81.1-9.69,3.07-13.33,3.13-3.86,7.42-6.48,14.8-6.48,12,0,17.09,1.6,17.09,1.6l-2.38,13.18a34.31,34.31,0,0,0-7.68-1.07c-3.71,0-7,1.24-7,4.7V67.2h15.2l-1.06,12.87H86.92v44.72H69.05V80.07H59.52Z"/><path class="cls-4" d="M59.71,67.39h9.53V58.74c0-3.81.1-9.69,3.07-13.33,3.13-3.86,7.42-6.48,14.8-6.48,12,0,17.09,1.6,17.09,1.6l-2.38,13.18a34.31,34.31,0,0,0-7.68-1.07c-3.71,0-7,1.24-7,4.7V67.39h15.2l-1.06,12.87H87.11V125H69.24V80.26H59.71Z"/><path class="cls-4" d="M59.9,67.58h9.53V58.93c0-3.81.1-9.69,3.07-13.33,3.13-3.86,7.42-6.48,14.8-6.48,12,0,17.09,1.6,17.09,1.6L102,53.9a34.31,34.31,0,0,0-7.68-1.07c-3.71,0-7,1.24-7,4.7V67.58h15.2l-1.06,12.87H87.3v44.72H69.43V80.45H59.9Z"/><path class="cls-4" d="M60.09,67.77h9.53V59.12c0-3.81.1-9.69,3.07-13.33,3.13-3.86,7.42-6.48,14.8-6.48,12,0,17.09,1.6,17.09,1.6L102.2,54.09A34.31,34.31,0,0,0,94.52,53c-3.71,0-7,1.24-7,4.7V67.77h15.2l-1.06,12.87H87.49v44.72H69.62V80.64H60.09Z"/><path class="cls-4" d="M60.28,68h9.53V59.31c0-3.81.1-9.69,3.07-13.33C76,42.12,80.3,39.5,87.68,39.5c12,0,17.09,1.6,17.09,1.6l-2.38,13.18a34.31,34.31,0,0,0-7.68-1.07c-3.71,0-7,1.24-7,4.7V68h15.2l-1.06,12.87H87.68v44.72H69.81V80.83H60.28Z"/><path class="cls-4" d="M60.47,68.15H70V59.5c0-3.81.1-9.69,3.07-13.33,3.13-3.86,7.42-6.48,14.8-6.48,12,0,17.09,1.6,17.09,1.6l-2.38,13.18A34.31,34.31,0,0,0,94.9,53.4c-3.71,0-7,1.24-7,4.7V68.15h15.2L102,81H87.87v44.72H70V81H60.47Z"/><path class="cls-4" d="M60.65,68.34h9.53V59.69c0-3.81.1-9.69,3.07-13.33,3.13-3.86,7.42-6.48,14.8-6.48,12,0,17.09,1.6,17.09,1.6l-2.38,13.18a34.31,34.31,0,0,0-7.68-1.07c-3.71,0-7,1.24-7,4.7V68.34h15.2L102.2,81.21H88.06v44.72H70.19V81.21H60.65Z"/><path class="cls-4" d="M60.84,68.53h9.53V59.88c0-3.81.1-9.69,3.07-13.33,3.13-3.86,7.42-6.48,14.8-6.48,12,0,17.09,1.6,17.09,1.6L103,54.85a34.31,34.31,0,0,0-7.68-1.07c-3.71,0-7,1.24-7,4.7V68.53h15.2L102.39,81.4H88.25v44.72H70.38V81.4H60.84Z"/><path class="cls-4" d="M61,68.72h9.53V60.07c0-3.81.1-9.69,3.07-13.33,3.13-3.86,7.42-6.48,14.8-6.48,12,0,17.09,1.6,17.09,1.6L103.15,55A34.31,34.31,0,0,0,95.47,54c-3.71,0-7,1.24-7,4.7V68.72h15.2l-1.06,12.87H88.44V126.3H70.57V81.59H61Z"/><path class="cls-4" d="M61.22,68.91h9.53V60.26c0-3.81.1-9.69,3.07-13.33,3.13-3.86,7.42-6.48,14.8-6.48,12,0,17.09,1.6,17.09,1.6l-2.38,13.18a34.31,34.31,0,0,0-7.68-1.07c-3.71,0-7,1.24-7,4.7V68.91h15.2l-1.06,12.87H88.63v44.72H70.76V81.78H61.22Z"/><path class="cls-4" d="M61.41,69.09h9.53V60.45c0-3.81.1-9.69,3.07-13.33,3.13-3.86,7.42-6.48,14.8-6.48,12,0,17.09,1.6,17.09,1.6l-2.38,13.18a34.31,34.31,0,0,0-7.68-1.07c-3.71,0-7,1.24-7,4.7V69.09H104L103,82H88.82v44.72H70.95V82H61.41Z"/><path class="cls-4" d="M61.6,69.28h9.53V60.64c0-3.81.1-9.69,3.07-13.33,3.13-3.86,7.42-6.48,14.8-6.48,12,0,17.09,1.6,17.09,1.6l-2.38,13.18A34.31,34.31,0,0,0,96,54.53c-3.71,0-7,1.24-7,4.7V69.28h15.2l-1.06,12.87H89v44.72H71.14V82.16H61.6Z"/><path class="cls-4" d="M61.79,69.47h9.53V60.83c0-3.81.1-9.69,3.07-13.33C77.52,43.64,81.81,41,89.2,41c12,0,17.09,1.6,17.09,1.6L103.9,55.8a34.31,34.31,0,0,0-7.68-1.07c-3.71,0-7,1.24-7,4.7V69.47h15.2l-1.06,12.87H89.2v44.72H71.33V82.35H61.79Z"/><path class="cls-4" d="M62,69.66h9.53V61c0-3.81.1-9.69,3.07-13.33,3.13-3.86,7.42-6.48,14.8-6.48,12,0,17.09,1.6,17.09,1.6L104.09,56a34.31,34.31,0,0,0-7.68-1.07c-3.71,0-7,1.24-7,4.7V69.66h15.2l-1.06,12.87H89.38v44.72H71.51V82.53H62Z"/><path class="cls-4" d="M62.17,69.85H71.7V61.21c0-3.81.1-9.69,3.07-13.33C77.9,44,82.19,41.4,89.57,41.4c12,0,17.09,1.6,17.09,1.6l-2.38,13.18A34.31,34.31,0,0,0,96.6,55.1c-3.71,0-7,1.24-7,4.7V69.85h15.2l-1.06,12.87H89.57v44.72H71.7V82.72H62.17Z"/><path class="cls-4" d="M62.36,70h9.53V61.4c0-3.81.1-9.69,3.07-13.33,3.13-3.86,7.42-6.48,14.8-6.48,12,0,17.09,1.6,17.09,1.6l-2.38,13.18a34.31,34.31,0,0,0-7.68-1.07c-3.71,0-7,1.24-7,4.7V70H105l-1.06,12.87H89.76v44.72H71.89V82.91H62.36Z"/><path class="cls-4" d="M62.55,70.23h9.53V61.59c0-3.81.1-9.69,3.07-13.33,3.13-3.86,7.42-6.48,14.8-6.48,12,0,17.09,1.6,17.09,1.6l-2.38,13.18A34.31,34.31,0,0,0,97,55.48c-3.71,0-7,1.24-7,4.7V70.23h15.2L104.1,83.1H90v44.72H72.08V83.1H62.55Z"/><path class="cls-4" d="M62.74,70.42h9.53V61.78c0-3.81.1-9.69,3.07-13.33C78.47,44.59,82.76,42,90.14,42c12,0,17.09,1.6,17.09,1.6l-2.38,13.18a34.31,34.31,0,0,0-7.68-1.07c-3.71,0-7,1.24-7,4.7V70.42h15.2l-1.06,12.87H90.14V128H72.27V83.29H62.74Z"/><path class="cls-4" d="M62.93,70.61h9.53V62c0-3.81.1-9.69,3.07-13.33,3.13-3.86,7.42-6.48,14.8-6.48,12,0,17.09,1.6,17.09,1.6L105,56.93a34.31,34.31,0,0,0-7.68-1.07c-3.71,0-7,1.24-7,4.7V70.61h15.2l-1.06,12.87H90.33V128.2H72.46V83.48H62.93Z"/><path class="cls-4" d="M63.12,70.8h9.53V62.16c0-3.81.1-9.69,3.07-13.33,3.13-3.86,7.42-6.48,14.8-6.48,12,0,17.09,1.6,17.09,1.6l-2.38,13.18a34.31,34.31,0,0,0-7.68-1.07c-3.71,0-7,1.24-7,4.7V70.8h15.2l-1.06,12.87H90.52v44.72H72.65V83.67H63.12Z"/><path class="cls-4" d="M63.31,71h9.53V62.35c0-3.81.1-9.69,3.07-13.33,3.13-3.86,7.42-6.48,14.8-6.48,12,0,17.09,1.6,17.09,1.6l-2.38,13.18a34.31,34.31,0,0,0-7.68-1.07c-3.71,0-7,1.24-7,4.7V71h15.2l-1.06,12.87H90.71v44.72H72.84V83.86H63.31Z"/><path class="cls-4" d="M63.5,71.18H73V62.54c0-3.81.1-9.69,3.07-13.33,3.13-3.86,7.42-6.48,14.8-6.48,12,0,17.09,1.6,17.09,1.6L105.61,57.5a34.31,34.31,0,0,0-7.68-1.07c-3.71,0-7,1.24-7,4.7V71.18h15.2L105,84.05H90.9v44.72H73V84.05H63.5Z"/><path class="cls-4" d="M63.69,71.37h9.53V62.73c0-3.81.1-9.69,3.07-13.33,3.13-3.86,7.42-6.48,14.8-6.48,12,0,17.09,1.6,17.09,1.6L105.8,57.69a34.31,34.31,0,0,0-7.68-1.07c-3.71,0-7,1.24-7,4.7V71.37h15.2l-1.06,12.87H91.09V129H73.22V84.24H63.69Z"/><path class="cls-4" d="M63.88,71.56h9.53V62.91c0-3.81.1-9.69,3.07-13.33,3.13-3.86,7.42-6.48,14.8-6.48,12,0,17.09,1.6,17.09,1.6L106,57.88a34.31,34.31,0,0,0-7.68-1.07c-3.71,0-7,1.24-7,4.7V71.56h15.2l-1.06,12.87H91.28v44.72H73.41V84.43H63.88Z"/><path class="cls-4" d="M64.07,71.75H73.6V63.1c0-3.81.1-9.69,3.07-13.33,3.13-3.86,7.42-6.48,14.8-6.48,12,0,17.09,1.6,17.09,1.6l-2.38,13.18A34.31,34.31,0,0,0,98.5,57c-3.71,0-7,1.24-7,4.7V71.75h15.2l-1.06,12.87H91.47v44.72H73.6V84.62H64.07Z"/><path class="cls-4" d="M64.26,71.94h9.53V63.29c0-3.81.1-9.69,3.07-13.33,3.13-3.86,7.42-6.48,14.8-6.48,12,0,17.09,1.6,17.09,1.6l-2.38,13.18a34.31,34.31,0,0,0-7.68-1.07c-3.71,0-7,1.24-7,4.7V71.94h15.2L105.8,84.81H91.66v44.72H73.79V84.81H64.26Z"/><path class="cls-4" d="M64.45,72.13H74V63.48c0-3.81.1-9.69,3.07-13.33,3.13-3.86,7.42-6.48,14.8-6.48,12,0,17.09,1.6,17.09,1.6l-2.38,13.18a34.31,34.31,0,0,0-7.68-1.07c-3.71,0-7,1.24-7,4.7V72.13h15.2L106,85H91.85v44.72H74V85H64.45Z"/><path class="cls-4" d="M64.63,72.32h9.53V63.67c0-3.81.1-9.69,3.07-13.33,3.13-3.86,7.42-6.48,14.8-6.48,12,0,17.09,1.6,17.09,1.6l-2.38,13.18a34.31,34.31,0,0,0-7.68-1.07c-3.71,0-7,1.24-7,4.7V72.32h15.2l-1.06,12.87H92V129.9H74.17V85.19H64.63Z"/><path class="cls-4" d="M64.82,72.51h9.53V63.86c0-3.81.1-9.69,3.07-13.33,3.13-3.86,7.42-6.48,14.8-6.48,12,0,17.09,1.6,17.09,1.6l-2.38,13.18a34.31,34.31,0,0,0-7.68-1.07c-3.71,0-7,1.24-7,4.7V72.51h15.2l-1.06,12.87H92.23v44.72H74.36V85.38H64.82Z"/><path class="cls-4" d="M65,72.7h9.53V64.05c0-3.81.1-9.69,3.07-13.33,3.13-3.86,7.42-6.48,14.8-6.48,12,0,17.09,1.6,17.09,1.6L107.13,59a34.31,34.31,0,0,0-7.68-1.07c-3.71,0-7,1.24-7,4.7V72.7h15.2l-1.06,12.87H92.42v44.72H74.55V85.57H65Z"/><path class="cls-4" d="M65.2,72.89h9.53V64.24c0-3.81.1-9.69,3.07-13.33,3.13-3.86,7.42-6.48,14.8-6.48,12,0,17.09,1.6,17.09,1.6l-2.38,13.18a34.31,34.31,0,0,0-7.68-1.07c-3.71,0-7,1.24-7,4.7V72.89h15.2l-1.06,12.87H92.61v44.72H74.74V85.76H65.2Z"/><path class="cls-4" d="M65.39,73.07h9.53V64.43c0-3.81.1-9.69,3.07-13.33,3.13-3.86,7.42-6.48,14.8-6.48,12,0,17.09,1.6,17.09,1.6L107.51,59.4a34.31,34.31,0,0,0-7.68-1.07c-3.71,0-7,1.24-7,4.7V73.07H108l-1.06,12.87H92.8v44.72H74.93V85.95H65.39Z"/><path class="cls-4" d="M65.58,73.26h9.53V64.62c0-3.81.1-9.69,3.07-13.33,3.13-3.86,7.42-6.48,14.8-6.48,12,0,17.09,1.6,17.09,1.6l-2.38,13.18A34.31,34.31,0,0,0,100,58.51c-3.71,0-7,1.24-7,4.7V73.26h15.2l-1.06,12.87H93v44.72H75.12V86.14H65.58Z"/><path class="cls-4" d="M65.77,73.45h9.53V64.81c0-3.81.1-9.69,3.07-13.33C81.5,47.62,85.79,45,93.18,45c12,0,17.09,1.6,17.09,1.6l-2.38,13.18a34.31,34.31,0,0,0-7.68-1.07c-3.71,0-7,1.24-7,4.7V73.45h15.2l-1.06,12.87H93.18V131H75.31V86.33H65.77Z"/><path class="cls-4" d="M66,73.64h9.53V65c0-3.81.1-9.69,3.07-13.33,3.13-3.86,7.42-6.48,14.8-6.48,12,0,17.09,1.6,17.09,1.6L108.07,60a34.31,34.31,0,0,0-7.68-1.07c-3.71,0-7,1.24-7,4.7V73.64h15.2l-1.06,12.87H93.37v44.72H75.49V86.51H66Z"/><path class="cls-4" d="M66.15,73.83h9.53V65.19c0-3.81.1-9.69,3.07-13.33,3.13-3.86,7.42-6.48,14.8-6.48,12,0,17.09,1.6,17.09,1.6l-2.38,13.18a34.31,34.31,0,0,0-7.68-1.07c-3.71,0-7,1.24-7,4.7V73.83h15.2L107.7,86.7H93.55v44.72H75.68V86.7H66.15Z"/><path class="cls-4" d="M66.34,74h9.53V65.38c0-3.81.1-9.69,3.07-13.33,3.13-3.86,7.42-6.48,14.8-6.48,12,0,17.09,1.6,17.09,1.6l-2.38,13.18a34.31,34.31,0,0,0-7.68-1.07c-3.71,0-7,1.24-7,4.7V74h15.2l-1.06,12.87H93.74v44.72H75.87V86.89H66.34Z"/><path class="cls-4" d="M66.53,74.21h9.53V65.57c0-3.81.1-9.69,3.07-13.33,3.13-3.86,7.42-6.48,14.8-6.48,12,0,17.09,1.6,17.09,1.6l-2.38,13.18A34.31,34.31,0,0,0,101,59.46c-3.71,0-7,1.24-7,4.7V74.21h15.2l-1.06,12.87H93.93V131.8H76.06V87.08H66.53Z"/><path class="cls-4" d="M66.72,74.4h9.53V65.76c0-3.81.1-9.69,3.07-13.33,3.13-3.86,7.42-6.48,14.8-6.48,12,0,17.09,1.6,17.09,1.6l-2.38,13.18a34.31,34.31,0,0,0-7.68-1.07c-3.71,0-7,1.24-7,4.7V74.4h15.2l-1.06,12.87H94.12V132H76.25V87.27H66.72Z"/><path class="cls-4" d="M66.91,74.59h9.53V65.95c0-3.81.1-9.69,3.07-13.33,3.13-3.86,7.42-6.48,14.8-6.48,12,0,17.09,1.6,17.09,1.6L109,60.91a34.31,34.31,0,0,0-7.68-1.07c-3.71,0-7,1.24-7,4.7V74.59h15.2l-1.06,12.87H94.31v44.72H76.44V87.46H66.91Z"/><path class="cls-4" d="M67.1,74.78h9.53V66.14c0-3.81.1-9.69,3.07-13.33,3.13-3.86,7.42-6.48,14.8-6.48,12,0,17.09,1.6,17.09,1.6L109.21,61.1A34.31,34.31,0,0,0,101.53,60c-3.71,0-7,1.24-7,4.7V74.78h15.2l-1.06,12.87H94.5v44.72H76.63V87.65H67.1Z"/><path class="cls-4" d="M67.29,75h9.53V66.33c0-3.81.1-9.69,3.07-13.33,3.13-3.86,7.42-6.48,14.8-6.48,12,0,17.09,1.6,17.09,1.6L109.4,61.29a34.31,34.31,0,0,0-7.68-1.07c-3.71,0-7,1.24-7,4.7V75h15.2l-1.06,12.87H94.69v44.72H76.82V87.84H67.29Z"/><path class="cls-4" d="M67.48,75.16H77V66.52c0-3.81.1-9.69,3.07-13.33,3.13-3.86,7.42-6.48,14.8-6.48,12,0,17.09,1.6,17.09,1.6l-2.38,13.18a34.31,34.31,0,0,0-7.68-1.07c-3.71,0-7,1.24-7,4.7V75.16h15.2L109,88H94.88v44.72H77V88H67.48Z"/><path class="cls-4" d="M67.67,75.35H77.2V66.71c0-3.81.1-9.69,3.07-13.33,3.13-3.86,7.42-6.48,14.8-6.48,12,0,17.09,1.6,17.09,1.6l-2.38,13.18a34.31,34.31,0,0,0-7.68-1.07c-3.71,0-7,1.24-7,4.7V75.35h15.2l-1.06,12.87H95.07v44.72H77.2V88.22H67.67Z"/><path class="cls-4" d="M67.86,75.54h9.53V66.89c0-3.81.1-9.69,3.07-13.33,3.13-3.86,7.42-6.48,14.8-6.48,12,0,17.09,1.6,17.09,1.6L110,61.86a34.31,34.31,0,0,0-7.68-1.07c-3.71,0-7,1.24-7,4.7V75.54h15.2L109.4,88.41H95.26v44.72H77.39V88.41H67.86Z"/><path class="cls-4" d="M68,75.73h9.53V67.08c0-3.81.1-9.69,3.07-13.33,3.13-3.86,7.42-6.48,14.8-6.48,12,0,17.09,1.6,17.09,1.6l-2.38,13.18A34.31,34.31,0,0,0,102.48,61c-3.71,0-7,1.24-7,4.7V75.73h15.2L109.59,88.6H95.45v44.72H77.58V88.6H68Z"/><path class="cls-4" d="M68.24,75.92h9.53V67.27c0-3.81.1-9.69,3.07-13.33,3.13-3.86,7.42-6.48,14.8-6.48,12,0,17.09,1.6,17.09,1.6l-2.38,13.18a34.31,34.31,0,0,0-7.68-1.07c-3.71,0-7,1.24-7,4.7V75.92h15.2l-1.06,12.87H95.64V133.5H77.77V88.79H68.24Z"/><path class="cls-4" d="M68.43,76.11H78V67.46c0-3.81.1-9.69,3.07-13.33,3.13-3.86,7.42-6.48,14.8-6.48,12,0,17.09,1.6,17.09,1.6l-2.38,13.18a34.31,34.31,0,0,0-7.68-1.07c-3.71,0-7,1.24-7,4.7V76.11H111L110,89H95.83v44.72H78V89H68.43Z"/><path class="cls-4" d="M68.61,76.3h9.53V67.65c0-3.81.1-9.69,3.07-13.33,3.13-3.86,7.42-6.48,14.8-6.48,12,0,17.09,1.6,17.09,1.6l-2.38,13.18A34.31,34.31,0,0,0,103,61.55c-3.71,0-7,1.24-7,4.7V76.3h15.2l-1.06,12.87H96v44.72H78.15V89.17H68.61Z"/><path class="cls-4" d="M68.8,76.49h9.53V67.84c0-3.81.1-9.69,3.07-13.33C84.54,50.65,88.83,48,96.21,48c12,0,17.09,1.6,17.09,1.6l-2.38,13.18a34.31,34.31,0,0,0-7.68-1.07c-3.71,0-7,1.24-7,4.7V76.49h15.2l-1.06,12.87H96.21v44.72H78.34V89.36H68.8Z"/><path class="cls-4" d="M69,76.68h9.53V68c0-3.81.1-9.69,3.07-13.33,3.13-3.86,7.42-6.48,14.8-6.48,12,0,17.09,1.6,17.09,1.6L111.11,63a34.31,34.31,0,0,0-7.68-1.07c-3.71,0-7,1.24-7,4.7V76.68h15.2l-1.06,12.87H96.4v44.72H78.53V89.55H69Z"/><path class="cls-4" d="M69.18,76.87h9.53V68.22c0-3.81.1-9.69,3.07-13.33,3.13-3.86,7.42-6.48,14.8-6.48,12,0,17.09,1.6,17.09,1.6L111.3,63.19a34.31,34.31,0,0,0-7.68-1.07c-3.71,0-7,1.24-7,4.7V76.87h15.2l-1.06,12.87H96.59v44.72H78.72V89.74H69.18Z"/><path class="cls-4" d="M69.37,77.05h9.53V68.41c0-3.81.1-9.69,3.07-13.33,3.13-3.86,7.42-6.48,14.8-6.48,12,0,17.09,1.6,17.09,1.6l-2.38,13.18a34.31,34.31,0,0,0-7.68-1.07c-3.71,0-7,1.24-7,4.7V77.05H112l-1.06,12.87H96.78v44.72H78.91V89.93H69.37Z"/><path class="cls-4" d="M69.56,77.24H79.1V68.6c0-3.81.1-9.69,3.07-13.33,3.13-3.86,7.42-6.48,14.8-6.48,12,0,17.09,1.6,17.09,1.6l-2.38,13.18A34.31,34.31,0,0,0,104,62.5c-3.71,0-7,1.24-7,4.7V77.24h15.2l-1.06,12.87H97v44.72H79.1V90.12H69.56Z"/><path class="cls-4" d="M69.75,77.43h9.53V68.79c0-3.81.1-9.69,3.07-13.33C85.48,51.6,89.77,49,97.16,49c12,0,17.09,1.6,17.09,1.6l-2.38,13.18a34.31,34.31,0,0,0-7.68-1.07c-3.71,0-7,1.24-7,4.7V77.43h15.2L111.3,90.31H97.16V135H79.29V90.31H69.75Z"/><path class="cls-4" d="M69.94,77.62h9.53V69c0-3.81.1-9.69,3.07-13.33,3.13-3.86,7.42-6.48,14.8-6.48,12,0,17.09,1.6,17.09,1.6l-2.38,13.18a34.31,34.31,0,0,0-7.68-1.07c-3.71,0-7,1.24-7,4.7V77.62h15.2l-1.06,12.87H97.35v44.72H79.47V90.49H69.94Z"/><path class="cls-4" d="M70.13,77.81h9.53V69.17c0-3.81.1-9.69,3.07-13.33,3.13-3.86,7.42-6.48,14.8-6.48,12,0,17.09,1.6,17.09,1.6l-2.38,13.18a34.31,34.31,0,0,0-7.68-1.07c-3.71,0-7,1.24-7,4.7V77.81h15.2l-1.06,12.87H97.53V135.4H79.66V90.68H70.13Z"/><path class="cls-4" d="M70.32,78h9.53V69.36c0-3.81.1-9.69,3.07-13.33,3.13-3.86,7.42-6.48,14.8-6.48,12,0,17.09,1.6,17.09,1.6l-2.38,13.18a34.31,34.31,0,0,0-7.68-1.07c-3.71,0-7,1.24-7,4.7V78h15.2l-1.06,12.87H97.72v44.72H79.85V90.87H70.32Z"/><path class="cls-4" d="M70.51,78.19H80V69.55c0-3.81.1-9.69,3.07-13.33,3.13-3.86,7.42-6.48,14.8-6.48,12,0,17.09,1.6,17.09,1.6l-2.38,13.18a34.31,34.31,0,0,0-7.68-1.07c-3.71,0-7,1.24-7,4.7V78.19h15.2l-1.06,12.87H97.91v44.72H80V91.06H70.51Z"/><path class="cls-4" d="M70.7,78.38h9.53V69.74c0-3.81.1-9.69,3.07-13.33,3.13-3.86,7.42-6.48,14.8-6.48,12,0,17.09,1.6,17.09,1.6L112.81,64.7a34.31,34.31,0,0,0-7.68-1.07c-3.71,0-7,1.24-7,4.7V78.38h15.2l-1.06,12.87H98.1V136H80.23V91.25H70.7Z"/><path class="cls-4" d="M70.89,78.57h9.53V69.93c0-3.81.1-9.69,3.07-13.33,3.13-3.86,7.42-6.48,14.8-6.48,12,0,17.09,1.6,17.09,1.6L113,64.89a34.31,34.31,0,0,0-7.68-1.07c-3.71,0-7,1.24-7,4.7V78.57h15.2l-1.06,12.87H98.29v44.72H80.42V91.44H70.89Z"/><path class="cls-4" d="M71.08,78.76h9.53V70.12c0-3.81.1-9.69,3.07-13.33,3.13-3.86,7.42-6.48,14.8-6.48,12,0,17.09,1.6,17.09,1.6l-2.38,13.18A34.31,34.31,0,0,0,105.51,64c-3.71,0-7,1.24-7,4.7V78.76h15.2l-1.06,12.87H98.48v44.72H80.61V91.63H71.08Z"/><path class="cls-4" d="M71.27,78.95H80.8V70.31c0-3.81.1-9.69,3.07-13.33,3.13-3.86,7.42-6.48,14.8-6.48,12,0,17.09,1.6,17.09,1.6l-2.38,13.18a34.31,34.31,0,0,0-7.68-1.07c-3.71,0-7,1.24-7,4.7V78.95h15.2l-1.06,12.87H98.67v44.72H80.8V91.82H71.27Z"/><path class="cls-4" d="M71.46,79.14H81V70.5c0-3.81.1-9.69,3.07-13.33,3.13-3.86,7.42-6.48,14.8-6.48,12,0,17.09,1.6,17.09,1.6l-2.38,13.18a34.31,34.31,0,0,0-7.68-1.07c-3.71,0-7,1.24-7,4.7V79.14h15.2L113,92H98.86v44.72H81V92H71.46Z"/><path class="cls-4" d="M71.65,79.33h9.53V70.69c0-3.81.1-9.69,3.07-13.33,3.13-3.86,7.42-6.48,14.8-6.48,12,0,17.09,1.6,17.09,1.6l-2.38,13.18a34.31,34.31,0,0,0-7.68-1.07c-3.71,0-7,1.24-7,4.7V79.33h15.2L113.19,92.2H99.05v44.72H81.18V92.2H71.65Z"/><path class="cls-4" d="M71.84,79.52h9.53V70.87c0-3.81.1-9.69,3.07-13.33,3.13-3.86,7.42-6.48,14.8-6.48,12,0,17.09,1.6,17.09,1.6l-2.38,13.18a34.31,34.31,0,0,0-7.68-1.07c-3.71,0-7,1.24-7,4.7V79.52h15.2l-1.06,12.87H99.24v44.72H81.37V92.39H71.84Z"/><path class="cls-4" d="M72,79.71h9.53V71.06c0-3.81.1-9.69,3.07-13.33,3.13-3.86,7.42-6.48,14.8-6.48,12,0,17.09,1.6,17.09,1.6L114.14,66A34.31,34.31,0,0,0,106.46,65c-3.71,0-7,1.24-7,4.7V79.71h15.2l-1.06,12.87H99.43V137.3H81.56V92.58H72Z"/><path class="cls-4" d="M72.22,79.9h9.53V71.25c0-3.81.1-9.69,3.07-13.33,3.13-3.86,7.42-6.48,14.8-6.48,12,0,17.09,1.6,17.09,1.6l-2.38,13.18a34.31,34.31,0,0,0-7.68-1.07c-3.71,0-7,1.24-7,4.7V79.9h15.2l-1.06,12.87H99.62v44.72H81.75V92.77H72.22Z"/><path class="cls-4" d="M72.41,80.09h9.53V71.44c0-3.81.1-9.69,3.07-13.33,3.13-3.86,7.42-6.48,14.8-6.48,12,0,17.09,1.6,17.09,1.6l-2.38,13.18a34.31,34.31,0,0,0-7.68-1.07c-3.71,0-7,1.24-7,4.7V80.09H115L114,93H99.81v44.72H81.94V93H72.41Z"/><path class="cls-4" d="M72.59,80.28h9.53V71.63c0-3.81.1-9.69,3.07-13.33,3.13-3.86,7.42-6.48,14.8-6.48,12,0,17.09,1.6,17.09,1.6L114.71,66.6A34.31,34.31,0,0,0,107,65.53c-3.71,0-7,1.24-7,4.7V80.28h15.2l-1.06,12.87H100v44.72H82.13V93.15H72.59Z"/><path class="cls-4" d="M72.78,80.47h9.53V71.82c0-3.81.1-9.69,3.07-13.33,3.13-3.86,7.42-6.48,14.8-6.48,12,0,17.09,1.6,17.09,1.6L114.9,66.79a34.31,34.31,0,0,0-7.68-1.07c-3.71,0-7,1.24-7,4.7V80.47h15.2l-1.06,12.87H100.19v44.72H82.32V93.34H72.78Z"/><path class="cls-4" d="M73,80.66h9.53V72c0-3.81.1-9.69,3.07-13.33,3.13-3.86,7.42-6.48,14.8-6.48,12,0,17.09,1.6,17.09,1.6L115.09,67a34.31,34.31,0,0,0-7.68-1.07c-3.71,0-7,1.24-7,4.7V80.66h15.2l-1.06,12.87H100.38v44.72H82.51V93.53H73Z"/><path class="cls-4" d="M73.16,80.85H82.7V72.2c0-3.81.1-9.69,3.07-13.33,3.13-3.86,7.42-6.48,14.8-6.48,12,0,17.09,1.6,17.09,1.6l-2.38,13.18a34.31,34.31,0,0,0-7.68-1.07c-3.71,0-7,1.24-7,4.7V80.85h15.2l-1.06,12.87H100.57v44.72H82.7V93.72H73.16Z"/><path class="cls-4" d="M73.35,81h9.53V72.39c0-3.81.1-9.69,3.07-13.33,3.13-3.86,7.42-6.48,14.8-6.48,12,0,17.09,1.6,17.09,1.6l-2.38,13.18a34.31,34.31,0,0,0-7.68-1.07c-3.71,0-7,1.24-7,4.7V81H116L114.9,93.91H100.76v44.72H82.89V93.91H73.35Z"/><path class="cls-4" d="M73.54,81.22h9.53V72.58c0-3.81.1-9.69,3.07-13.33,3.13-3.86,7.42-6.48,14.8-6.48,12,0,17.09,1.6,17.09,1.6l-2.38,13.18A34.31,34.31,0,0,0,108,66.48c-3.71,0-7,1.24-7,4.7V81.22h15.2L115.09,94.1H100.95v44.72H83.08V94.1H73.54Z"/><path class="cls-4" d="M73.73,81.41h9.53V72.77c0-3.81.1-9.69,3.07-13.33,3.13-3.86,7.42-6.48,14.8-6.48,12,0,17.09,1.6,17.09,1.6l-2.38,13.18a34.31,34.31,0,0,0-7.68-1.07c-3.71,0-7,1.24-7,4.7V81.41h15.2l-1.06,12.87H101.14V139H83.27V94.29H73.73Z"/><path class="cls-4" d="M73.92,81.6h9.53V73c0-3.81.1-9.69,3.07-13.33,3.13-3.86,7.42-6.48,14.8-6.48,12,0,17.09,1.6,17.09,1.6L116,67.93a34.31,34.31,0,0,0-7.68-1.07c-3.71,0-7,1.24-7,4.7V81.6h15.2l-1.06,12.87H101.33v44.72H83.45V94.48H73.92Z"/><path class="cls-4" d="M74.11,81.79h9.53V73.15c0-3.81.1-9.69,3.07-13.33,3.13-3.86,7.42-6.48,14.8-6.48,12,0,17.09,1.6,17.09,1.6l-2.38,13.18A34.31,34.31,0,0,0,108.54,67c-3.71,0-7,1.24-7,4.7V81.79h15.2l-1.06,12.87H101.51v44.72H83.64V94.66H74.11Z"/><path class="cls-4" d="M74.3,82h9.53V73.34c0-3.81.1-9.69,3.07-13.33,3.13-3.86,7.42-6.48,14.8-6.48,12,0,17.09,1.6,17.09,1.6l-2.38,13.18a34.31,34.31,0,0,0-7.68-1.07c-3.71,0-7,1.24-7,4.7V82h15.2l-1.06,12.87H101.7v44.72H83.83V94.85H74.3Z"/><path class="cls-4" d="M74.49,82.17H84V73.53c0-3.81.1-9.69,3.07-13.33,3.13-3.86,7.42-6.48,14.8-6.48,12,0,17.09,1.6,17.09,1.6L116.6,68.49a34.31,34.31,0,0,0-7.68-1.07c-3.71,0-7,1.24-7,4.7V82.17h15.2L116,95H101.89v44.72H84V95H74.49Z"/><path class="cls-4" d="M74.68,82.36h9.53V73.72c0-3.81.1-9.69,3.07-13.33,3.13-3.86,7.42-6.48,14.8-6.48,12,0,17.09,1.6,17.09,1.6l-2.38,13.18a34.31,34.31,0,0,0-7.68-1.07c-3.71,0-7,1.24-7,4.7V82.36h15.2l-1.06,12.87H102.08v44.72H84.21V95.23H74.68Z"/><path class="cls-4" d="M74.87,82.55H84.4V73.91c0-3.81.1-9.69,3.07-13.33,3.13-3.86,7.42-6.48,14.8-6.48,12,0,17.09,1.6,17.09,1.6L117,68.87a34.31,34.31,0,0,0-7.68-1.07c-3.71,0-7,1.24-7,4.7V82.55h15.2l-1.06,12.87H102.27v44.72H84.4V95.42H74.87Z"/><path class="cls-4" d="M75.06,82.74h9.53V74.1c0-3.81.1-9.69,3.07-13.33,3.13-3.86,7.42-6.48,14.8-6.48,12,0,17.09,1.6,17.09,1.6l-2.38,13.18A34.31,34.31,0,0,0,109.49,68c-3.71,0-7,1.24-7,4.7V82.74h15.2L116.6,95.61H102.46v44.72H84.59V95.61H75.06Z"/><path class="cls-4" d="M75.25,82.93h9.53V74.29c0-3.81.1-9.69,3.07-13.33,3.13-3.86,7.42-6.48,14.8-6.48,12,0,17.09,1.6,17.09,1.6l-2.38,13.18a34.31,34.31,0,0,0-7.68-1.07c-3.71,0-7,1.24-7,4.7V82.93h15.2L116.79,95.8H102.65v44.72H84.78V95.8H75.25Z"/><path class="cls-4" d="M75.44,83.12H85V74.48c0-3.81.1-9.69,3.07-13.33,3.13-3.86,7.42-6.48,14.8-6.48,12,0,17.09,1.6,17.09,1.6l-2.38,13.18a34.31,34.31,0,0,0-7.68-1.07c-3.71,0-7,1.24-7,4.7V83.12H118L117,96H102.84v44.72H85V96H75.44Z"/><path class="cls-4" d="M75.63,83.31h9.53V74.67c0-3.81.1-9.69,3.07-13.33,3.13-3.86,7.42-6.48,14.8-6.48,12,0,17.09,1.6,17.09,1.6l-2.38,13.18a34.31,34.31,0,0,0-7.68-1.07c-3.71,0-7,1.24-7,4.7V83.31h15.2l-1.06,12.87H103V140.9H85.16V96.18H75.63Z"/><path class="cls-4" d="M75.82,83.5h9.53V74.85c0-3.81.1-9.69,3.07-13.33,3.13-3.86,7.42-6.48,14.8-6.48,12,0,17.09,1.6,17.09,1.6l-2.38,13.18a34.31,34.31,0,0,0-7.68-1.07c-3.71,0-7,1.24-7,4.7V83.5h15.2l-1.06,12.87H103.22v44.72H85.35V96.37H75.82Z"/><path class="cls-4" d="M76,83.69h9.53V75c0-3.81.1-9.69,3.07-13.33,3.13-3.86,7.42-6.48,14.8-6.48,12,0,17.09,1.6,17.09,1.6L118.12,70a34.31,34.31,0,0,0-7.68-1.07c-3.71,0-7,1.24-7,4.7V83.69h15.2l-1.06,12.87H103.41v44.72H85.54V96.56H76Z"/><path class="cls-4" d="M76.2,83.88h9.53V75.23c0-3.81.1-9.69,3.07-13.33,3.13-3.86,7.42-6.48,14.8-6.48,12,0,17.09,1.6,17.09,1.6L118.31,70.2a34.31,34.31,0,0,0-7.68-1.07c-3.71,0-7,1.24-7,4.7V83.88h15.2l-1.06,12.87H103.6v44.72H85.73V96.75H76.2Z"/><path class="cls-4" d="M76.39,84.07h9.53V75.42c0-3.81.1-9.69,3.07-13.33,3.13-3.86,7.42-6.48,14.8-6.48,12,0,17.09,1.6,17.09,1.6L118.5,70.39a34.31,34.31,0,0,0-7.68-1.07c-3.71,0-7,1.24-7,4.7V84.07H119l-1.06,12.87H103.79v44.72H85.92V96.94H76.39Z"/><path class="cls-4" d="M76.57,84.26h9.53V75.61c0-3.81.1-9.69,3.07-13.33,3.13-3.86,7.42-6.48,14.8-6.48,12,0,17.09,1.6,17.09,1.6l-2.38,13.18A34.31,34.31,0,0,0,111,69.51c-3.71,0-7,1.24-7,4.7V84.26h15.2l-1.06,12.87H104v44.72H86.11V97.13H76.57Z"/><path class="cls-4" d="M76.76,84.45H86.3V75.8c0-3.81.1-9.69,3.07-13.33C92.5,58.61,96.79,56,104.17,56c12,0,17.09,1.6,17.09,1.6l-2.38,13.18a34.31,34.31,0,0,0-7.68-1.07c-3.71,0-7,1.24-7,4.7V84.45h15.2l-1.06,12.87H104.17V142H86.3V97.32H76.76Z"/><path class="cls-4" d="M77,84.64h9.53V76c0-3.81.1-9.69,3.07-13.33,3.13-3.86,7.42-6.48,14.8-6.48,12,0,17.09,1.6,17.09,1.6L119.07,71a34.31,34.31,0,0,0-7.68-1.07c-3.71,0-7,1.24-7,4.7V84.64h15.2L118.5,97.51H104.36v44.72H86.49V97.51H77Z"/><path class="cls-4" d="M77.14,84.83h9.53V76.18c0-3.81.1-9.69,3.07-13.33,3.13-3.86,7.42-6.48,14.8-6.48,12,0,17.09,1.6,17.09,1.6l-2.38,13.18a34.31,34.31,0,0,0-7.68-1.07c-3.71,0-7,1.24-7,4.7V84.83h15.2L118.69,97.7H104.55v44.72H86.68V97.7H77.14Z"/><path class="cls-4" d="M77.33,85h9.53V76.37c0-3.81.1-9.69,3.07-13.33,3.13-3.86,7.42-6.48,14.8-6.48,12,0,17.09,1.6,17.09,1.6l-2.38,13.18a34.31,34.31,0,0,0-7.68-1.07c-3.71,0-7,1.24-7,4.7V85h15.2l-1.06,12.87H104.74V142.6H86.87V97.89H77.33Z"/><path class="cls-4" d="M77.52,85.2h9.53V76.56c0-3.81.1-9.69,3.07-13.33,3.13-3.86,7.42-6.48,14.8-6.48,12,0,17.09,1.6,17.09,1.6l-2.38,13.18A34.31,34.31,0,0,0,112,70.46c-3.71,0-7,1.24-7,4.7V85.2h15.2l-1.06,12.87H104.93v44.72H87.06V98.08H77.52Z"/><path class="cls-4" d="M77.71,85.39h9.53V76.75c0-3.81.1-9.69,3.07-13.33,3.13-3.86,7.42-6.48,14.8-6.48,12,0,17.09,1.6,17.09,1.6l-2.38,13.18a34.31,34.31,0,0,0-7.68-1.07c-3.71,0-7,1.24-7,4.7V85.39h15.2l-1.06,12.87H105.12V143H87.25V98.27H77.71Z"/><path class="cls-4" d="M77.9,85.58h9.53V76.94c0-3.81.1-9.69,3.07-13.33,3.13-3.86,7.42-6.48,14.8-6.48,12,0,17.09,1.6,17.09,1.6L120,71.91a34.31,34.31,0,0,0-7.68-1.07c-3.71,0-7,1.24-7,4.7V85.58h15.2l-1.06,12.87H105.31v44.72H87.43V98.46H77.9Z"/><path class="cls-4" d="M78.09,85.77h9.53V77.13c0-3.81.1-9.69,3.07-13.33,3.13-3.86,7.42-6.48,14.8-6.48,12,0,17.09,1.6,17.09,1.6L120.2,72.1A34.31,34.31,0,0,0,112.52,71c-3.71,0-7,1.24-7,4.7V85.77h15.2l-1.06,12.87H105.49v44.72H87.62V98.64H78.09Z"/><path class="cls-4" d="M78.28,86h9.53V77.32c0-3.81.1-9.69,3.07-13.33,3.13-3.86,7.42-6.48,14.8-6.48,12,0,17.09,1.6,17.09,1.6l-2.38,13.18a34.31,34.31,0,0,0-7.68-1.07c-3.71,0-7,1.24-7,4.7V86h15.2l-1.06,12.87H105.68v44.72H87.81V98.83H78.28Z"/><path class="cls-4" d="M78.47,86.15H88V77.51c0-3.81.1-9.69,3.07-13.33,3.13-3.86,7.42-6.48,14.8-6.48,12,0,17.09,1.6,17.09,1.6l-2.38,13.18a34.31,34.31,0,0,0-7.68-1.07c-3.71,0-7,1.24-7,4.7V86.15h15.2L120,99H105.87v44.72H88V99H78.47Z"/><path class="cls-4" d="M78.66,86.34h9.53V77.7c0-3.81.1-9.69,3.07-13.33,3.13-3.86,7.42-6.48,14.8-6.48,12,0,17.09,1.6,17.09,1.6l-2.38,13.18a34.31,34.31,0,0,0-7.68-1.07c-3.71,0-7,1.24-7,4.7V86.34h15.2l-1.06,12.87H106.06v44.72H88.19V99.21H78.66Z"/><path class="cls-4" d="M78.85,86.53h9.53V77.89c0-3.81.1-9.69,3.07-13.33,3.13-3.86,7.42-6.48,14.8-6.48,12,0,17.09,1.6,17.09,1.6L121,72.85a34.31,34.31,0,0,0-7.68-1.07c-3.71,0-7,1.24-7,4.7V86.53h15.2L120.4,99.4H106.25v44.72H88.38V99.4H78.85Z"/><path class="cls-4" d="M79,86.72h9.53V78.08c0-3.81.1-9.69,3.07-13.33,3.13-3.86,7.42-6.48,14.8-6.48,12,0,17.09,1.6,17.09,1.6L121.15,73A34.31,34.31,0,0,0,113.47,72c-3.71,0-7,1.24-7,4.7V86.72h15.2l-1.06,12.87H106.44v44.72H88.57V99.59H79Z"/><path class="cls-4" d="M79.23,86.91h9.53V78.27c0-3.81.1-9.69,3.07-13.33,3.13-3.86,7.42-6.48,14.8-6.48,12,0,17.09,1.6,17.09,1.6l-2.38,13.18a34.31,34.31,0,0,0-7.68-1.07c-3.71,0-7,1.24-7,4.7V86.91h15.2l-1.06,12.87H106.63V144.5H88.76V99.78H79.23Z"/><path class="cls-4" d="M79.42,87.1H89V78.46c0-3.81.1-9.69,3.07-13.33,3.13-3.86,7.42-6.48,14.8-6.48,12,0,17.09,1.6,17.09,1.6l-2.38,13.18a34.31,34.31,0,0,0-7.68-1.07c-3.71,0-7,1.24-7,4.7V87.1H122L121,100H106.82v44.72H89V100H79.42Z"/><path class="cls-4" d="M79.61,87.29h9.53V78.65c0-3.81.1-9.69,3.07-13.33,3.13-3.86,7.42-6.48,14.8-6.48,12,0,17.09,1.6,17.09,1.6l-2.38,13.18A34.31,34.31,0,0,0,114,72.54c-3.71,0-7,1.24-7,4.7V87.29h15.2l-1.06,12.87H107v44.72H89.14V100.16H79.61Z"/><path class="cls-4" d="M79.8,87.48h9.53V78.83c0-3.81.1-9.69,3.07-13.33C95.53,61.65,99.82,59,107.2,59c12,0,17.09,1.6,17.09,1.6L121.91,73.8a34.31,34.31,0,0,0-7.68-1.07c-3.71,0-7,1.24-7,4.7V87.48h15.2l-1.06,12.87H107.2v44.72H89.33V100.35H79.8Z"/><path class="cls-4" d="M80,87.67h9.53V79c0-3.81.1-9.69,3.07-13.33,3.13-3.86,7.42-6.48,14.8-6.48,12,0,17.09,1.6,17.09,1.6L122.1,74a34.31,34.31,0,0,0-7.68-1.07c-3.71,0-7,1.24-7,4.7V87.67h15.2l-1.06,12.87H107.39v44.72H89.52V100.54H80Z"/><path class="cls-4" d="M80.18,87.86h9.53V79.21c0-3.81.1-9.69,3.07-13.33,3.13-3.86,7.42-6.48,14.8-6.48,12,0,17.09,1.6,17.09,1.6l-2.38,13.18a34.31,34.31,0,0,0-7.68-1.07c-3.71,0-7,1.24-7,4.7V87.86h15.2l-1.06,12.87H107.58v44.72H89.71V100.73H80.18Z"/><path class="cls-4" d="M80.37,88H89.9V79.4c0-3.81.1-9.69,3.07-13.33,3.13-3.86,7.42-6.48,14.8-6.48,12,0,17.09,1.6,17.09,1.6l-2.38,13.18a34.31,34.31,0,0,0-7.68-1.07c-3.71,0-7,1.24-7,4.7V88H123l-1.06,12.87H107.77v44.72H89.9V100.92H80.37Z"/><path class="cls-4" d="M80.55,88.24h9.53V79.59c0-3.81.1-9.69,3.07-13.33,3.13-3.86,7.42-6.48,14.8-6.48,12,0,17.09,1.6,17.09,1.6l-2.38,13.18A34.31,34.31,0,0,0,115,73.49c-3.71,0-7,1.24-7,4.7V88.24h15.2l-1.06,12.87H108v44.72H90.09V101.11H80.55Z"/><path class="cls-4" d="M80.74,88.43h9.53V79.78c0-3.81.1-9.69,3.07-13.33,3.13-3.86,7.42-6.48,14.8-6.48,12,0,17.09,1.6,17.09,1.6l-2.38,13.18a34.31,34.31,0,0,0-7.68-1.07c-3.71,0-7,1.24-7,4.7V88.43h15.2l-1.06,12.87H108.15V146H90.28V101.3H80.74Z"/><path class="cls-4" d="M80.93,88.62h9.53V80c0-3.81.1-9.69,3.07-13.33,3.13-3.86,7.42-6.48,14.8-6.48,12,0,17.09,1.6,17.09,1.6L123,74.94a34.31,34.31,0,0,0-7.68-1.07c-3.71,0-7,1.24-7,4.7V88.62h15.2l-1.06,12.87H108.34V146.2H90.47V101.49H80.93Z"/><path class="cls-4" d="M81.12,88.81h9.53V80.16c0-3.81.1-9.69,3.07-13.33,3.13-3.86,7.42-6.48,14.8-6.48,12,0,17.09,1.6,17.09,1.6l-2.38,13.18a34.31,34.31,0,0,0-7.68-1.07c-3.71,0-7,1.24-7,4.7V88.81h15.2l-1.06,12.87H108.53v44.72H90.66V101.68H81.12Z"/><path class="cls-4" d="M81.31,89h9.53V80.35c0-3.81.1-9.69,3.07-13.33,3.13-3.86,7.42-6.48,14.8-6.48,12,0,17.09,1.6,17.09,1.6l-2.38,13.18a34.31,34.31,0,0,0-7.68-1.07c-3.71,0-7,1.24-7,4.7V89h15.2l-1.06,12.87H108.72v44.72H90.85V101.87H81.31Z"/><path class="cls-4" d="M81.5,89.18H91V80.54c0-3.81.1-9.69,3.07-13.33,3.13-3.86,7.42-6.48,14.8-6.48,12,0,17.09,1.6,17.09,1.6l-2.38,13.18a34.31,34.31,0,0,0-7.68-1.07c-3.71,0-7,1.24-7,4.7V89.18h15.2L123,102.06H108.91v44.72H91V102.06H81.5Z"/><path class="cls-4" d="M81.69,89.37h9.53V80.73c0-3.81.1-9.69,3.07-13.33,3.13-3.86,7.42-6.48,14.8-6.48,12,0,17.09,1.6,17.09,1.6L123.8,75.7a34.31,34.31,0,0,0-7.68-1.07c-3.71,0-7,1.24-7,4.7V89.37h15.2l-1.06,12.87H109.1V147H91.23V102.25H81.69Z"/><path class="cls-4" d="M81.88,89.56h9.53V80.92c0-3.81.1-9.69,3.07-13.33,3.13-3.86,7.42-6.48,14.8-6.48,12,0,17.09,1.6,17.09,1.6L124,75.89a34.31,34.31,0,0,0-7.68-1.07c-3.71,0-7,1.24-7,4.7V89.56h15.2l-1.06,12.87H109.29v44.72H91.42V102.44H81.88Z"/><path class="cls-4" d="M82.07,89.75H91.6V81.11c0-3.81.1-9.69,3.07-13.33,3.13-3.86,7.42-6.48,14.8-6.48,12,0,17.09,1.6,17.09,1.6l-2.38,13.18A34.31,34.31,0,0,0,116.5,75c-3.71,0-7,1.24-7,4.7V89.75h15.2l-1.06,12.87H109.47v44.72H91.6V102.62H82.07Z"/><path class="cls-4" d="M82.26,89.94h9.53V81.3c0-3.81.1-9.69,3.07-13.33,3.13-3.86,7.42-6.48,14.8-6.48,12,0,17.09,1.6,17.09,1.6l-2.38,13.18a34.31,34.31,0,0,0-7.68-1.07c-3.71,0-7,1.24-7,4.7V89.94h15.2l-1.06,12.87H109.66v44.72H91.79V102.81H82.26Z"/><path class="cls-4" d="M82.45,90.13H92V81.49c0-3.81.1-9.69,3.07-13.33,3.13-3.86,7.42-6.48,14.8-6.48,12,0,17.09,1.6,17.09,1.6l-2.38,13.18a34.31,34.31,0,0,0-7.68-1.07c-3.71,0-7,1.24-7,4.7V90.13h15.2L124,103H109.85v44.72H92V103H82.45Z"/><path class="cls-4" d="M82.64,90.32h9.53V81.68c0-3.81.1-9.69,3.07-13.33,3.13-3.86,7.42-6.48,14.8-6.48,12,0,17.09,1.6,17.09,1.6l-2.38,13.18a34.31,34.31,0,0,0-7.68-1.07c-3.71,0-7,1.24-7,4.7V90.32h15.2l-1.06,12.87H110v44.72H92.17V103.19H82.64Z"/><path class="cls-4" d="M82.83,90.51h9.53V81.87c0-3.81.1-9.69,3.07-13.33,3.13-3.86,7.42-6.48,14.8-6.48,12,0,17.09,1.6,17.09,1.6l-2.38,13.18a34.31,34.31,0,0,0-7.68-1.07c-3.71,0-7,1.24-7,4.7V90.51h15.2l-1.06,12.87H110.23V148.1H92.36V103.38H82.83Z"/><path class="cls-4" d="M83,90.7h9.53V82.06c0-3.81.1-9.69,3.07-13.33,3.13-3.86,7.42-6.48,14.8-6.48,12,0,17.09,1.6,17.09,1.6L125.13,77A34.31,34.31,0,0,0,117.45,76c-3.71,0-7,1.24-7,4.7V90.7h15.2l-1.06,12.87H110.42v44.72H92.55V103.57H83Z"/><path class="cls-4" d="M83.21,90.89h9.53V82.25c0-3.81.1-9.69,3.07-13.33,3.13-3.86,7.42-6.48,14.8-6.48,12,0,17.09,1.6,17.09,1.6l-2.38,13.18a34.31,34.31,0,0,0-7.68-1.07c-3.71,0-7,1.24-7,4.7V90.89h15.2l-1.06,12.87H110.61v44.72H92.74V103.76H83.21Z"/><path class="cls-4" d="M83.4,91.08h9.53V82.44c0-3.81.1-9.69,3.07-13.33,3.13-3.86,7.42-6.48,14.8-6.48,12,0,17.09,1.6,17.09,1.6L125.51,77.4a34.31,34.31,0,0,0-7.68-1.07c-3.71,0-7,1.24-7,4.7V91.08H126L124.94,104H110.8v44.72H92.93V104H83.4Z"/><path class="cls-4" d="M83.59,91.27h9.53V82.63c0-3.81.1-9.69,3.07-13.33,3.13-3.86,7.42-6.48,14.8-6.48,12,0,17.09,1.6,17.09,1.6L125.7,77.59A34.31,34.31,0,0,0,118,76.52c-3.71,0-7,1.24-7,4.7V91.27h15.2l-1.06,12.87H111v44.72H93.12V104.14H83.59Z"/><path class="cls-4" d="M83.78,91.46h9.53V82.81c0-3.81.1-9.69,3.07-13.33,3.13-3.86,7.42-6.48,14.8-6.48,12,0,17.09,1.6,17.09,1.6l-2.38,13.18a34.31,34.31,0,0,0-7.68-1.07c-3.71,0-7,1.24-7,4.7V91.46h15.2l-1.06,12.87H111.18V149H93.31V104.33H83.78Z"/><path class="cls-4" d="M84,91.65H93.5V83c0-3.81.1-9.69,3.07-13.33,3.13-3.86,7.42-6.48,14.8-6.48,12,0,17.09,1.6,17.09,1.6L126.08,78a34.31,34.31,0,0,0-7.68-1.07c-3.71,0-7,1.24-7,4.7V91.65h15.2l-1.06,12.87H111.37v44.72H93.5V104.52H84Z"/><path class="cls-4" d="M84.16,91.84h9.53V83.19c0-3.81.1-9.69,3.07-13.33,3.13-3.86,7.42-6.48,14.8-6.48,12,0,17.09,1.6,17.09,1.6l-2.38,13.18a34.31,34.31,0,0,0-7.68-1.07c-3.71,0-7,1.24-7,4.7V91.84h15.2l-1.06,12.87H111.56v44.72H93.69V104.71H84.16Z"/><path class="cls-4" d="M84.35,92h9.53V83.38c0-3.81.1-9.69,3.07-13.33,3.13-3.86,7.42-6.48,14.8-6.48,12,0,17.09,1.6,17.09,1.6l-2.38,13.18a34.31,34.31,0,0,0-7.68-1.07c-3.71,0-7,1.24-7,4.7V92H127l-1.06,12.87H111.75v44.72H93.88V104.9H84.35Z"/><path class="cls-4" d="M84.54,92.22h9.53V83.57c0-3.81.1-9.69,3.07-13.33,3.13-3.86,7.42-6.48,14.8-6.48,12,0,17.09,1.6,17.09,1.6l-2.38,13.18A34.31,34.31,0,0,0,119,77.47c-3.71,0-7,1.24-7,4.7V92.22h15.2l-1.06,12.87H111.94V149.8H94.07V105.09H84.54Z"/><path class="cls-4" d="M84.72,92.41h9.53V83.76c0-3.81.1-9.69,3.07-13.33,3.13-3.86,7.42-6.48,14.8-6.48,12,0,17.09,1.6,17.09,1.6l-2.38,13.18a34.31,34.31,0,0,0-7.68-1.07c-3.71,0-7,1.24-7,4.7V92.41h15.2l-1.06,12.87H112.13V150H94.26V105.28H84.72Z"/><path class="cls-4" d="M84.91,92.6h9.53V84c0-3.81.1-9.69,3.07-13.33,3.13-3.86,7.42-6.48,14.8-6.48,12,0,17.09,1.6,17.09,1.6L127,78.92a34.31,34.31,0,0,0-7.68-1.07c-3.71,0-7,1.24-7,4.7V92.6h15.2l-1.06,12.87H112.32v44.72H94.45V105.47H84.91Z"/><path class="cls-4" d="M85.1,92.79h9.53V84.14c0-3.81.1-9.69,3.07-13.33,3.13-3.86,7.42-6.48,14.8-6.48,12,0,17.09,1.6,17.09,1.6l-2.38,13.18A34.31,34.31,0,0,0,119.54,78c-3.71,0-7,1.24-7,4.7V92.79h15.2l-1.06,12.87H112.51v44.72H94.64V105.66H85.1Z"/><path class="cls-4" d="M85.29,93h9.53V84.33c0-3.81.1-9.69,3.07-13.33,3.13-3.86,7.42-6.48,14.8-6.48,12,0,17.09,1.6,17.09,1.6L127.41,79.3a34.31,34.31,0,0,0-7.68-1.07c-3.71,0-7,1.24-7,4.7V93h15.2l-1.06,12.87H112.7v44.72H94.83V105.85H85.29Z"/><path class="cls-4" d="M85.48,93.16H95V84.52c0-3.81.1-9.69,3.07-13.33,3.13-3.86,7.42-6.48,14.8-6.48,12,0,17.09,1.6,17.09,1.6l-2.38,13.18a34.31,34.31,0,0,0-7.68-1.07c-3.71,0-7,1.24-7,4.7V93.16h15.2L127,106H112.89v44.72H95V106H85.48Z"/><path class="cls-4" d="M85.67,93.35h9.53V84.71c0-3.81.1-9.69,3.07-13.33,3.13-3.86,7.42-6.48,14.8-6.48,12,0,17.09,1.6,17.09,1.6l-2.38,13.18a34.31,34.31,0,0,0-7.68-1.07c-3.71,0-7,1.24-7,4.7V93.35h15.2l-1.06,12.87H113.08v44.72H95.21V106.23H85.67Z"/><path class="cls-4" d="M85.86,93.54H95.4V84.9c0-3.81.1-9.69,3.07-13.33,3.13-3.86,7.42-6.48,14.8-6.48,12,0,17.09,1.6,17.09,1.6L128,79.87a34.31,34.31,0,0,0-7.68-1.07c-3.71,0-7,1.24-7,4.7V93.54h15.2l-1.06,12.87H113.27v44.72H95.4V106.42H85.86Z"/><path class="cls-4" d="M86.05,93.73h9.53V85.09c0-3.81.1-9.69,3.07-13.33,3.13-3.86,7.42-6.48,14.8-6.48,12,0,17.09,1.6,17.09,1.6l-2.38,13.18A34.31,34.31,0,0,0,120.48,79c-3.71,0-7,1.24-7,4.7V93.73h15.2L127.6,106.6H113.45v44.72H95.58V106.6H86.05Z"/><path class="cls-4" d="M86.24,93.92h9.53V85.28c0-3.81.1-9.69,3.07-13.33,3.13-3.86,7.42-6.48,14.8-6.48,12,0,17.09,1.6,17.09,1.6l-2.38,13.18a34.31,34.31,0,0,0-7.68-1.07c-3.71,0-7,1.24-7,4.7V93.92h15.2l-1.06,12.87H113.64v44.72H95.77V106.79H86.24Z"/><path class="cls-4" d="M86.43,94.11H96V85.47c0-3.81.1-9.69,3.07-13.33,3.13-3.86,7.42-6.48,14.8-6.48,12,0,17.09,1.6,17.09,1.6l-2.38,13.18a34.31,34.31,0,0,0-7.68-1.07c-3.71,0-7,1.24-7,4.7V94.11H129L128,107H113.83V151.7H96V107H86.43Z"/><path class="cls-4" d="M86.62,94.3h9.53V85.66c0-3.81.1-9.69,3.07-13.33,3.13-3.86,7.42-6.48,14.8-6.48,12,0,17.09,1.6,17.09,1.6l-2.38,13.18a34.31,34.31,0,0,0-7.68-1.07c-3.71,0-7,1.24-7,4.7V94.3h15.2l-1.06,12.87H114v44.72H96.15V107.17H86.62Z"/><path class="cls-4" d="M86.81,94.49h9.53V85.85c0-3.81.1-9.69,3.07-13.33,3.13-3.86,7.42-6.48,14.8-6.48,12,0,17.09,1.6,17.09,1.6l-2.38,13.18a34.31,34.31,0,0,0-7.68-1.07c-3.71,0-7,1.24-7,4.7V94.49h15.2l-1.06,12.87H114.21v44.72H96.34V107.36H86.81Z"/><path class="cls-4" d="M87,94.68h9.53V86c0-3.81.1-9.69,3.07-13.33,3.13-3.86,7.42-6.48,14.8-6.48,12,0,17.09,1.6,17.09,1.6L129.11,81a34.31,34.31,0,0,0-7.68-1.07c-3.71,0-7,1.24-7,4.7V94.68h15.2l-1.06,12.87H114.4v44.72H96.53V107.55H87Z"/><path class="cls-4" d="M87.19,94.87h9.53V86.23c0-3.81.1-9.69,3.07-13.33,3.13-3.86,7.42-6.48,14.8-6.48,12,0,17.09,1.6,17.09,1.6L129.3,81.19a34.31,34.31,0,0,0-7.68-1.07c-3.71,0-7,1.24-7,4.7V94.87h15.2l-1.06,12.87H114.59v44.72H96.72V107.74H87.19Z"/><path class="cls-4" d="M87.38,95.06h9.53V86.42c0-3.81.1-9.69,3.07-13.33,3.13-3.86,7.42-6.48,14.8-6.48,12,0,17.09,1.6,17.09,1.6l-2.38,13.18a34.31,34.31,0,0,0-7.68-1.07c-3.71,0-7,1.24-7,4.7V95.06H130l-1.06,12.87H114.78v44.72H96.91V107.93H87.38Z"/><path class="cls-4" d="M87.57,95.25H97.1V86.61c0-3.81.1-9.69,3.07-13.33,3.13-3.86,7.42-6.48,14.8-6.48,12,0,17.09,1.6,17.09,1.6l-2.38,13.18A34.31,34.31,0,0,0,122,80.5c-3.71,0-7,1.24-7,4.7V95.25h15.2l-1.06,12.87H115v44.72H97.1V108.12H87.57Z"/><path class="cls-4" d="M87.76,95.44h9.53V86.79c0-3.81.1-9.69,3.07-13.33,3.13-3.86,7.42-6.48,14.8-6.48,12,0,17.09,1.6,17.09,1.6l-2.38,13.18a34.31,34.31,0,0,0-7.68-1.07c-3.71,0-7,1.24-7,4.7V95.44h15.2l-1.06,12.87H115.16V153H97.29V108.31H87.76Z"/><path class="cls-4" d="M87.95,95.63h9.53V87c0-3.81.1-9.69,3.07-13.33,3.13-3.86,7.42-6.48,14.8-6.48,12,0,17.09,1.6,17.09,1.6L130.06,82a34.31,34.31,0,0,0-7.68-1.07c-3.71,0-7,1.24-7,4.7V95.63h15.2l-1.06,12.87H115.35v44.72H97.48V108.5H87.95Z"/><path class="cls-4" d="M88.14,95.82h9.53V87.17c0-3.81.1-9.69,3.07-13.33,3.13-3.86,7.42-6.48,14.8-6.48,12,0,17.09,1.6,17.09,1.6l-2.38,13.18a34.31,34.31,0,0,0-7.68-1.07c-3.71,0-7,1.24-7,4.7V95.82h15.2l-1.06,12.87H115.54V153.4H97.67V108.69H88.14Z"/><path class="cls-4" d="M88.33,96h9.53V87.36c0-3.81.1-9.69,3.07-13.33,3.13-3.86,7.42-6.48,14.8-6.48,12,0,17.09,1.6,17.09,1.6l-2.38,13.18a34.31,34.31,0,0,0-7.68-1.07c-3.71,0-7,1.24-7,4.7V96h15.2l-1.06,12.87H115.73v44.72H97.86V108.88H88.33Z"/><path class="cls-4" d="M88.52,96.2H98V87.55c0-3.81.1-9.69,3.07-13.33,3.13-3.86,7.42-6.48,14.8-6.48,12,0,17.09,1.6,17.09,1.6l-2.38,13.18a34.31,34.31,0,0,0-7.68-1.07c-3.71,0-7,1.24-7,4.7V96.2h15.2l-1.06,12.87H115.92v44.72H98V109.07H88.52Z"/><path class="cls-4" d="M88.7,96.39h9.53V87.74c0-3.81.1-9.69,3.07-13.33,3.13-3.86,7.42-6.48,14.8-6.48,12,0,17.09,1.6,17.09,1.6l-2.38,13.18a34.31,34.31,0,0,0-7.68-1.07c-3.71,0-7,1.24-7,4.7V96.39h15.2l-1.06,12.87H116.11V154H98.24V109.26H88.7Z"/><path class="cls-4" d="M88.89,96.58h9.53V87.93c0-3.81.1-9.69,3.07-13.33,3.13-3.86,7.42-6.48,14.8-6.48,12,0,17.09,1.6,17.09,1.6L131,82.9a34.31,34.31,0,0,0-7.68-1.07c-3.71,0-7,1.24-7,4.7V96.58h15.2l-1.06,12.87H116.3v44.72H98.43V109.45H88.89Z"/><path class="cls-4" d="M89.08,96.77h9.53V88.12c0-3.81.1-9.69,3.07-13.33,3.13-3.86,7.42-6.48,14.8-6.48,12,0,17.09,1.6,17.09,1.6L131.2,83.09A34.31,34.31,0,0,0,123.52,82c-3.71,0-7,1.24-7,4.7V96.77h15.2l-1.06,12.87H116.49v44.72H98.62V109.64H89.08Z"/><path class="cls-4" d="M89.27,97h9.53V88.31c0-3.81.1-9.69,3.07-13.33,3.13-3.86,7.42-6.48,14.8-6.48,12,0,17.09,1.6,17.09,1.6l-2.38,13.18a34.31,34.31,0,0,0-7.68-1.07c-3.71,0-7,1.24-7,4.7V97h15.2l-1.06,12.87H116.68v44.72H98.81V109.83H89.27Z"/><path class="cls-4" d="M89.46,97.14H99V88.5c0-3.81.1-9.69,3.07-13.33,3.13-3.86,7.42-6.48,14.8-6.48,12,0,17.09,1.6,17.09,1.6l-2.38,13.18a34.31,34.31,0,0,0-7.68-1.07c-3.71,0-7,1.24-7,4.7V97.14h15.2L131,110H116.87v44.72H99V110H89.46Z"/><path class="cls-4" d="M89.65,97.33h9.53V88.69c0-3.81.1-9.69,3.07-13.33,3.13-3.86,7.42-6.48,14.8-6.48,12,0,17.09,1.6,17.09,1.6l-2.38,13.18a34.31,34.31,0,0,0-7.68-1.07c-3.71,0-7,1.24-7,4.7V97.33h15.2l-1.06,12.87H117.06v44.72H99.19V110.21H89.65Z"/><path class="cls-4" d="M89.84,97.52h9.53V88.88c0-3.81.1-9.69,3.07-13.33,3.13-3.86,7.42-6.48,14.8-6.48,12,0,17.09,1.6,17.09,1.6L132,83.85a34.31,34.31,0,0,0-7.68-1.07c-3.71,0-7,1.24-7,4.7V97.52h15.2l-1.06,12.87H117.25v44.72H99.38V110.4H89.84Z"/><path class="cls-4" d="M90,97.71h9.53V89.07c0-3.81.1-9.69,3.07-13.33,3.13-3.86,7.42-6.48,14.8-6.48,12,0,17.09,1.6,17.09,1.6L132.14,84A34.31,34.31,0,0,0,124.46,83c-3.71,0-7,1.24-7,4.7V97.71h15.2l-1.06,12.87H117.43V155.3H99.56V110.58H90Z"/><path class="cls-4" d="M90.22,97.9h9.53V89.26c0-3.81.1-9.69,3.07-13.33,3.13-3.86,7.42-6.48,14.8-6.48,12,0,17.09,1.6,17.09,1.6l-2.38,13.18a34.31,34.31,0,0,0-7.68-1.07c-3.71,0-7,1.24-7,4.7V97.9h15.2l-1.06,12.87H117.62v44.72H99.75V110.77H90.22Z"/><path class="cls-4" d="M90.41,98.09h9.53V89.45c0-3.81.1-9.69,3.07-13.33,3.13-3.86,7.42-6.48,14.8-6.48,12,0,17.09,1.6,17.09,1.6l-2.38,13.18a34.31,34.31,0,0,0-7.68-1.07c-3.71,0-7,1.24-7,4.7V98.09H133L132,111H117.81v44.72H99.94V111H90.41Z"/><path class="cls-4" d="M90.6,98.28h9.53V89.64c0-3.81.1-9.69,3.07-13.33,3.13-3.86,7.42-6.48,14.8-6.48,12,0,17.09,1.6,17.09,1.6L132.71,84.6A34.31,34.31,0,0,0,125,83.53c-3.71,0-7,1.24-7,4.7V98.28h15.2l-1.06,12.87H118v44.72H100.13V111.15H90.6Z"/><path class="cls-4" d="M90.79,98.47h9.53V89.83c0-3.81.1-9.69,3.07-13.33,3.13-3.86,7.42-6.48,14.8-6.48,12,0,17.09,1.6,17.09,1.6L132.9,84.79a34.31,34.31,0,0,0-7.68-1.07c-3.71,0-7,1.24-7,4.7V98.47h15.2l-1.06,12.87H118.19v44.72H100.32V111.34H90.79Z"/><path class="cls-4" d="M91,98.66h9.53V90c0-3.81.1-9.69,3.07-13.33,3.13-3.86,7.42-6.48,14.8-6.48,12,0,17.09,1.6,17.09,1.6L133.09,85a34.31,34.31,0,0,0-7.68-1.07c-3.71,0-7,1.24-7,4.7V98.66h15.2l-1.06,12.87H118.38v44.72H100.51V111.53H91Z"/><path class="cls-4" d="M91.17,98.85h9.53V90.21c0-3.81.1-9.69,3.07-13.33,3.13-3.86,7.42-6.48,14.8-6.48,12,0,17.09,1.6,17.09,1.6l-2.38,13.18a34.31,34.31,0,0,0-7.68-1.07c-3.71,0-7,1.24-7,4.7V98.85h15.2l-1.06,12.87H118.57v44.72H100.7V111.72H91.17Z"/><path class="cls-4" d="M91.36,99h9.53V90.4c0-3.81.1-9.69,3.07-13.33,3.13-3.86,7.42-6.48,14.8-6.48,12,0,17.09,1.6,17.09,1.6l-2.38,13.18a34.31,34.31,0,0,0-7.68-1.07c-3.71,0-7,1.24-7,4.7V99H134l-1.06,12.87H118.76v44.72H100.89V111.91H91.36Z"/><path class="cls-4" d="M91.55,99.23h9.53V90.59c0-3.81.1-9.69,3.07-13.33,3.13-3.86,7.42-6.48,14.8-6.48,12,0,17.09,1.6,17.09,1.6l-2.38,13.18A34.31,34.31,0,0,0,126,84.48c-3.71,0-7,1.24-7,4.7V99.23h15.2l-1.06,12.87H119v44.72H101.08V112.1H91.55Z"/><path class="cls-4" d="M91.74,99.42h9.53V90.77c0-3.81.1-9.69,3.07-13.33,3.13-3.86,7.42-6.48,14.8-6.48,12,0,17.09,1.6,17.09,1.6l-2.38,13.18a34.31,34.31,0,0,0-7.68-1.07c-3.71,0-7,1.24-7,4.7V99.42h15.2l-1.06,12.87H119.14V157H101.27V112.29H91.74Z"/><path class="cls-4" d="M91.93,99.61h9.53V91c0-3.81.1-9.69,3.07-13.33,3.13-3.86,7.42-6.48,14.8-6.48,12,0,17.09,1.6,17.09,1.6L134,85.93a34.31,34.31,0,0,0-7.68-1.07c-3.71,0-7,1.24-7,4.7V99.61h15.2l-1.06,12.87H119.33V157.2H101.46V112.48H91.93Z"/><path class="cls-4" d="M92.12,99.8h9.53V91.15c0-3.81.1-9.69,3.07-13.33,3.13-3.86,7.42-6.48,14.8-6.48,12,0,17.09,1.6,17.09,1.6l-2.38,13.18A34.31,34.31,0,0,0,126.55,85c-3.71,0-7,1.24-7,4.7V99.8h15.2l-1.06,12.87H119.52v44.72H101.65V112.67H92.12Z"/><path class="cls-4" d="M92.31,100h9.53V91.34c0-3.81.1-9.69,3.07-13.33,3.13-3.86,7.42-6.48,14.8-6.48,12,0,17.09,1.6,17.09,1.6l-2.38,13.18a34.31,34.31,0,0,0-7.68-1.07c-3.71,0-7,1.24-7,4.7V100h15.2l-1.06,12.87H119.71v44.72H101.84V112.86H92.31Z"/><path class="cls-4" d="M92.5,100.18H102V91.53c0-3.81.1-9.69,3.07-13.33,3.13-3.86,7.42-6.48,14.8-6.48,12,0,17.09,1.6,17.09,1.6L134.61,86.5a34.31,34.31,0,0,0-7.68-1.07c-3.71,0-7,1.24-7,4.7v10.05h15.2L134,113H119.9v44.72H102V113H92.5Z"/><path class="cls-4" d="M92.68,100.37h9.53V91.72c0-3.81.1-9.69,3.07-13.33,3.13-3.86,7.42-6.48,14.8-6.48,12,0,17.09,1.6,17.09,1.6L134.8,86.69a34.31,34.31,0,0,0-7.68-1.07c-3.71,0-7,1.24-7,4.7v10.05h15.2l-1.06,12.87H120.09V158H102.22V113.24H92.68Z"/><path class="cls-4" d="M92.87,100.56h9.53V91.91c0-3.81.1-9.69,3.07-13.33,3.13-3.86,7.42-6.48,14.8-6.48,12,0,17.09,1.6,17.09,1.6L135,86.88a34.31,34.31,0,0,0-7.68-1.07c-3.71,0-7,1.24-7,4.7v10.05h15.2l-1.06,12.87H120.28v44.72H102.41V113.43H92.87Z"/><path class="cls-4" d="M93.06,100.75h9.53V92.1c0-3.81.1-9.69,3.07-13.33,3.13-3.86,7.42-6.48,14.8-6.48,12,0,17.09,1.6,17.09,1.6l-2.38,13.18A34.31,34.31,0,0,0,127.5,86c-3.71,0-7,1.24-7,4.7v10.05h15.2l-1.06,12.87H120.47v44.72H102.6V113.62H93.06Z"/><path class="cls-4" d="M93.25,100.93h9.53V92.29c0-3.81.1-9.69,3.07-13.33,3.13-3.86,7.42-6.48,14.8-6.48,12,0,17.09,1.6,17.09,1.6l-2.38,13.18a34.31,34.31,0,0,0-7.68-1.07c-3.71,0-7,1.24-7,4.7v10.05h15.2l-1.06,12.87H120.66v44.72H102.79V113.81H93.25Z"/><path class="cls-4" d="M93.44,101.12H103V92.48c0-3.81.1-9.69,3.07-13.33,3.13-3.86,7.42-6.48,14.8-6.48,12,0,17.09,1.6,17.09,1.6l-2.38,13.18a34.31,34.31,0,0,0-7.68-1.07c-3.71,0-7,1.24-7,4.7v10.05h15.2L135,114H120.85v44.72H103V114H93.44Z"/><path class="cls-4" d="M93.63,101.31h9.53V92.67c0-3.81.1-9.69,3.07-13.33,3.13-3.86,7.42-6.48,14.8-6.48,12,0,17.09,1.6,17.09,1.6l-2.38,13.18a34.31,34.31,0,0,0-7.68-1.07c-3.71,0-7,1.24-7,4.7v10.05h15.2l-1.06,12.87H121V158.9H103.17V114.19H93.63Z"/><path class="cls-4" d="M93.82,101.5h9.53V92.86c0-3.81.1-9.69,3.07-13.33,3.13-3.86,7.42-6.48,14.8-6.48,12,0,17.09,1.6,17.09,1.6l-2.38,13.18a34.31,34.31,0,0,0-7.68-1.07c-3.71,0-7,1.24-7,4.7V101.5h15.2l-1.06,12.87H121.23v44.72H103.36V114.38H93.82Z"/><path class="cls-4" d="M94,101.69h9.53V93c0-3.81.1-9.69,3.07-13.33,3.13-3.86,7.42-6.48,14.8-6.48,12,0,17.09,1.6,17.09,1.6L136.12,88a34.31,34.31,0,0,0-7.68-1.07c-3.71,0-7,1.24-7,4.7v10.05h15.2l-1.06,12.87H121.41v44.72H103.54V114.56H94Z"/><path class="cls-4" d="M94.2,101.88h9.53V93.24c0-3.81.1-9.69,3.07-13.33,3.13-3.86,7.42-6.48,14.8-6.48,12,0,17.09,1.6,17.09,1.6l-2.38,13.18a34.31,34.31,0,0,0-7.68-1.07c-3.71,0-7,1.24-7,4.7v10.05h15.2l-1.06,12.87H121.6v44.72H103.73V114.75H94.2Z"/><path class="cls-4" d="M94.39,102.07h9.53V93.43c0-3.81.1-9.69,3.07-13.33,3.13-3.86,7.42-6.48,14.8-6.48,12,0,17.09,1.6,17.09,1.6L136.5,88.4a34.31,34.31,0,0,0-7.68-1.07c-3.71,0-7,1.24-7,4.7v10.05H137l-1.06,12.87H121.79v44.72H103.92V114.94H94.39Z"/><path class="cls-4" d="M94.58,102.26h9.53V93.62c0-3.81.1-9.69,3.07-13.33,3.13-3.86,7.42-6.48,14.8-6.48,12,0,17.09,1.6,17.09,1.6l-2.38,13.18A34.31,34.31,0,0,0,129,87.51c-3.71,0-7,1.24-7,4.7v10.05h15.2l-1.06,12.87H122v44.72H104.11V115.13H94.58Z"/><path class="cls-4" d="M94.77,102.45h9.53V93.81c0-3.81.1-9.69,3.07-13.33,3.13-3.86,7.42-6.48,14.8-6.48,12,0,17.09,1.6,17.09,1.6l-2.38,13.18a34.31,34.31,0,0,0-7.68-1.07c-3.71,0-7,1.24-7,4.7v10.05h15.2l-1.06,12.87H122.17V160H104.3V115.32H94.77Z"/><path class="cls-4" d="M95,102.64h9.53V94c0-3.81.1-9.69,3.07-13.33,3.13-3.86,7.42-6.48,14.8-6.48,12,0,17.09,1.6,17.09,1.6L137.07,89a34.31,34.31,0,0,0-7.68-1.07c-3.71,0-7,1.24-7,4.7v10.05h15.2l-1.06,12.87H122.36v44.72H104.49V115.51H95Z"/><path class="cls-4" d="M95.15,102.83h9.53V94.19c0-3.81.1-9.69,3.07-13.33,3.13-3.86,7.42-6.48,14.8-6.48,12,0,17.09,1.6,17.09,1.6l-2.38,13.18a34.31,34.31,0,0,0-7.68-1.07c-3.71,0-7,1.24-7,4.7v10.05h15.2l-1.06,12.87H122.55v44.72H104.68V115.7H95.15Z"/><path class="cls-4" d="M95.34,103h9.53V94.38c0-3.81.1-9.69,3.07-13.33,3.13-3.86,7.42-6.48,14.8-6.48,12,0,17.09,1.6,17.09,1.6l-2.38,13.18a34.31,34.31,0,0,0-7.68-1.07c-3.71,0-7,1.24-7,4.7V103h15.2l-1.06,12.87H122.74v44.72H104.87V115.89H95.34Z"/><path class="cls-4" d="M95.53,103.21h9.53V94.57c0-3.81.1-9.69,3.07-13.33,3.13-3.86,7.42-6.48,14.8-6.48,12,0,17.09,1.6,17.09,1.6l-2.38,13.18A34.31,34.31,0,0,0,130,88.46c-3.71,0-7,1.24-7,4.7v10.05h15.2l-1.06,12.87H122.93V160.8H105.06V116.08H95.53Z"/><path class="cls-4" d="M95.72,103.4h9.53V94.75c0-3.81.1-9.69,3.07-13.33,3.13-3.86,7.42-6.48,14.8-6.48,12,0,17.09,1.6,17.09,1.6l-2.38,13.18a34.31,34.31,0,0,0-7.68-1.07c-3.71,0-7,1.24-7,4.7V103.4h15.2l-1.06,12.87H123.12V161H105.25V116.27H95.72Z"/><path class="cls-4" d="M95.91,103.59h9.53V94.94c0-3.81.1-9.69,3.07-13.33,3.13-3.86,7.42-6.48,14.8-6.48,12,0,17.09,1.6,17.09,1.6L138,89.91a34.31,34.31,0,0,0-7.68-1.07c-3.71,0-7,1.24-7,4.7v10.05h15.2l-1.06,12.87H123.31v44.72H105.44V116.46H95.91Z"/><path class="cls-4" d="M96.1,103.78h9.53V95.13c0-3.81.1-9.69,3.07-13.33,3.13-3.86,7.42-6.48,14.8-6.48,12,0,17.09,1.6,17.09,1.6L138.21,90.1A34.31,34.31,0,0,0,130.53,89c-3.71,0-7,1.24-7,4.7v10.05h15.2l-1.06,12.87H123.5v44.72H105.63V116.65H96.1Z"/><path class="cls-4" d="M96.29,104h9.53V95.32c0-3.81.1-9.69,3.07-13.33,3.13-3.86,7.42-6.48,14.8-6.48,12,0,17.09,1.6,17.09,1.6L138.4,90.29a34.31,34.31,0,0,0-7.68-1.07c-3.71,0-7,1.24-7,4.7V104h15.2l-1.06,12.87H123.69v44.72H105.82V116.84H96.29Z"/><path class="cls-4" d="M96.48,104.16H106V95.51c0-3.81.1-9.69,3.07-13.33,3.13-3.86,7.42-6.48,14.8-6.48,12,0,17.09,1.6,17.09,1.6l-2.38,13.18a34.31,34.31,0,0,0-7.68-1.07c-3.71,0-7,1.24-7,4.7v10.05h15.2L138,117H123.88v44.72H106V117H96.48Z"/><path class="cls-4" d="M96.66,104.35h9.53V95.7c0-3.81.1-9.69,3.07-13.33,3.13-3.86,7.42-6.48,14.8-6.48,12,0,17.09,1.6,17.09,1.6l-2.38,13.18a34.31,34.31,0,0,0-7.68-1.07c-3.71,0-7,1.24-7,4.7v10.05h15.2l-1.06,12.87H124.07v44.72H106.2V117.22H96.66Z"/><path class="cls-4" d="M96.85,104.54h9.53V95.89c0-3.81.1-9.69,3.07-13.33,3.13-3.86,7.42-6.48,14.8-6.48,12,0,17.09,1.6,17.09,1.6L139,90.86a34.31,34.31,0,0,0-7.68-1.07c-3.71,0-7,1.24-7,4.7v10.05h15.2l-1.06,12.87H124.26v44.72H106.39V117.41H96.85Z"/><path class="cls-4" d="M97,104.73h9.53V96.08c0-3.81.1-9.69,3.07-13.33,3.13-3.86,7.42-6.48,14.8-6.48,12,0,17.09,1.6,17.09,1.6L139.16,91A34.31,34.31,0,0,0,131.48,90c-3.71,0-7,1.24-7,4.7v10.05h15.2l-1.06,12.87H124.45v44.72H106.58V117.6H97Z"/><path class="cls-4" d="M97.23,104.92h9.53V96.27c0-3.81.1-9.69,3.07-13.33,3.13-3.86,7.42-6.48,14.8-6.48,12,0,17.09,1.6,17.09,1.6l-2.38,13.18a34.31,34.31,0,0,0-7.68-1.07c-3.71,0-7,1.24-7,4.7v10.05h15.2l-1.06,12.87H124.64V162.5H106.77V117.79H97.23Z"/><path class="cls-4" d="M97.42,105.1H107V96.46c0-3.81.1-9.69,3.07-13.33,3.13-3.86,7.42-6.48,14.8-6.48,12,0,17.09,1.6,17.09,1.6l-2.38,13.18a34.31,34.31,0,0,0-7.68-1.07c-3.71,0-7,1.24-7,4.7V105.1H140L139,118H124.83v44.72H107V118H97.42Z"/><path class="cls-4" d="M97.61,105.29h9.53V96.65c0-3.81.1-9.69,3.07-13.33,3.13-3.86,7.42-6.48,14.8-6.48,12,0,17.09,1.6,17.09,1.6l-2.38,13.18A34.31,34.31,0,0,0,132,90.54c-3.71,0-7,1.24-7,4.7v10.05h15.2l-1.06,12.87H125v44.72H107.15V118.17H97.61Z"/><path class="cls-4" d="M97.8,105.48h9.53V96.84c0-3.81.1-9.69,3.07-13.33,3.13-3.86,7.42-6.48,14.8-6.48,12,0,17.09,1.6,17.09,1.6l-2.38,13.18a34.31,34.31,0,0,0-7.68-1.07c-3.71,0-7,1.24-7,4.7v10.05h15.2l-1.06,12.87H125.21v44.72H107.34V118.36H97.8Z"/><path class="cls-4" d="M98,105.67h9.53V97c0-3.81.1-9.69,3.07-13.33,3.13-3.86,7.42-6.48,14.8-6.48,12,0,17.09,1.6,17.09,1.6L140.1,92a34.31,34.31,0,0,0-7.68-1.07c-3.71,0-7,1.24-7,4.7v10.05h15.2l-1.06,12.87H125.39v44.72H107.52V118.54H98Z"/><path class="cls-4" d="M98.18,105.86h9.53V97.22c0-3.81.1-9.69,3.07-13.33,3.13-3.86,7.42-6.48,14.8-6.48,12,0,17.09,1.6,17.09,1.6l-2.38,13.18a34.31,34.31,0,0,0-7.68-1.07c-3.71,0-7,1.24-7,4.7v10.05h15.2l-1.06,12.87H125.58v44.72H107.71V118.73H98.18Z"/><path class="cls-4" d="M98.37,106.05h9.53V97.41c0-3.81.1-9.69,3.07-13.33,3.13-3.86,7.42-6.48,14.8-6.48,12,0,17.09,1.6,17.09,1.6l-2.38,13.18a34.31,34.31,0,0,0-7.68-1.07c-3.71,0-7,1.24-7,4.7v10.05H141l-1.06,12.87H125.77v44.72H107.9V118.92H98.37Z"/><path class="cls-4" d="M98.56,106.24h9.53V97.6c0-3.81.1-9.69,3.07-13.33,3.13-3.86,7.42-6.48,14.8-6.48,12,0,17.09,1.6,17.09,1.6l-2.38,13.18A34.31,34.31,0,0,0,133,91.49c-3.71,0-7,1.24-7,4.7v10.05h15.2l-1.06,12.87H126v44.72H108.09V119.11H98.56Z"/><path class="cls-4" d="M98.75,106.43h9.53V97.79c0-3.81.1-9.69,3.07-13.33,3.13-3.86,7.42-6.48,14.8-6.48,12,0,17.09,1.6,17.09,1.6l-2.38,13.18a34.31,34.31,0,0,0-7.68-1.07c-3.71,0-7,1.24-7,4.7v10.05h15.2L140.3,119.3H126.15V164H108.28V119.3H98.75Z"/><path class="cls-4" d="M98.94,106.62h9.53V98c0-3.81.1-9.69,3.07-13.33,3.13-3.86,7.42-6.48,14.8-6.48,12,0,17.09,1.6,17.09,1.6l-2.38,13.18a34.31,34.31,0,0,0-7.68-1.07c-3.71,0-7,1.24-7,4.7v10.05h15.2l-1.06,12.87H126.34v44.72H108.47V119.49H98.94Z"/><path class="cls-4" d="M99.13,106.81h9.53V98.17c0-3.81.1-9.69,3.07-13.33,3.13-3.86,7.42-6.48,14.8-6.48,12,0,17.09,1.6,17.09,1.6l-2.38,13.18a34.31,34.31,0,0,0-7.68-1.07c-3.71,0-7,1.24-7,4.7v10.05h15.2l-1.06,12.87H126.53V164.4H108.66V119.68H99.13Z"/><path class="cls-4" d="M99.32,107h9.53V98.36c0-3.81.1-9.69,3.07-13.33,3.13-3.86,7.42-6.48,14.8-6.48,12,0,17.09,1.6,17.09,1.6l-2.38,13.18a34.31,34.31,0,0,0-7.68-1.07c-3.71,0-7,1.24-7,4.7V107h15.2l-1.06,12.87H126.72v44.72H108.85V119.87H99.32Z"/><path class="cls-4" d="M99.51,107.19H109V98.55c0-3.81.1-9.69,3.07-13.33,3.13-3.86,7.42-6.48,14.8-6.48,12,0,17.09,1.6,17.09,1.6l-2.38,13.18a34.31,34.31,0,0,0-7.68-1.07c-3.71,0-7,1.24-7,4.7v10.05h15.2l-1.06,12.87H126.91v44.72H109V120.06H99.51Z"/><path class="cls-4" d="M99.7,107.38h9.53V98.74c0-3.81.1-9.69,3.07-13.33,3.13-3.86,7.42-6.48,14.8-6.48,12,0,17.09,1.6,17.09,1.6L141.81,93.7a34.31,34.31,0,0,0-7.68-1.07c-3.71,0-7,1.24-7,4.7v10.05h15.2l-1.06,12.87H127.1V165H109.23V120.25H99.7Z"/><path class="cls-4" d="M99.89,107.57h9.53V98.92c0-3.81.1-9.69,3.07-13.33,3.13-3.86,7.42-6.48,14.8-6.48,12,0,17.09,1.6,17.09,1.6L142,93.89a34.31,34.31,0,0,0-7.68-1.07c-3.71,0-7,1.24-7,4.7v10.05h15.2l-1.06,12.87H127.29v44.72H109.42V120.44H99.89Z"/><path class="cls-4" d="M100.08,107.76h9.53V99.11c0-3.81.1-9.69,3.07-13.33,3.13-3.86,7.42-6.48,14.8-6.48,12,0,17.09,1.6,17.09,1.6l-2.38,13.18A34.31,34.31,0,0,0,134.51,93c-3.71,0-7,1.24-7,4.7v10.05h15.2l-1.06,12.87H127.48v44.72H109.61V120.63h-9.53Z"/><path class="cls-4" d="M100.27,107.95h9.53V99.3c0-3.81.1-9.69,3.07-13.33,3.13-3.86,7.42-6.48,14.8-6.48,12,0,17.09,1.6,17.09,1.6l-2.38,13.18a34.31,34.31,0,0,0-7.68-1.07c-3.71,0-7,1.24-7,4.7v10.05h15.2l-1.06,12.87H127.67v44.72H109.8V120.82h-9.53Z"/><path class="cls-4" d="M100.46,108.14H110V99.49c0-3.81.1-9.69,3.07-13.33,3.13-3.86,7.42-6.48,14.8-6.48,12,0,17.09,1.6,17.09,1.6l-2.38,13.18a34.31,34.31,0,0,0-7.68-1.07c-3.71,0-7,1.24-7,4.7v10.05h15.2L142,121H127.86v44.72H110V121h-9.53Z"/><path class="cls-4" d="M100.64,108.33h9.53V99.68c0-3.81.1-9.69,3.07-13.33,3.13-3.86,7.42-6.48,14.8-6.48,12,0,17.09,1.6,17.09,1.6l-2.38,13.18a34.31,34.31,0,0,0-7.68-1.07c-3.71,0-7,1.24-7,4.7v10.05h15.2l-1.06,12.87H128v44.72H110.18V121.2h-9.53Z"/><path class="cls-4" d="M100.83,108.52h9.53V99.87c0-3.81.1-9.69,3.07-13.33,3.13-3.86,7.42-6.48,14.8-6.48,12,0,17.09,1.6,17.09,1.6l-2.38,13.18a34.31,34.31,0,0,0-7.68-1.07c-3.71,0-7,1.24-7,4.7v10.05h15.2l-1.06,12.87H128.24V166.1H110.37V121.39h-9.53Z"/><path class="cls-4" d="M101,108.71h9.53v-8.64c0-3.81.1-9.69,3.07-13.33,3.13-3.86,7.42-6.48,14.8-6.48,12,0,17.09,1.6,17.09,1.6L143.14,95A34.31,34.31,0,0,0,135.46,94c-3.71,0-7,1.24-7,4.7v10.05h15.2l-1.06,12.87H128.43v44.72H110.56V121.58H101Z"/><path class="cls-4" d="M101.21,108.9h9.53v-8.64c0-3.81.1-9.69,3.07-13.33,3.13-3.86,7.42-6.48,14.8-6.48,12,0,17.09,1.6,17.09,1.6l-2.38,13.18a34.31,34.31,0,0,0-7.68-1.07c-3.71,0-7,1.24-7,4.7V108.9h15.2l-1.06,12.87H128.62v44.72H110.75V121.77h-9.53Z"/><path class="cls-4" d="M101.4,109.08h9.53v-8.64c0-3.81.1-9.69,3.07-13.33,3.13-3.86,7.42-6.48,14.8-6.48,12,0,17.09,1.6,17.09,1.6l-2.38,13.18a34.31,34.31,0,0,0-7.68-1.07c-3.71,0-7,1.24-7,4.7v10.05H144L142.95,122H128.81v44.72H110.94V122H101.4Z"/><path class="cls-4" d="M101.59,109.27h9.53v-8.64c0-3.81.1-9.69,3.07-13.33,3.13-3.86,7.42-6.48,14.8-6.48,12,0,17.09,1.6,17.09,1.6L143.7,95.6A34.31,34.31,0,0,0,136,94.52c-3.71,0-7,1.24-7,4.7v10.05h15.2l-1.06,12.87H129v44.72H111.13V122.15h-9.53Z"/><path class="cls-4" d="M101.78,109.46h9.53v-8.64c0-3.81.1-9.69,3.07-13.33,3.13-3.86,7.42-6.48,14.8-6.48,12,0,17.09,1.6,17.09,1.6l-2.38,13.18a34.31,34.31,0,0,0-7.68-1.07c-3.71,0-7,1.24-7,4.7v10.05h15.2l-1.06,12.87H129.19v44.72H111.32V122.34h-9.53Z"/><path class="cls-4" d="M102,109.65h9.53V101c0-3.81.1-9.69,3.07-13.33,3.13-3.86,7.42-6.48,14.8-6.48,12,0,17.09,1.6,17.09,1.6L144.08,96a34.31,34.31,0,0,0-7.68-1.07c-3.71,0-7,1.24-7,4.7v10.05h15.2l-1.06,12.87H129.37v44.72H111.5V122.52H102Z"/><path class="cls-4" d="M102.16,109.84h9.53V101.2c0-3.81.1-9.69,3.07-13.33,3.13-3.86,7.42-6.48,14.8-6.48,12,0,17.09,1.6,17.09,1.6l-2.38,13.18a34.31,34.31,0,0,0-7.68-1.07c-3.71,0-7,1.24-7,4.7v10.05h15.2l-1.06,12.87H129.56v44.72H111.69V122.71h-9.53Z"/><path class="cls-4" d="M102.35,110h9.53v-8.64c0-3.81.1-9.69,3.07-13.33,3.13-3.86,7.42-6.48,14.8-6.48,12,0,17.09,1.6,17.09,1.6l-2.38,13.18a34.31,34.31,0,0,0-7.68-1.07c-3.71,0-7,1.24-7,4.7V110H145L143.9,122.9H129.75v44.72H111.88V122.9h-9.53Z"/><path class="cls-4" d="M102.54,110.22h9.53v-8.64c0-3.81.1-9.69,3.07-13.33,3.13-3.86,7.42-6.48,14.8-6.48,12,0,17.09,1.6,17.09,1.6l-2.38,13.18A34.31,34.31,0,0,0,137,95.47c-3.71,0-7,1.24-7,4.7v10.05h15.2l-1.06,12.87H129.94v44.72H112.07V123.09h-9.53Z"/><path class="cls-4" d="M102.73,110.41h9.53v-8.64c0-3.81.1-9.69,3.07-13.33,3.13-3.86,7.42-6.48,14.8-6.48,12,0,17.09,1.6,17.09,1.6l-2.38,13.18a34.31,34.31,0,0,0-7.68-1.07c-3.71,0-7,1.24-7,4.7v10.05h15.2l-1.06,12.87H130.13V168H112.26V123.28h-9.53Z"/><path class="cls-4" d="M102.92,110.6h9.53V102c0-3.81.1-9.69,3.07-13.33,3.13-3.86,7.42-6.48,14.8-6.48,12,0,17.09,1.6,17.09,1.6L145,96.92a34.31,34.31,0,0,0-7.68-1.07c-3.71,0-7,1.24-7,4.7V110.6h15.2l-1.06,12.87H130.32v44.72H112.45V123.47h-9.53Z"/><path class="cls-4" d="M103.11,110.79h9.53v-8.64c0-3.81.1-9.69,3.07-13.33,3.13-3.86,7.42-6.48,14.8-6.48,12,0,17.09,1.6,17.09,1.6l-2.38,13.18A34.31,34.31,0,0,0,137.54,96c-3.71,0-7,1.24-7,4.7v10.05h15.2l-1.06,12.87H130.51v44.72H112.64V123.66h-9.53Z"/><path class="cls-4" d="M103.3,111h9.53v-8.64c0-3.81.1-9.69,3.07-13.33,3.13-3.86,7.42-6.48,14.8-6.48,12,0,17.09,1.6,17.09,1.6L145.41,97.3a34.31,34.31,0,0,0-7.68-1.07c-3.71,0-7,1.24-7,4.7V111h15.2l-1.06,12.87H130.7v44.72H112.83V123.85H103.3Z"/><path class="cls-4" d="M103.49,111.17H113v-8.64c0-3.81.1-9.69,3.07-13.33,3.13-3.86,7.42-6.48,14.8-6.48,12,0,17.09,1.6,17.09,1.6L145.6,97.49a34.31,34.31,0,0,0-7.68-1.07c-3.71,0-7,1.24-7,4.7v10.05h15.2L145,124H130.89v44.72H113V124h-9.53Z"/><path class="cls-4" d="M103.68,111.36h9.53v-8.64c0-3.81.1-9.69,3.07-13.33,3.13-3.86,7.42-6.48,14.8-6.48,12,0,17.09,1.6,17.09,1.6l-2.38,13.18a34.31,34.31,0,0,0-7.68-1.07c-3.71,0-7,1.24-7,4.7v10.05h15.2l-1.06,12.87H131.08v44.72H113.21V124.23h-9.53Z"/><path class="cls-4" d="M103.87,111.55h9.53V102.9c0-3.81.1-9.69,3.07-13.33,3.13-3.86,7.42-6.48,14.8-6.48,12,0,17.09,1.6,17.09,1.6L146,97.87a34.31,34.31,0,0,0-7.68-1.07c-3.71,0-7,1.24-7,4.7v10.05h15.2l-1.06,12.87H131.27v44.72H113.4V124.42h-9.53Z"/><path class="cls-4" d="M104.06,111.74h9.53v-8.64c0-3.81.1-9.69,3.07-13.33,3.13-3.86,7.42-6.48,14.8-6.48,12,0,17.09,1.6,17.09,1.6l-2.38,13.18A34.31,34.31,0,0,0,138.49,97c-3.71,0-7,1.24-7,4.7v10.05h15.2l-1.06,12.87H131.46v44.72H113.59V124.61h-9.53Z"/><path class="cls-4" d="M104.25,111.93h9.53v-8.64c0-3.81.1-9.69,3.07-13.33,3.13-3.86,7.42-6.48,14.8-6.48,12,0,17.09,1.6,17.09,1.6l-2.38,13.18a34.31,34.31,0,0,0-7.68-1.07c-3.71,0-7,1.24-7,4.7v10.05h15.2l-1.06,12.87H131.65v44.72H113.78V124.8h-9.53Z"/><path class="cls-4" d="M104.44,112.12H114v-8.64c0-3.81.1-9.69,3.07-13.33,3.13-3.86,7.42-6.48,14.8-6.48,12,0,17.09,1.6,17.09,1.6l-2.38,13.18a34.31,34.31,0,0,0-7.68-1.07c-3.71,0-7,1.24-7,4.7v10.05H147L146,125H131.84V169.7H114V125h-9.53Z"/><path class="cls-4" d="M104.62,112.31h9.53v-8.64c0-3.81.1-9.69,3.07-13.33,3.13-3.86,7.42-6.48,14.8-6.48,12,0,17.09,1.6,17.09,1.6l-2.38,13.18a34.31,34.31,0,0,0-7.68-1.07c-3.71,0-7,1.24-7,4.7v10.05h15.2l-1.06,12.87H132v44.72H114.16V125.18h-9.53Z"/><path class="cls-4" d="M104.81,112.5h9.53v-8.64c0-3.81.1-9.69,3.07-13.33,3.13-3.86,7.42-6.48,14.8-6.48,12,0,17.09,1.6,17.09,1.6l-2.38,13.18a34.31,34.31,0,0,0-7.68-1.07c-3.71,0-7,1.24-7,4.7V112.5h15.2l-1.06,12.87H132.22v44.72H114.35V125.37h-9.53Z"/><path class="cls-4" d="M105,112.69h9.53V104c0-3.81.1-9.69,3.07-13.33,3.13-3.86,7.42-6.48,14.8-6.48,12,0,17.09,1.6,17.09,1.6L147.12,99a34.31,34.31,0,0,0-7.68-1.07c-3.71,0-7,1.24-7,4.7v10.05h15.2l-1.06,12.87H132.41v44.72H114.54V125.56H105Z"/><path class="cls-4" d="M105.19,112.88h9.53v-8.64c0-3.81.1-9.69,3.07-13.33,3.13-3.86,7.42-6.48,14.8-6.48,12,0,17.09,1.6,17.09,1.6L147.31,99.2a34.31,34.31,0,0,0-7.68-1.07c-3.71,0-7,1.24-7,4.7v10.05h15.2l-1.06,12.87H132.6v44.72H114.73V125.75h-9.53Z"/><path class="cls-4" d="M105.38,113.06h9.53v-8.64c0-3.81.1-9.69,3.07-13.33,3.13-3.86,7.42-6.48,14.8-6.48,12,0,17.09,1.6,17.09,1.6L147.5,99.39a34.31,34.31,0,0,0-7.68-1.07c-3.71,0-7,1.24-7,4.7v10.05H148l-1.06,12.87H132.79v44.72H114.92V125.94h-9.53Z"/><path class="cls-4" d="M105.57,113.25h9.53v-8.64c0-3.81.1-9.69,3.07-13.33,3.13-3.86,7.42-6.48,14.8-6.48,12,0,17.09,1.6,17.09,1.6l-2.38,13.18A34.31,34.31,0,0,0,140,98.51c-3.71,0-7,1.24-7,4.7v10.05h15.2l-1.06,12.87H133v44.72H115.11V126.13h-9.53Z"/><path class="cls-4" d="M105.76,113.44h9.53V104.8c0-3.81.1-9.69,3.07-13.33,3.13-3.86,7.42-6.48,14.8-6.48,12,0,17.09,1.6,17.09,1.6l-2.38,13.18a34.31,34.31,0,0,0-7.68-1.07c-3.71,0-7,1.24-7,4.7v10.05h15.2l-1.06,12.87H133.17V171H115.3V126.32h-9.53Z"/><path class="cls-4" d="M106,113.63h9.53V105c0-3.81.1-9.69,3.07-13.33,3.13-3.86,7.42-6.48,14.8-6.48,12,0,17.09,1.6,17.09,1.6L148.06,100a34.31,34.31,0,0,0-7.68-1.07c-3.71,0-7,1.24-7,4.7v10.05h15.2L147.5,126.5H133.36v44.72H115.48V126.5H106Z"/><path class="cls-4" d="M106.14,113.82h9.53v-8.64c0-3.81.1-9.69,3.07-13.33,3.13-3.86,7.42-6.48,14.8-6.48,12,0,17.09,1.6,17.09,1.6l-2.38,13.18a34.31,34.31,0,0,0-7.68-1.07c-3.71,0-7,1.24-7,4.7v10.05h15.2l-1.06,12.87H133.54v44.72H115.67V126.69h-9.53Z"/><path class="cls-4" d="M106.33,114h9.53v-8.64c0-3.81.1-9.69,3.07-13.33,3.13-3.86,7.42-6.48,14.8-6.48,12,0,17.09,1.6,17.09,1.6l-2.38,13.18a34.31,34.31,0,0,0-7.68-1.07c-3.71,0-7,1.24-7,4.7V114h15.2l-1.06,12.87H133.73V171.6H115.86V126.88h-9.53Z"/><path class="cls-4" d="M106.52,114.2h9.53v-8.64c0-3.81.1-9.69,3.07-13.33,3.13-3.86,7.42-6.48,14.8-6.48,12,0,17.09,1.6,17.09,1.6l-2.38,13.18A34.31,34.31,0,0,0,141,99.45c-3.71,0-7,1.24-7,4.7V114.2h15.2l-1.06,12.87H133.92v44.72H116.05V127.07h-9.53Z"/><path class="cls-4" d="M106.71,114.39h9.53v-8.64c0-3.81.1-9.69,3.07-13.33,3.13-3.86,7.42-6.48,14.8-6.48,12,0,17.09,1.6,17.09,1.6l-2.38,13.18a34.31,34.31,0,0,0-7.68-1.07c-3.71,0-7,1.24-7,4.7v10.05h15.2l-1.06,12.87H134.11V172H116.24V127.26h-9.53Z"/><path class="cls-4" d="M106.9,114.58h9.53v-8.64c0-3.81.1-9.69,3.07-13.33,3.13-3.86,7.42-6.48,14.8-6.48,12,0,17.09,1.6,17.09,1.6L149,100.9a34.31,34.31,0,0,0-7.68-1.07c-3.71,0-7,1.24-7,4.7v10.05h15.2l-1.06,12.87H134.3v44.72H116.43V127.45H106.9Z"/><path class="cls-4" d="M107.09,114.77h9.53v-8.64c0-3.81.1-9.69,3.07-13.33,3.13-3.86,7.42-6.48,14.8-6.48,12,0,17.09,1.6,17.09,1.6l-2.38,13.18a34.31,34.31,0,0,0-7.68-1.07c-3.71,0-7,1.24-7,4.7v10.05h15.2l-1.06,12.87H134.49v44.72H116.62V127.64h-9.53Z"/><path class="cls-4" d="M107.28,115h9.53v-8.64c0-3.81.1-9.69,3.07-13.33,3.13-3.86,7.42-6.48,14.8-6.48,12,0,17.09,1.6,17.09,1.6l-2.38,13.18a34.31,34.31,0,0,0-7.68-1.07c-3.71,0-7,1.24-7,4.7V115h15.2l-1.06,12.87H134.68v44.72H116.81V127.83h-9.53Z"/><path class="cls-4" d="M107.47,115.15H117v-8.64c0-3.81.1-9.69,3.07-13.33,3.13-3.86,7.42-6.48,14.8-6.48,12,0,17.09,1.6,17.09,1.6l-2.38,13.18a34.31,34.31,0,0,0-7.68-1.07c-3.71,0-7,1.24-7,4.7v10.05h15.2L149,128H134.87v44.72H117V128h-9.53Z"/><path class="cls-4" d="M107.66,115.34h9.53V106.7c0-3.81.1-9.69,3.07-13.33,3.13-3.86,7.42-6.48,14.8-6.48,12,0,17.09,1.6,17.09,1.6l-2.38,13.18a34.31,34.31,0,0,0-7.68-1.07c-3.71,0-7,1.24-7,4.7v10.05h15.2l-1.06,12.87H135.06v44.72H117.19V128.21h-9.53Z"/><path class="cls-4" d="M107.85,115.53h9.53v-8.64c0-3.81.1-9.69,3.07-13.33,3.13-3.86,7.42-6.48,14.8-6.48,12,0,17.09,1.6,17.09,1.6L150,101.85a34.31,34.31,0,0,0-7.68-1.07c-3.71,0-7,1.24-7,4.7v10.05h15.2l-1.06,12.87H135.25v44.72H117.38V128.4h-9.53Z"/><path class="cls-4" d="M108,115.72h9.53v-8.64c0-3.81.1-9.69,3.07-13.33,3.13-3.86,7.42-6.48,14.8-6.48,12,0,17.09,1.6,17.09,1.6L150.15,102a34.31,34.31,0,0,0-7.68-1.07c-3.71,0-7,1.24-7,4.7v10.05h15.2l-1.06,12.87H135.44v44.72H117.57V128.59H108Z"/><path class="cls-4" d="M108.23,115.91h9.53v-8.64c0-3.81.1-9.69,3.07-13.33,3.13-3.86,7.42-6.48,14.8-6.48,12,0,17.09,1.6,17.09,1.6l-2.38,13.18a34.31,34.31,0,0,0-7.68-1.07c-3.71,0-7,1.24-7,4.7v10.05h15.2l-1.06,12.87H135.63v44.72H117.76V128.78h-9.53Z"/><path class="cls-4" d="M108.42,116.1h9.53v-8.64c0-3.81.1-9.69,3.07-13.33,3.13-3.86,7.42-6.48,14.8-6.48,12,0,17.09,1.6,17.09,1.6l-2.38,13.18a34.31,34.31,0,0,0-7.68-1.07c-3.71,0-7,1.24-7,4.7V116.1H151L150,129H135.82v44.72H117.95V129h-9.53Z"/><path class="cls-4" d="M108.6,116.29h9.53v-8.64c0-3.81.1-9.69,3.07-13.33,3.13-3.86,7.42-6.48,14.8-6.48,12,0,17.09,1.6,17.09,1.6l-2.38,13.18a34.31,34.31,0,0,0-7.68-1.07c-3.71,0-7,1.24-7,4.7v10.05h15.2l-1.06,12.87H136v44.72H118.14V129.16H108.6Z"/><path class="cls-4" d="M108.79,116.48h9.53v-8.64c0-3.81.1-9.69,3.07-13.33,3.13-3.86,7.42-6.48,14.8-6.48,12,0,17.09,1.6,17.09,1.6l-2.38,13.18a34.31,34.31,0,0,0-7.68-1.07c-3.71,0-7,1.24-7,4.7v10.05h15.2l-1.06,12.87H136.2v44.72H118.33V129.35h-9.53Z"/><path class="cls-4" d="M109,116.67h9.53V108c0-3.81.1-9.69,3.07-13.33,3.13-3.86,7.42-6.48,14.8-6.48,12,0,17.09,1.6,17.09,1.6L151.1,103a34.31,34.31,0,0,0-7.68-1.07c-3.71,0-7,1.24-7,4.7v10.05h15.2l-1.06,12.87H136.39v44.72H118.52V129.54H109Z"/><path class="cls-4" d="M109.17,116.86h9.53v-8.64c0-3.81.1-9.69,3.07-13.33,3.13-3.86,7.42-6.48,14.8-6.48,12,0,17.09,1.6,17.09,1.6l-2.38,13.18a34.31,34.31,0,0,0-7.68-1.07c-3.71,0-7,1.24-7,4.7v10.05h15.2l-1.06,12.87H136.58v44.72H118.71V129.73h-9.53Z"/><path class="cls-4" d="M109.36,117h9.53V108.4c0-3.81.1-9.69,3.07-13.33,3.13-3.86,7.42-6.48,14.8-6.48,12,0,17.09,1.6,17.09,1.6l-2.38,13.18a34.31,34.31,0,0,0-7.68-1.07c-3.71,0-7,1.24-7,4.7V117H152l-1.06,12.87H136.77v44.72H118.9V129.92h-9.53Z"/></g><path class="cls-5" d="M33.36,41H42.9V32.4c0-3.81.1-9.69,3.07-13.33,3.13-3.86,7.42-6.48,14.8-6.48,12,0,17.09,1.6,17.09,1.6L75.48,27.37a34.31,34.31,0,0,0-7.68-1.07c-3.71,0-7,1.24-7,4.7V41H76L74.91,53.92H60.77V98.63H42.9V53.92H33.36Z"/></svg>