<svg id="Layer_1" data-name="Layer 1" xmlns="http://www.w3.org/2000/svg" xmlns:xlink="http://www.w3.org/1999/xlink" viewBox="0 0 400 100.75"><defs><style>.cls-1,.cls-4{fill:none;}.cls-2{opacity:0.15;}.cls-3{clip-path:url(#clip-path);}.cls-4{stroke:#dddcc4;stroke-miterlimit:10;}</style><clipPath id="clip-path"><rect class="cls-1" x="-362.44" y="-1.64" width="1277.87" height="102.77"/></clipPath></defs><title>Artboard 15</title><g class="cls-2"><g class="cls-3"><polygon class="cls-4" points="6 101.87 18.16 101.87 115.26 4.77 286.44 4.77 383.29 101.63 394.56 101.87 394.56 65.56 383.05 65.56 286.36 162.25 115.91 162.25 18.93 65.28 6 65.28 6 101.87"/><polygon class="cls-4" points="61.44 83.51 85.01 59.95 109 83.94 85.47 107.47 61.44 83.51"/><polygon class="cls-4" points="6 34.92 55.12 34.92 84.92 5.12 114.91 35.11 285.79 35.11 315.94 4.96 346.41 35.43 395.04 35.43 395.04 4.96 346.09 4.96 249.25 101.8 151.9 101.8 55.41 5.32 6 5.32 6 34.92"/><polygon class="cls-4" points="6 162.25 55.12 162.25 151.94 65.44 249.32 65.44 346.35 162.47 440.51 162.47 419.93 132.51 346.58 132.51 316.6 162.48 286.61 132.5 115.91 132.5 85.57 162.83 55.34 132.61 6 132.61 6 162.25"/><polygon class="cls-4" points="292.44 83.51 316.24 59.7 340.31 83.78 316.22 107.87 292.44 83.51"/></g></g></svg>