<?xml version="1.0" encoding="utf-8"?>
<!-- Generator: Adobe Illustrator 21.0.0, SVG Export Plug-In . SVG Version: 6.00 Build 0)  -->
<svg version="1.1" id="Layer_1" xmlns="http://www.w3.org/2000/svg" xmlns:xlink="http://www.w3.org/1999/xlink" x="0px" y="0px"
	 viewBox="0 0 1280 629.6" style="enable-background:new 0 0 1280 629.6;" xml:space="preserve">
<style type="text/css">
	.st0{fill:#41B8B6;}
	.st1{fill:#134142;}
	.st2{fill:#0E6664;}
	.st3{fill:#06897F;}
	.st4{clip-path:url(#SVGID_2_);}
	.st5{fill:none;stroke:#CDE9C9;stroke-miterlimit:10;}
	.st6{clip-path:url(#SVGID_4_);}
</style>
<title>dandy</title>
<polygon class="st0" points="643.5,411.4 772.8,635.2 514.7,635.2 "/>
<polygon class="st1" points="804.7,633.9 776.8,586.2 1280,265.8 1280,633.2 "/>
<polygon class="st2" points="1196.4,-0.8 722.3,490.9 765.1,565 1280,234.6 1280,-0.8 "/>
<polygon class="st3" points="706.8,476.6 671.5,415.1 823.4,-0.8 1266.5,-0.8 1122.4,0 "/>
<polygon class="st0" points="507.1,40.2 781.5,39.6 659.9,399.6 643.1,373.7 625.6,399.6 "/>
<g>
	<defs>
		<polygon id="SVGID_1_" points="507.3,40.5 781.2,39.9 659.9,399.3 643.1,373.5 625.6,399.3 		"/>
	</defs>
	<clipPath id="SVGID_2_">
		<use xlink:href="#SVGID_1_"  style="overflow:visible;"/>
	</clipPath>
	<g class="st4">
		<polygon class="st5" points="563.2,39.9 563.2,49.5 639.3,125.6 639.3,259.9 563.4,335.9 563.2,344.7 591.7,344.7 591.7,335.7 
			515.8,259.8 515.8,126.1 591.9,50.1 591.9,39.9 		"/>
		<polygon class="st5" points="577.6,83.4 596.1,101.9 577.2,120.7 558.8,102.2 		"/>
		<polygon class="st5" points="615.7,39.9 615.7,78.4 639.1,101.8 615.5,125.3 615.5,259.4 639.2,283 615.3,306.9 615.3,368 
			639.2,379.2 639.2,306.7 563.2,230.7 563.2,154.4 638.9,78.7 638.9,39.9 		"/>
		<polygon class="st5" points="515.8,39.9 515.8,78.4 591.8,154.4 591.8,230.8 515.6,306.9 515.6,345.1 539.2,345.1 539.2,307.1 
			515.6,283.6 539.2,260 539.2,126.1 515.4,102.3 539.1,78.6 539.1,39.9 		"/>
		<polygon class="st5" points="577.6,264.6 596.2,283.3 577.4,302.2 558.5,283.3 		"/>
		<polygon class="st5" points="695.5,39.9 695.5,49.5 771.7,125.6 771.7,259.9 695.7,335.9 695.5,344.7 724,344.7 724,335.7 
			648.2,259.8 648.2,126.1 724.2,50.1 724.2,39.9 		"/>
		<polygon class="st5" points="709.9,83.4 728.4,101.9 709.6,120.7 691.1,102.2 		"/>
		<polygon class="st5" points="748,39.9 748,78.4 771.4,101.8 747.9,125.3 747.9,259.4 771.5,283 747.6,306.9 747.6,345.1 
			771.5,345.1 771.5,306.7 695.6,230.7 695.6,154.4 771.3,78.7 771.3,39.9 		"/>
		<polygon class="st5" points="648.2,39.9 648.2,78.4 724.1,154.4 724.1,230.8 648,306.9 648,380.8 671.5,364.6 671.5,307.1 
			648,283.6 671.5,260 671.5,126.1 647.7,102.3 671.4,78.6 671.4,39.9 		"/>
		<polygon class="st5" points="709.9,264.6 728.6,283.3 709.7,302.2 690.8,283.3 		"/>
	</g>
</g>
<g>
	<defs>
		<polygon id="SVGID_3_" points="643.2,409.6 772.3,633.1 514.7,633.1 		"/>
	</defs>
	<clipPath id="SVGID_4_">
		<use xlink:href="#SVGID_3_"  style="overflow:visible;"/>
	</clipPath>
	<g class="st6">
		<polygon class="st5" points="563.9,715.8 563.9,706.3 640.1,630.1 640.1,495.8 564.1,419.9 563.9,411 592.4,411 592.4,420 
			516.5,495.9 516.5,629.6 592.6,705.7 592.6,715.8 		"/>
		<polygon class="st5" points="616.4,715.8 616.4,677.3 639.8,653.9 616.3,630.4 616.3,496.3 639.9,472.7 616,448.8 616,387.7 
			639.9,376.5 639.9,449 564,525 564,601.4 639.7,677 639.7,715.8 		"/>
		<polygon class="st5" points="516.5,715.8 516.5,677.3 592.5,601.3 592.5,525 516.4,448.8 516.4,410.6 539.9,410.6 539.9,448.6 
			516.4,472.2 539.9,495.7 539.9,629.6 516.1,653.4 539.8,677.1 539.8,715.8 		"/>
		<polygon class="st5" points="578.3,491.1 597,472.5 578.1,453.6 559.2,472.5 		"/>
		<polygon class="st5" points="696.2,715.8 696.2,706.3 772.4,630.1 772.4,495.8 696.4,419.9 696.2,411 724.7,411 724.7,420 
			648.9,495.9 648.9,629.6 725,705.7 725,715.8 		"/>
		<polygon class="st5" points="748.8,715.8 748.8,677.3 772.1,653.9 748.6,630.4 748.6,496.3 772.3,472.7 748.4,448.8 748.4,410.6 
			772.3,410.6 772.3,449 696.3,525 696.3,601.4 772,677 772,715.8 		"/>
		<polygon class="st5" points="648.9,715.8 648.9,677.3 724.8,601.3 724.8,525 648.7,448.8 648.7,375 672.2,391.1 672.2,448.6 
			648.7,472.2 672.2,495.7 672.2,629.6 648.4,653.4 672.1,677.1 672.1,715.8 		"/>
		<polygon class="st5" points="710.7,491.1 729.3,472.5 710.4,453.6 691.5,472.5 		"/>
	</g>
</g>
<polygon class="st1" points="479.8,634.7 507.7,586.9 0,263.7 0,634 "/>
<polygon class="st2" points="88.1,0 562.2,491.7 519.4,565.7 0,232.5 0,0 "/>
<polygon class="st3" points="577.7,477.4 613,415.9 461.1,0 18,0 162.1,0.8 "/>
<g>
	<defs>
		<rect id="SVGID_5_" x="-453.5" y="42.4" width="281.6" height="281.6"/>
	</defs>
	<clipPath id="SVGID_6_">
		<use xlink:href="#SVGID_5_"  style="overflow:visible;"/>
	</clipPath>
</g>
</svg>
