<svg id="Layer_1" data-name="Layer 1" xmlns="http://www.w3.org/2000/svg" xmlns:xlink="http://www.w3.org/1999/xlink" viewBox="0 0 111.22 111.22"><defs><style>.cls-1{fill:none;}.cls-2{clip-path:url(#clip-path);}.cls-3{fill:#801717;}.cls-4{fill:#cb2029;}.cls-5{fill:#010101;opacity:0.3;isolation:isolate;}.cls-6{fill:#fff;}</style><clipPath id="clip-path"><rect class="cls-1" x="-146.29" y="-2.84" width="108.46" height="108.46"/></clipPath></defs><title>Artboard 5</title><g class="cls-2"><polygon class="cls-3" points="0.14 73.38 -11.2 73.38 -11.2 62.04 -16.69 62.04 -16.69 73.38 -28.02 73.38 -28.02 78.88 -16.69 78.88 -16.69 90.21 -11.2 90.21 -11.2 78.88 0.14 78.88 0.14 73.38"/><polygon class="cls-3" points="0.36 73.61 -10.97 73.61 -10.97 62.27 -16.46 62.27 -16.46 73.61 -27.8 73.61 -27.8 79.1 -16.46 79.1 -16.46 90.44 -10.97 90.44 -10.97 79.1 0.36 79.1 0.36 73.61"/><polygon class="cls-3" points="0.59 73.83 -10.75 73.83 -10.75 62.49 -16.24 62.49 -16.24 73.83 -27.57 73.83 -27.57 79.33 -16.24 79.33 -16.24 90.66 -10.75 90.66 -10.75 79.33 0.59 79.33 0.59 73.83"/><polygon class="cls-3" points="0.81 74.06 -10.52 74.06 -10.52 62.72 -16.01 62.72 -16.01 74.06 -27.35 74.06 -27.35 79.55 -16.01 79.55 -16.01 90.89 -10.52 90.89 -10.52 79.55 0.81 79.55 0.81 74.06"/><polygon class="cls-3" points="1.04 74.28 -10.3 74.28 -10.3 62.95 -15.79 62.95 -15.79 74.28 -27.12 74.28 -27.12 79.78 -15.79 79.78 -15.79 91.11 -10.3 91.11 -10.3 79.78 1.04 79.78 1.04 74.28"/><polygon class="cls-3" points="1.26 74.51 -10.07 74.51 -10.07 63.17 -15.56 63.17 -15.56 74.51 -26.9 74.51 -26.9 80 -15.56 80 -15.56 91.33 -10.07 91.33 -10.07 80 1.26 80 1.26 74.51"/><polygon class="cls-3" points="1.49 74.73 -9.85 74.73 -9.85 63.4 -15.34 63.4 -15.34 74.73 -26.67 74.73 -26.67 80.23 -15.34 80.23 -15.34 91.56 -9.85 91.56 -9.85 80.23 1.49 80.23 1.49 74.73"/><polygon class="cls-3" points="1.72 74.96 -9.62 74.96 -9.62 63.62 -15.11 63.62 -15.11 74.96 -26.45 74.96 -26.45 80.45 -15.11 80.45 -15.11 91.78 -9.62 91.78 -9.62 80.45 1.72 80.45 1.72 74.96"/><polygon class="cls-3" points="1.94 75.18 -9.39 75.18 -9.39 63.84 -14.89 63.84 -14.89 75.18 -26.22 75.18 -26.22 80.68 -14.89 80.68 -14.89 92.01 -9.39 92.01 -9.39 80.68 1.94 80.68 1.94 75.18"/><polygon class="cls-3" points="2.17 75.41 -9.17 75.41 -9.17 64.07 -14.66 64.07 -14.66 75.41 -26 75.41 -26 80.9 -14.66 80.9 -14.66 92.24 -9.17 92.24 -9.17 80.9 2.17 80.9 2.17 75.41"/><polygon class="cls-3" points="2.39 75.63 -8.95 75.63 -8.95 64.3 -14.44 64.3 -14.44 75.63 -25.77 75.63 -25.77 81.13 -14.44 81.13 -14.44 92.46 -8.95 92.46 -8.95 81.13 2.39 81.13 2.39 75.63"/><polygon class="cls-3" points="2.62 75.86 -8.72 75.86 -8.72 64.52 -14.21 64.52 -14.21 75.86 -25.55 75.86 -25.55 81.35 -14.21 81.35 -14.21 92.69 -8.72 92.69 -8.72 81.35 2.62 81.35 2.62 75.86"/><polygon class="cls-3" points="2.84 76.08 -8.49 76.08 -8.49 64.75 -13.99 64.75 -13.99 76.08 -25.32 76.08 -25.32 81.58 -13.99 81.58 -13.99 92.91 -8.49 92.91 -8.49 81.58 2.84 81.58 2.84 76.08"/><polygon class="cls-3" points="3.07 76.31 -8.27 76.31 -8.27 64.97 -13.76 64.97 -13.76 76.31 -25.1 76.31 -25.1 81.8 -13.76 81.8 -13.76 93.14 -8.27 93.14 -8.27 81.8 3.07 81.8 3.07 76.31"/><polygon class="cls-3" points="3.29 76.53 -8.04 76.53 -8.04 65.19 -13.54 65.19 -13.54 76.53 -24.87 76.53 -24.87 82.03 -13.54 82.03 -13.54 93.36 -8.04 93.36 -8.04 82.03 3.29 82.03 3.29 76.53"/><polygon class="cls-3" points="3.52 76.76 -7.82 76.76 -7.82 65.42 -13.31 65.42 -13.31 76.76 -24.65 76.76 -24.65 82.25 -13.31 82.25 -13.31 93.59 -7.82 93.59 -7.82 82.25 3.52 82.25 3.52 76.76"/><polygon class="cls-3" points="3.74 76.98 -7.59 76.98 -7.59 65.65 -13.09 65.65 -13.09 76.98 -24.42 76.98 -24.42 82.48 -13.09 82.48 -13.09 93.81 -7.59 93.81 -7.59 82.48 3.74 82.48 3.74 76.98"/><polygon class="cls-3" points="3.97 77.21 -7.37 77.21 -7.37 65.87 -12.86 65.87 -12.86 77.21 -24.2 77.21 -24.2 82.7 -12.86 82.7 -12.86 94.04 -7.37 94.04 -7.37 82.7 3.97 82.7 3.97 77.21"/><polygon class="cls-3" points="4.19 77.43 -7.14 77.43 -7.14 66.1 -12.64 66.1 -12.64 77.43 -23.97 77.43 -23.97 82.93 -12.64 82.93 -12.64 94.26 -7.14 94.26 -7.14 82.93 4.19 82.93 4.19 77.43"/><polygon class="cls-3" points="4.42 77.66 -6.92 77.66 -6.92 66.32 -12.41 66.32 -12.41 77.66 -23.75 77.66 -23.75 83.15 -12.41 83.15 -12.41 94.49 -6.92 94.49 -6.92 83.15 4.42 83.15 4.42 77.66"/><polygon class="cls-3" points="4.64 77.88 -6.69 77.88 -6.69 66.55 -12.19 66.55 -12.19 77.88 -23.52 77.88 -23.52 83.38 -12.19 83.38 -12.19 94.71 -6.69 94.71 -6.69 83.38 4.64 83.38 4.64 77.88"/><polygon class="cls-3" points="4.87 78.11 -6.47 78.11 -6.47 66.77 -11.96 66.77 -11.96 78.11 -23.3 78.11 -23.3 83.6 -11.96 83.6 -11.96 94.94 -6.47 94.94 -6.47 83.6 4.87 83.6 4.87 78.11"/><polygon class="cls-3" points="5.09 78.33 -6.24 78.33 -6.24 67 -11.74 67 -11.74 78.33 -23.07 78.33 -23.07 83.83 -11.74 83.83 -11.74 95.16 -6.24 95.16 -6.24 83.83 5.09 83.83 5.09 78.33"/><polygon class="cls-3" points="5.32 78.56 -6.02 78.56 -6.02 67.22 -11.51 67.22 -11.51 78.56 -22.85 78.56 -22.85 84.05 -11.51 84.05 -11.51 95.39 -6.02 95.39 -6.02 84.05 5.32 84.05 5.32 78.56"/><polygon class="cls-3" points="5.54 78.78 -5.79 78.78 -5.79 67.45 -11.29 67.45 -11.29 78.78 -22.62 78.78 -22.62 84.28 -11.29 84.28 -11.29 95.61 -5.79 95.61 -5.79 84.28 5.54 84.28 5.54 78.78"/><polygon class="cls-3" points="5.77 79.01 -5.57 79.01 -5.57 67.67 -11.06 67.67 -11.06 79.01 -22.4 79.01 -22.4 84.5 -11.06 84.5 -11.06 95.84 -5.57 95.84 -5.57 84.5 5.77 84.5 5.77 79.01"/><polygon class="cls-3" points="5.99 79.23 -5.34 79.23 -5.34 67.9 -10.84 67.9 -10.84 79.23 -22.17 79.23 -22.17 84.73 -10.84 84.73 -10.84 96.06 -5.34 96.06 -5.34 84.73 5.99 84.73 5.99 79.23"/><polygon class="cls-3" points="6.22 79.46 -5.12 79.46 -5.12 68.12 -10.61 68.12 -10.61 79.46 -21.95 79.46 -21.95 84.95 -10.61 84.95 -10.61 96.29 -5.12 96.29 -5.12 84.95 6.22 84.95 6.22 79.46"/><polygon class="cls-3" points="6.44 79.69 -4.89 79.69 -4.89 68.35 -10.39 68.35 -10.39 79.69 -21.72 79.69 -21.72 85.18 -10.39 85.18 -10.39 96.51 -4.89 96.51 -4.89 85.18 6.44 85.18 6.44 79.69"/><polygon class="cls-3" points="6.67 79.91 -4.67 79.91 -4.67 68.57 -10.16 68.57 -10.16 79.91 -21.5 79.91 -21.5 85.4 -10.16 85.4 -10.16 96.74 -4.67 96.74 -4.67 85.4 6.67 85.4 6.67 79.91"/><polygon class="cls-3" points="6.89 80.14 -4.44 80.14 -4.44 68.8 -9.94 68.8 -9.94 80.14 -21.27 80.14 -21.27 85.63 -9.94 85.63 -9.94 96.96 -4.44 96.96 -4.44 85.63 6.89 85.63 6.89 80.14"/><polygon class="cls-3" points="7.12 80.36 -4.22 80.36 -4.22 69.02 -9.71 69.02 -9.71 80.36 -21.05 80.36 -21.05 85.85 -9.71 85.85 -9.71 97.19 -4.22 97.19 -4.22 85.85 7.12 85.85 7.12 80.36"/><polygon class="cls-3" points="7.34 80.59 -3.99 80.59 -3.99 69.25 -9.49 69.25 -9.49 80.59 -20.82 80.59 -20.82 86.08 -9.49 86.08 -9.49 97.41 -3.99 97.41 -3.99 86.08 7.34 86.08 7.34 80.59"/><polygon class="cls-3" points="7.57 80.81 -3.77 80.81 -3.77 69.47 -9.26 69.47 -9.26 80.81 -20.59 80.81 -20.59 86.3 -9.26 86.3 -9.26 97.64 -3.77 97.64 -3.77 86.3 7.57 86.3 7.57 80.81"/><polygon class="cls-3" points="7.79 81.04 -3.54 81.04 -3.54 69.7 -9.04 69.7 -9.04 81.04 -20.37 81.04 -20.37 86.53 -9.04 86.53 -9.04 97.86 -3.54 97.86 -3.54 86.53 7.79 86.53 7.79 81.04"/><polygon class="cls-3" points="8.02 81.26 -3.32 81.26 -3.32 69.92 -8.81 69.92 -8.81 81.26 -20.14 81.26 -20.14 86.75 -8.81 86.75 -8.81 98.09 -3.32 98.09 -3.32 86.75 8.02 86.75 8.02 81.26"/><polygon class="cls-3" points="8.24 81.49 -3.09 81.49 -3.09 70.15 -8.59 70.15 -8.59 81.49 -19.92 81.49 -19.92 86.98 -8.59 86.98 -8.59 98.31 -3.09 98.31 -3.09 86.98 8.24 86.98 8.24 81.49"/><polygon class="cls-3" points="8.47 81.71 -2.87 81.71 -2.87 70.37 -8.36 70.37 -8.36 81.71 -19.7 81.71 -19.7 87.2 -8.36 87.2 -8.36 98.54 -2.87 98.54 -2.87 87.2 8.47 87.2 8.47 81.71"/><polygon class="cls-3" points="8.69 81.94 -2.64 81.94 -2.64 70.6 -8.13 70.6 -8.13 81.94 -19.47 81.94 -19.47 87.43 -8.13 87.43 -8.13 98.76 -2.64 98.76 -2.64 87.43 8.69 87.43 8.69 81.94"/><polygon class="cls-3" points="8.92 82.16 -2.42 82.16 -2.42 70.82 -7.91 70.82 -7.91 82.16 -19.25 82.16 -19.25 87.65 -7.91 87.65 -7.91 98.99 -2.42 98.99 -2.42 87.65 8.92 87.65 8.92 82.16"/><polygon class="cls-3" points="9.14 82.39 -2.19 82.39 -2.19 71.05 -7.68 71.05 -7.68 82.39 -19.02 82.39 -19.02 87.88 -7.68 87.88 -7.68 99.21 -2.19 99.21 -2.19 87.88 9.14 87.88 9.14 82.39"/><polygon class="cls-3" points="9.37 82.61 -1.97 82.61 -1.97 71.27 -7.46 71.27 -7.46 82.61 -18.79 82.61 -18.79 88.1 -7.46 88.1 -7.46 99.44 -1.97 99.44 -1.97 88.1 9.37 88.1 9.37 82.61"/><polygon class="cls-3" points="9.59 82.84 -1.74 82.84 -1.74 71.5 -7.24 71.5 -7.24 82.84 -18.57 82.84 -18.57 88.33 -7.24 88.33 -7.24 99.66 -1.74 99.66 -1.74 88.33 9.59 88.33 9.59 82.84"/><polygon class="cls-3" points="9.82 83.06 -1.52 83.06 -1.52 71.72 -7.01 71.72 -7.01 83.06 -18.34 83.06 -18.34 88.55 -7.01 88.55 -7.01 99.89 -1.52 99.89 -1.52 88.55 9.82 88.55 9.82 83.06"/><polygon class="cls-3" points="10.04 83.29 -1.29 83.29 -1.29 71.95 -6.79 71.95 -6.79 83.29 -18.12 83.29 -18.12 88.78 -6.79 88.78 -6.79 100.11 -1.29 100.11 -1.29 88.78 10.04 88.78 10.04 83.29"/><polygon class="cls-3" points="10.27 83.51 -1.07 83.51 -1.07 72.17 -6.56 72.17 -6.56 83.51 -17.89 83.51 -17.89 89 -6.56 89 -6.56 100.34 -1.07 100.34 -1.07 89 10.27 89 10.27 83.51"/><polygon class="cls-3" points="10.49 83.74 -0.84 83.74 -0.84 72.4 -6.33 72.4 -6.33 83.74 -17.67 83.74 -17.67 89.23 -6.33 89.23 -6.33 100.56 -0.84 100.56 -0.84 89.23 10.49 89.23 10.49 83.74"/><polygon class="cls-3" points="10.72 83.96 -0.62 83.96 -0.62 72.62 -6.11 72.62 -6.11 83.96 -17.44 83.96 -17.44 89.45 -6.11 89.45 -6.11 100.79 -0.62 100.79 -0.62 89.45 10.72 89.45 10.72 83.96"/><polygon class="cls-3" points="10.94 84.19 -0.39 84.19 -0.39 72.85 -5.88 72.85 -5.88 84.19 -17.22 84.19 -17.22 89.68 -5.88 89.68 -5.88 101.01 -0.39 101.01 -0.39 89.68 10.94 89.68 10.94 84.19"/><polygon class="cls-3" points="11.17 84.41 -0.17 84.41 -0.17 73.07 -5.66 73.07 -5.66 84.41 -16.99 84.41 -16.99 89.91 -5.66 89.91 -5.66 101.24 -0.17 101.24 -0.17 89.91 11.17 89.91 11.17 84.41"/><polygon class="cls-3" points="11.39 84.64 0.06 84.64 0.06 73.3 -5.43 73.3 -5.43 84.64 -16.77 84.64 -16.77 90.13 -5.43 90.13 -5.43 101.46 0.06 101.46 0.06 90.13 11.39 90.13 11.39 84.64"/><polygon class="cls-3" points="11.62 84.86 0.28 84.86 0.28 73.52 -5.21 73.52 -5.21 84.86 -16.54 84.86 -16.54 90.36 -5.21 90.36 -5.21 101.69 0.28 101.69 0.28 90.36 11.62 90.36 11.62 84.86"/><polygon class="cls-3" points="11.84 85.09 0.51 85.09 0.51 73.75 -4.98 73.75 -4.98 85.09 -16.32 85.09 -16.32 90.58 -4.98 90.58 -4.98 101.91 0.51 101.91 0.51 90.58 11.84 90.58 11.84 85.09"/><polygon class="cls-3" points="12.07 85.31 0.73 85.31 0.73 73.97 -4.76 73.97 -4.76 85.31 -16.09 85.31 -16.09 90.81 -4.76 90.81 -4.76 102.14 0.73 102.14 0.73 90.81 12.07 90.81 12.07 85.31"/><polygon class="cls-3" points="12.29 85.54 0.96 85.54 0.96 74.2 -4.53 74.2 -4.53 85.54 -15.87 85.54 -15.87 91.03 -4.53 91.03 -4.53 102.36 0.96 102.36 0.96 91.03 12.29 91.03 12.29 85.54"/><polygon class="cls-3" points="12.52 85.76 1.18 85.76 1.18 74.42 -4.31 74.42 -4.31 85.76 -15.64 85.76 -15.64 91.25 -4.31 91.25 -4.31 102.59 1.18 102.59 1.18 91.25 12.52 91.25 12.52 85.76"/><polygon class="cls-3" points="12.74 85.99 1.41 85.99 1.41 74.65 -4.08 74.65 -4.08 85.99 -15.42 85.99 -15.42 91.48 -4.08 91.48 -4.08 102.81 1.41 102.81 1.41 91.48 12.74 91.48 12.74 85.99"/><polygon class="cls-3" points="12.97 86.21 1.63 86.21 1.63 74.87 -3.86 74.87 -3.86 86.21 -15.19 86.21 -15.19 91.71 -3.86 91.71 -3.86 103.04 1.63 103.04 1.63 91.71 12.97 91.71 12.97 86.21"/><polygon class="cls-3" points="13.2 86.44 1.86 86.44 1.86 75.1 -3.63 75.1 -3.63 86.44 -14.97 86.44 -14.97 91.93 -3.63 91.93 -3.63 103.27 1.86 103.27 1.86 91.93 13.2 91.93 13.2 86.44"/><polygon class="cls-3" points="13.42 86.66 2.08 86.66 2.08 75.32 -3.41 75.32 -3.41 86.66 -14.74 86.66 -14.74 92.16 -3.41 92.16 -3.41 103.49 2.08 103.49 2.08 92.16 13.42 92.16 13.42 86.66"/><polygon class="cls-3" points="13.64 86.89 2.31 86.89 2.31 75.55 -3.18 75.55 -3.18 86.89 -14.52 86.89 -14.52 92.38 -3.18 92.38 -3.18 103.72 2.31 103.72 2.31 92.38 13.64 92.38 13.64 86.89"/><polygon class="cls-3" points="13.87 87.11 2.53 87.11 2.53 75.78 -2.96 75.78 -2.96 87.11 -14.29 87.11 -14.29 92.61 -2.96 92.61 -2.96 103.94 2.53 103.94 2.53 92.61 13.87 92.61 13.87 87.11"/><polygon class="cls-3" points="14.1 87.34 2.76 87.34 2.76 76 -2.73 76 -2.73 87.34 -14.07 87.34 -14.07 92.83 -2.73 92.83 -2.73 104.17 2.76 104.17 2.76 92.83 14.1 92.83 14.1 87.34"/><polygon class="cls-3" points="14.32 87.56 2.98 87.56 2.98 76.22 -2.51 76.22 -2.51 87.56 -13.84 87.56 -13.84 93.06 -2.51 93.06 -2.51 104.39 2.98 104.39 2.98 93.06 14.32 93.06 14.32 87.56"/><polygon class="cls-3" points="14.54 87.79 3.21 87.79 3.21 76.45 -2.28 76.45 -2.28 87.79 -13.62 87.79 -13.62 93.28 -2.28 93.28 -2.28 104.61 3.21 104.61 3.21 93.28 14.54 93.28 14.54 87.79"/><polygon class="cls-3" points="14.77 88.01 3.44 88.01 3.44 76.67 -2.06 76.67 -2.06 88.01 -13.39 88.01 -13.39 93.51 -2.06 93.51 -2.06 104.84 3.44 104.84 3.44 93.51 14.77 93.51 14.77 88.01"/><polygon class="cls-3" points="15 88.24 3.66 88.24 3.66 76.9 -1.83 76.9 -1.83 88.24 -13.17 88.24 -13.17 93.73 -1.83 93.73 -1.83 105.07 3.66 105.07 3.66 93.73 15 93.73 15 88.24"/><polygon class="cls-3" points="15.22 88.46 3.88 88.46 3.88 77.13 -1.61 77.13 -1.61 88.46 -12.94 88.46 -12.94 93.96 -1.61 93.96 -1.61 105.29 3.88 105.29 3.88 93.96 15.22 93.96 15.22 88.46"/><polygon class="cls-3" points="15.45 88.69 4.11 88.69 4.11 77.35 -1.38 77.35 -1.38 88.69 -12.72 88.69 -12.72 94.18 -1.38 94.18 -1.38 105.52 4.11 105.52 4.11 94.18 15.45 94.18 15.45 88.69"/><polygon class="cls-3" points="15.67 88.91 4.33 88.91 4.33 77.58 -1.16 77.58 -1.16 88.91 -12.49 88.91 -12.49 94.41 -1.16 94.41 -1.16 105.74 4.33 105.74 4.33 94.41 15.67 94.41 15.67 88.91"/><polygon class="cls-3" points="15.9 89.14 4.56 89.14 4.56 77.8 -0.93 77.8 -0.93 89.14 -12.27 89.14 -12.27 94.63 -0.93 94.63 -0.93 105.97 4.56 105.97 4.56 94.63 15.9 94.63 15.9 89.14"/><polygon class="cls-3" points="16.12 89.36 4.79 89.36 4.79 78.03 -0.71 78.03 -0.71 89.36 -12.04 89.36 -12.04 94.86 -0.71 94.86 -0.71 106.19 4.79 106.19 4.79 94.86 16.12 94.86 16.12 89.36"/><polygon class="cls-3" points="16.35 89.59 5.01 89.59 5.01 78.25 -0.48 78.25 -0.48 89.59 -11.82 89.59 -11.82 95.08 -0.48 95.08 -0.48 106.42 5.01 106.42 5.01 95.08 16.35 95.08 16.35 89.59"/><polygon class="cls-3" points="16.57 89.81 5.24 89.81 5.24 78.48 -0.26 78.48 -0.26 89.81 -11.59 89.81 -11.59 95.31 -0.26 95.31 -0.26 106.64 5.24 106.64 5.24 95.31 16.57 95.31 16.57 89.81"/><polygon class="cls-3" points="16.8 90.04 5.46 90.04 5.46 78.7 -0.03 78.7 -0.03 90.04 -11.37 90.04 -11.37 95.53 -0.03 95.53 -0.03 106.87 5.46 106.87 5.46 95.53 16.8 95.53 16.8 90.04"/><polygon class="cls-3" points="17.02 90.26 5.69 90.26 5.69 78.93 0.19 78.93 0.19 90.26 -11.14 90.26 -11.14 95.76 0.19 95.76 0.19 107.09 5.69 107.09 5.69 95.76 17.02 95.76 17.02 90.26"/><polygon class="cls-3" points="17.25 90.49 5.91 90.49 5.91 79.15 0.42 79.15 0.42 90.49 -10.92 90.49 -10.92 95.98 0.42 95.98 0.42 107.32 5.91 107.32 5.91 95.98 17.25 95.98 17.25 90.49"/><polygon class="cls-3" points="17.47 90.72 6.14 90.72 6.14 79.38 0.64 79.38 0.64 90.72 -10.69 90.72 -10.69 96.21 0.64 96.21 0.64 107.54 6.14 107.54 6.14 96.21 17.47 96.21 17.47 90.72"/><polygon class="cls-3" points="17.7 90.94 6.36 90.94 6.36 79.6 0.87 79.6 0.87 90.94 -10.47 90.94 -10.47 96.43 0.87 96.43 0.87 107.77 6.36 107.77 6.36 96.43 17.7 96.43 17.7 90.94"/><polygon class="cls-3" points="17.92 91.17 6.59 91.17 6.59 79.83 1.09 79.83 1.09 91.17 -10.24 91.17 -10.24 96.66 1.09 96.66 1.09 107.99 6.59 107.99 6.59 96.66 17.92 96.66 17.92 91.17"/><polygon class="cls-3" points="18.15 91.39 6.81 91.39 6.81 80.05 1.32 80.05 1.32 91.39 -10.02 91.39 -10.02 96.88 1.32 96.88 1.32 108.22 6.81 108.22 6.81 96.88 18.15 96.88 18.15 91.39"/><polygon class="cls-3" points="18.37 91.61 7.04 91.61 7.04 80.28 1.54 80.28 1.54 91.61 -9.79 91.61 -9.79 97.11 1.54 97.11 1.54 108.44 7.04 108.44 7.04 97.11 18.37 97.11 18.37 91.61"/><polygon class="cls-3" points="18.6 91.84 7.26 91.84 7.26 80.5 1.77 80.5 1.77 91.84 -9.57 91.84 -9.57 97.33 1.77 97.33 1.77 108.67 7.26 108.67 7.26 97.33 18.6 97.33 18.6 91.84"/><polygon class="cls-3" points="18.82 92.06 7.49 92.06 7.49 80.73 1.99 80.73 1.99 92.06 -9.34 92.06 -9.34 97.56 1.99 97.56 1.99 108.89 7.49 108.89 7.49 97.56 18.82 97.56 18.82 92.06"/><polygon class="cls-3" points="19.05 92.29 7.71 92.29 7.71 80.95 2.22 80.95 2.22 92.29 -9.12 92.29 -9.12 97.78 2.22 97.78 2.22 109.12 7.71 109.12 7.71 97.78 19.05 97.78 19.05 92.29"/><polygon class="cls-3" points="19.27 92.52 7.94 92.52 7.94 81.18 2.44 81.18 2.44 92.52 -8.89 92.52 -8.89 98.01 2.44 98.01 2.44 109.34 7.94 109.34 7.94 98.01 19.27 98.01 19.27 92.52"/><polygon class="cls-3" points="19.5 92.74 8.16 92.74 8.16 81.4 2.67 81.4 2.67 92.74 -8.66 92.74 -8.66 98.23 2.67 98.23 2.67 109.57 8.16 109.57 8.16 98.23 19.5 98.23 19.5 92.74"/><polygon class="cls-3" points="19.72 92.97 8.39 92.97 8.39 81.63 2.89 81.63 2.89 92.97 -8.44 92.97 -8.44 98.46 2.89 98.46 2.89 109.79 8.39 109.79 8.39 98.46 19.72 98.46 19.72 92.97"/><polygon class="cls-3" points="19.95 93.19 8.61 93.19 8.61 81.85 3.12 81.85 3.12 93.19 -8.21 93.19 -8.21 98.68 3.12 98.68 3.12 110.02 8.61 110.02 8.61 98.68 19.95 98.68 19.95 93.19"/><polygon class="cls-3" points="20.17 93.42 8.84 93.42 8.84 82.08 3.34 82.08 3.34 93.42 -7.99 93.42 -7.99 98.91 3.34 98.91 3.34 110.24 8.84 110.24 8.84 98.91 20.17 98.91 20.17 93.42"/><polygon class="cls-3" points="20.4 93.64 9.06 93.64 9.06 82.3 3.57 82.3 3.57 93.64 -7.76 93.64 -7.76 99.13 3.57 99.13 3.57 110.47 9.06 110.47 9.06 99.13 20.4 99.13 20.4 93.64"/><polygon class="cls-3" points="20.62 93.87 9.29 93.87 9.29 82.53 3.79 82.53 3.79 93.87 -7.54 93.87 -7.54 99.36 3.79 99.36 3.79 110.69 9.29 110.69 9.29 99.36 20.62 99.36 20.62 93.87"/><polygon class="cls-3" points="20.85 94.09 9.51 94.09 9.51 82.75 4.02 82.75 4.02 94.09 -7.32 94.09 -7.32 99.58 4.02 99.58 4.02 110.92 9.51 110.92 9.51 99.58 20.85 99.58 20.85 94.09"/><polygon class="cls-3" points="21.07 94.32 9.74 94.32 9.74 82.98 4.24 82.98 4.24 94.32 -7.09 94.32 -7.09 99.81 4.24 99.81 4.24 111.14 9.74 111.14 9.74 99.81 21.07 99.81 21.07 94.32"/><polygon class="cls-3" points="21.3 94.54 9.96 94.54 9.96 83.2 4.47 83.2 4.47 94.54 -6.87 94.54 -6.87 100.03 4.47 100.03 4.47 111.37 9.96 111.37 9.96 100.03 21.3 100.03 21.3 94.54"/><polygon class="cls-3" points="21.52 94.77 10.19 94.77 10.19 83.43 4.7 83.43 4.7 94.77 -6.64 94.77 -6.64 100.26 4.7 100.26 4.7 111.59 10.19 111.59 10.19 100.26 21.52 100.26 21.52 94.77"/><polygon class="cls-3" points="21.75 94.99 10.41 94.99 10.41 83.65 4.92 83.65 4.92 94.99 -6.42 94.99 -6.42 100.48 4.92 100.48 4.92 111.82 10.41 111.82 10.41 100.48 21.75 100.48 21.75 94.99"/><polygon class="cls-3" points="21.97 95.22 10.64 95.22 10.64 83.88 5.14 83.88 5.14 95.22 -6.19 95.22 -6.19 100.71 5.14 100.71 5.14 112.04 10.64 112.04 10.64 100.71 21.97 100.71 21.97 95.22"/><polygon class="cls-3" points="22.2 95.44 10.86 95.44 10.86 84.1 5.37 84.1 5.37 95.44 -5.96 95.44 -5.96 100.93 5.37 100.93 5.37 112.27 10.86 112.27 10.86 100.93 22.2 100.93 22.2 95.44"/><polygon class="cls-3" points="22.42 95.67 11.09 95.67 11.09 84.33 5.59 84.33 5.59 95.67 -5.74 95.67 -5.74 101.16 5.59 101.16 5.59 112.49 11.09 112.49 11.09 101.16 22.42 101.16 22.42 95.67"/><polygon class="cls-3" points="22.65 95.89 11.31 95.89 11.31 84.55 5.82 84.55 5.82 95.89 -5.51 95.89 -5.51 101.38 5.82 101.38 5.82 112.72 11.31 112.72 11.31 101.38 22.65 101.38 22.65 95.89"/><polygon class="cls-3" points="22.87 96.12 11.54 96.12 11.54 84.78 6.04 84.78 6.04 96.12 -5.29 96.12 -5.29 101.61 6.04 101.61 6.04 112.94 11.54 112.94 11.54 101.61 22.87 101.61 22.87 96.12"/><polygon class="cls-3" points="23.1 96.34 11.76 96.34 11.76 85 6.27 85 6.27 96.34 -5.06 96.34 -5.06 101.83 6.27 101.83 6.27 113.17 11.76 113.17 11.76 101.83 23.1 101.83 23.1 96.34"/><polygon class="cls-3" points="23.32 96.57 11.99 96.57 11.99 85.23 6.5 85.23 6.5 96.57 -4.84 96.57 -4.84 102.06 6.5 102.06 6.5 113.39 11.99 113.39 11.99 102.06 23.32 102.06 23.32 96.57"/><polygon class="cls-3" points="23.55 96.79 12.21 96.79 12.21 85.45 6.72 85.45 6.72 96.79 -4.61 96.79 -4.61 102.28 6.72 102.28 6.72 113.62 12.21 113.62 12.21 102.28 23.55 102.28 23.55 96.79"/><polygon class="cls-3" points="23.77 97.02 12.44 97.02 12.44 85.68 6.95 85.68 6.95 97.02 -4.39 97.02 -4.39 102.51 6.95 102.51 6.95 113.84 12.44 113.84 12.44 102.51 23.77 102.51 23.77 97.02"/><polygon class="cls-3" points="24 97.24 12.66 97.24 12.66 85.9 7.17 85.9 7.17 97.24 -4.16 97.24 -4.16 102.73 7.17 102.73 7.17 114.07 12.66 114.07 12.66 102.73 24 102.73 24 97.24"/><polygon class="cls-3" points="24.22 97.47 12.89 97.47 12.89 86.13 7.4 86.13 7.4 97.47 -3.94 97.47 -3.94 102.96 7.4 102.96 7.4 114.29 12.89 114.29 12.89 102.96 24.22 102.96 24.22 97.47"/><polygon class="cls-3" points="24.45 97.69 13.11 97.69 13.11 86.35 7.62 86.35 7.62 97.69 -3.71 97.69 -3.71 103.19 7.62 103.19 7.62 114.52 13.11 114.52 13.11 103.19 24.45 103.19 24.45 97.69"/><polygon class="cls-3" points="24.67 97.92 13.34 97.92 13.34 86.58 7.85 86.58 7.85 97.92 -3.49 97.92 -3.49 103.41 7.85 103.41 7.85 114.75 13.34 114.75 13.34 103.41 24.67 103.41 24.67 97.92"/><polygon class="cls-3" points="24.9 98.14 13.56 98.14 13.56 86.8 8.07 86.8 8.07 98.14 -3.26 98.14 -3.26 103.64 8.07 103.64 8.07 114.97 13.56 114.97 13.56 103.64 24.9 103.64 24.9 98.14"/><polygon class="cls-3" points="25.13 98.37 13.79 98.37 13.79 87.03 8.3 87.03 8.3 98.37 -3.04 98.37 -3.04 103.86 8.3 103.86 8.3 115.19 13.79 115.19 13.79 103.86 25.13 103.86 25.13 98.37"/><polygon class="cls-3" points="25.35 98.59 14.01 98.59 14.01 87.25 8.52 87.25 8.52 98.59 -2.81 98.59 -2.81 104.09 8.52 104.09 8.52 115.42 14.01 115.42 14.01 104.09 25.35 104.09 25.35 98.59"/><polygon class="cls-3" points="25.57 98.82 14.24 98.82 14.24 87.48 8.75 87.48 8.75 98.82 -2.59 98.82 -2.59 104.31 8.75 104.31 8.75 115.64 14.24 115.64 14.24 104.31 25.57 104.31 25.57 98.82"/><polygon class="cls-3" points="25.8 99.04 14.46 99.04 14.46 87.7 8.97 87.7 8.97 99.04 -2.36 99.04 -2.36 104.54 8.97 104.54 8.97 115.87 14.46 115.87 14.46 104.54 25.8 104.54 25.8 99.04"/><polygon class="cls-3" points="26.02 99.27 14.69 99.27 14.69 87.93 9.2 87.93 9.2 99.27 -2.14 99.27 -2.14 104.76 9.2 104.76 9.2 116.09 14.69 116.09 14.69 104.76 26.02 104.76 26.02 99.27"/><polygon class="cls-3" points="26.25 99.49 14.91 99.49 14.91 88.16 9.42 88.16 9.42 99.49 -1.91 99.49 -1.91 104.99 9.42 104.99 9.42 116.32 14.91 116.32 14.91 104.99 26.25 104.99 26.25 99.49"/><polygon class="cls-3" points="26.48 99.72 15.14 99.72 15.14 88.38 9.65 88.38 9.65 99.72 -1.69 99.72 -1.69 105.21 9.65 105.21 9.65 116.55 15.14 116.55 15.14 105.21 26.48 105.21 26.48 99.72"/><polygon class="cls-3" points="26.7 99.94 15.37 99.94 15.37 88.61 9.87 88.61 9.87 99.94 -1.46 99.94 -1.46 105.44 9.87 105.44 9.87 116.77 15.37 116.77 15.37 105.44 26.7 105.44 26.7 99.94"/><polygon class="cls-3" points="26.93 100.17 15.59 100.17 15.59 88.83 10.1 88.83 10.1 100.17 -1.24 100.17 -1.24 105.66 10.1 105.66 10.1 117 15.59 117 15.59 105.66 26.93 105.66 26.93 100.17"/><polygon class="cls-3" points="27.15 100.39 15.81 100.39 15.81 89.06 10.32 89.06 10.32 100.39 -1.01 100.39 -1.01 105.89 10.32 105.89 10.32 117.22 15.81 117.22 15.81 105.89 27.15 105.89 27.15 100.39"/><polygon class="cls-3" points="27.38 100.62 16.04 100.62 16.04 89.28 10.55 89.28 10.55 100.62 -0.79 100.62 -0.79 106.11 10.55 106.11 10.55 117.45 16.04 117.45 16.04 106.11 27.38 106.11 27.38 100.62"/><polygon class="cls-3" points="27.6 100.84 16.27 100.84 16.27 89.5 10.77 89.5 10.77 100.84 -0.56 100.84 -0.56 106.34 10.77 106.34 10.77 117.67 16.27 117.67 16.27 106.34 27.6 106.34 27.6 100.84"/><polygon class="cls-3" points="27.83 101.07 16.49 101.07 16.49 89.73 11 89.73 11 101.07 -0.34 101.07 -0.34 106.56 11 106.56 11 117.9 16.49 117.9 16.49 106.56 27.83 106.56 27.83 101.07"/><polygon class="cls-3" points="28.05 101.29 16.71 101.29 16.71 89.95 11.22 89.95 11.22 101.29 -0.11 101.29 -0.11 106.79 11.22 106.79 11.22 118.12 16.71 118.12 16.71 106.79 28.05 106.79 28.05 101.29"/><polygon class="cls-3" points="28.28 101.52 16.94 101.52 16.94 90.18 11.45 90.18 11.45 101.52 0.11 101.52 0.11 107.01 11.45 107.01 11.45 118.35 16.94 118.35 16.94 107.01 28.28 107.01 28.28 101.52"/><polygon class="cls-3" points="28.5 101.74 17.16 101.74 17.16 90.41 11.67 90.41 11.67 101.74 0.34 101.74 0.34 107.24 11.67 107.24 11.67 118.57 17.16 118.57 17.16 107.24 28.5 107.24 28.5 101.74"/><polygon class="cls-3" points="28.73 101.97 17.39 101.97 17.39 90.63 11.9 90.63 11.9 101.97 0.56 101.97 0.56 107.46 11.9 107.46 11.9 118.8 17.39 118.8 17.39 107.46 28.73 107.46 28.73 101.97"/><polygon class="cls-3" points="28.95 102.19 17.61 102.19 17.61 90.86 12.12 90.86 12.12 102.19 0.79 102.19 0.79 107.69 12.12 107.69 12.12 119.02 17.61 119.02 17.61 107.69 28.95 107.69 28.95 102.19"/><polygon class="cls-3" points="29.18 102.42 17.84 102.42 17.84 91.08 12.35 91.08 12.35 102.42 1.01 102.42 1.01 107.91 12.35 107.91 12.35 119.25 17.84 119.25 17.84 107.91 29.18 107.91 29.18 102.42"/><path class="cls-3" d="M-24.09,125.26c2.84-.11,5.4-1,7.11-3.07A8.54,8.54,0,0,0-15.22,118a24.89,24.89,0,0,0,.24-3.64,28.73,28.73,0,0,0-3.27-12.88,14,14,0,0,0-4-5.07,9.67,9.67,0,0,0-5.87-2A8.81,8.81,0,0,0-35.46,98a12.58,12.58,0,0,0-2.35,8,25.71,25.71,0,0,0,3.43,12.2,16.34,16.34,0,0,0,4.29,5A9.44,9.44,0,0,0-24.09,125.26ZM-13.2,94.74a12.9,12.9,0,0,1,2.29,1.84,18.36,18.36,0,0,1,2.39,3.11,18.26,18.26,0,0,1,2,4.11,17.26,17.26,0,0,1,.71,5.53,16,16,0,0,1-2.56,9.28,24.34,24.34,0,0,1-2.56,3.11c-1,1-2.1,1.87-3.18,2.9a14.1,14.1,0,0,0-1.79,2.27,5.24,5.24,0,0,0-1,3.05,4.16,4.16,0,0,0,1,2.79c.58.69,1.11,1.32,1.63,1.85l3.67,3a34.38,34.38,0,0,1,6,6.16,15.1,15.1,0,0,1,2.53,9c.05,5.24-2.31,9.87-6.94,13.92-4.79,4.18-11.71,6.45-20.75,6.48-7.57,0-13.16-1.75-17-4.84s-5.65-6.47-5.65-10.57A15.41,15.41,0,0,1-50.51,151a15.71,15.71,0,0,1,6.46-6.47,31.71,31.71,0,0,1,11-4,73.72,73.72,0,0,1,9.5-.95,30.49,30.49,0,0,1-2.08-3.29,8,8,0,0,1-1.06-4.08,6.56,6.56,0,0,1,.4-2.39c.26-.67.46-1.29.66-1.85a29.39,29.39,0,0,1-3.47.21c-5.75,0-10-2-13.15-5.43A16.76,16.76,0,0,1-47,111.24,18.82,18.82,0,0,1-40.26,96.8a21.07,21.07,0,0,1,9.57-5,42.87,42.87,0,0,1,9.21-1H.13l-6.67,3.9ZM-9,156.93a10.17,10.17,0,0,0-2.68-7.17,58.86,58.86,0,0,0-8.88-7.12c-.69-.07-1.5,0-2.43-.1a25.39,25.39,0,0,0-4.23.21,33,33,0,0,0-6.86,1.53c-.56.19-1.33.52-2.32,1a12.62,12.62,0,0,0-3,2A11.42,11.42,0,0,0-42,150.45a10.05,10.05,0,0,0-1.19,5c0,3.8,1.74,6.88,5.15,9.38a21.18,21.18,0,0,0,13.42,3.8c5.09-.14,9-1.19,11.66-3.37A10.2,10.2,0,0,0-9,156.93Z"/><polygon class="cls-3" points="29.4 102.64 18.07 102.64 18.07 91.31 12.57 91.31 12.57 102.64 1.24 102.64 1.24 108.14 12.57 108.14 12.57 119.47 18.07 119.47 18.07 108.14 29.4 108.14 29.4 102.64"/><path class="cls-3" d="M-23.87,125.49c2.84-.11,5.4-1,7.11-3.07A8.54,8.54,0,0,0-15,118.2a24.89,24.89,0,0,0,.24-3.64A28.73,28.73,0,0,0-18,101.67a14,14,0,0,0-4-5.07,9.67,9.67,0,0,0-5.87-2,8.81,8.81,0,0,0-7.3,3.54,12.58,12.58,0,0,0-2.35,8,25.71,25.71,0,0,0,3.43,12.2,16.34,16.34,0,0,0,4.29,5A9.44,9.44,0,0,0-23.87,125.49ZM-13,95a12.9,12.9,0,0,1,2.29,1.84A18.36,18.36,0,0,1-8.3,99.92a18.26,18.26,0,0,1,2,4.11,17.26,17.26,0,0,1,.71,5.53,16,16,0,0,1-2.56,9.28,24.34,24.34,0,0,1-2.56,3.11c-1,1-2.1,1.87-3.18,2.9a14.1,14.1,0,0,0-1.79,2.27,5.24,5.24,0,0,0-1,3.05,4.16,4.16,0,0,0,1,2.79c.58.69,1.11,1.32,1.63,1.85l3.67,3a34.38,34.38,0,0,1,6,6.16,15.1,15.1,0,0,1,2.53,9c.05,5.24-2.31,9.87-6.94,13.92-4.79,4.18-11.71,6.45-20.75,6.48-7.57,0-13.16-1.75-17-4.84s-5.65-6.47-5.65-10.57a15.41,15.41,0,0,1,1.84-6.68,15.71,15.71,0,0,1,6.46-6.47,31.71,31.71,0,0,1,11-4,73.72,73.72,0,0,1,9.5-.95,30.49,30.49,0,0,1-2.08-3.29,8,8,0,0,1-1.06-4.08,6.56,6.56,0,0,1,.4-2.39c.26-.67.46-1.29.66-1.85a29.39,29.39,0,0,1-3.47.21c-5.75,0-10-2-13.15-5.43a16.76,16.76,0,0,1-4.74-11.54A18.82,18.82,0,0,1-40,97a21.07,21.07,0,0,1,9.57-5,42.87,42.87,0,0,1,9.21-1H.36L-6.32,95Zm4.17,62.19A10.17,10.17,0,0,0-11.49,150a58.86,58.86,0,0,0-8.88-7.12c-.69-.07-1.5,0-2.43-.1A25.39,25.39,0,0,0-27,143a33,33,0,0,0-6.86,1.53c-.56.19-1.33.52-2.32,1a12.62,12.62,0,0,0-3,2,11.42,11.42,0,0,0-2.53,3.27,10.05,10.05,0,0,0-1.19,5c0,3.8,1.74,6.88,5.15,9.38a21.18,21.18,0,0,0,13.42,3.8c5.09-.14,9-1.19,11.66-3.37A10.2,10.2,0,0,0-8.81,157.16Z"/><polygon class="cls-3" points="29.63 102.87 18.29 102.87 18.29 91.53 12.8 91.53 12.8 102.87 1.46 102.87 1.46 108.36 12.8 108.36 12.8 119.7 18.29 119.7 18.29 108.36 29.63 108.36 29.63 102.87"/><path class="cls-3" d="M-23.64,125.71c2.84-.11,5.4-1,7.11-3.07a8.54,8.54,0,0,0,1.76-4.22,24.89,24.89,0,0,0,.24-3.64,28.73,28.73,0,0,0-3.27-12.88,14,14,0,0,0-4-5.07,9.67,9.67,0,0,0-5.87-2A8.81,8.81,0,0,0-35,98.41a12.58,12.58,0,0,0-2.35,8,25.71,25.71,0,0,0,3.43,12.2,16.34,16.34,0,0,0,4.29,5A9.44,9.44,0,0,0-23.64,125.71Zm10.89-30.52A12.9,12.9,0,0,1-10.46,97a18.36,18.36,0,0,1,2.39,3.11,18.26,18.26,0,0,1,2,4.11,17.26,17.26,0,0,1,.71,5.53,16,16,0,0,1-2.56,9.28,24.34,24.34,0,0,1-2.56,3.11c-1,1-2.1,1.87-3.18,2.9a14.1,14.1,0,0,0-1.79,2.27,5.24,5.24,0,0,0-1,3.05,4.16,4.16,0,0,0,1,2.79c.58.69,1.11,1.32,1.63,1.85l3.67,3a34.38,34.38,0,0,1,6,6.16,15.1,15.1,0,0,1,2.53,9c.05,5.24-2.31,9.87-6.94,13.92-4.79,4.18-11.71,6.45-20.75,6.48-7.57,0-13.16-1.75-17-4.84s-5.65-6.47-5.65-10.57a15.41,15.41,0,0,1,1.84-6.68A15.71,15.71,0,0,1-43.6,145a31.71,31.71,0,0,1,11-4,73.72,73.72,0,0,1,9.5-.95,30.49,30.49,0,0,1-2.08-3.29,8,8,0,0,1-1.06-4.08,6.56,6.56,0,0,1,.4-2.39c.26-.67.46-1.29.66-1.85a29.39,29.39,0,0,1-3.47.21c-5.75,0-10-2-13.15-5.43a16.76,16.76,0,0,1-4.74-11.54,18.82,18.82,0,0,1,6.71-14.44,21.07,21.07,0,0,1,9.57-5,42.87,42.87,0,0,1,9.21-1H.58l-6.67,3.9Zm4.17,62.19a10.17,10.17,0,0,0-2.68-7.17,58.86,58.86,0,0,0-8.88-7.12c-.69-.07-1.5,0-2.43-.1a25.39,25.39,0,0,0-4.23.21,33,33,0,0,0-6.86,1.53c-.56.19-1.33.52-2.32,1a12.62,12.62,0,0,0-3,2,11.42,11.42,0,0,0-2.53,3.27,10.05,10.05,0,0,0-1.19,5c0,3.8,1.74,6.88,5.15,9.38A21.18,21.18,0,0,0-24.16,169c5.09-.14,9-1.19,11.66-3.37A10.2,10.2,0,0,0-8.58,157.38Z"/><polygon class="cls-3" points="29.85 103.09 18.52 103.09 18.52 91.76 13.02 91.76 13.02 103.09 1.69 103.09 1.69 108.59 13.02 108.59 13.02 119.92 18.52 119.92 18.52 108.59 29.85 108.59 29.85 103.09"/><path class="cls-3" d="M-23.42,125.94c2.84-.11,5.4-1,7.11-3.07a8.54,8.54,0,0,0,1.76-4.22,24.89,24.89,0,0,0,.24-3.64,28.73,28.73,0,0,0-3.27-12.88,14,14,0,0,0-4-5.07,9.67,9.67,0,0,0-5.87-2,8.81,8.81,0,0,0-7.3,3.54,12.58,12.58,0,0,0-2.35,8,25.71,25.71,0,0,0,3.43,12.2,16.34,16.34,0,0,0,4.29,5A9.44,9.44,0,0,0-23.42,125.94Zm10.89-30.52a12.9,12.9,0,0,1,2.29,1.84,18.36,18.36,0,0,1,2.39,3.11,18.26,18.26,0,0,1,2,4.11A17.26,17.26,0,0,1-5.15,110a16,16,0,0,1-2.56,9.28,24.34,24.34,0,0,1-2.56,3.11c-1,1-2.1,1.87-3.18,2.9a14.1,14.1,0,0,0-1.79,2.27,5.24,5.24,0,0,0-1,3.05,4.16,4.16,0,0,0,1,2.79c.58.69,1.11,1.32,1.63,1.85l3.67,3a34.38,34.38,0,0,1,6,6.16,15.1,15.1,0,0,1,2.53,9c.05,5.24-2.31,9.87-6.94,13.92-4.79,4.18-11.71,6.45-20.75,6.48-7.57,0-13.16-1.75-17-4.84s-5.65-6.47-5.65-10.57a15.41,15.41,0,0,1,1.84-6.68,15.71,15.71,0,0,1,6.46-6.47,31.71,31.71,0,0,1,11-4,73.72,73.72,0,0,1,9.5-.95A30.49,30.49,0,0,1-24.93,137,8,8,0,0,1-26,132.91a6.56,6.56,0,0,1,.4-2.39c.26-.67.46-1.29.66-1.85a29.39,29.39,0,0,1-3.47.21c-5.75,0-10-2-13.15-5.43a16.76,16.76,0,0,1-4.74-11.54,18.82,18.82,0,0,1,6.71-14.44,21.07,21.07,0,0,1,9.57-5,42.87,42.87,0,0,1,9.21-1H.81l-6.67,3.9Zm4.17,62.19A10.17,10.17,0,0,0-11,150.44a58.86,58.86,0,0,0-8.88-7.12c-.69-.07-1.5,0-2.43-.1a25.39,25.39,0,0,0-4.23.21A33,33,0,0,0-33.43,145c-.56.19-1.33.52-2.32,1a12.62,12.62,0,0,0-3,2,11.42,11.42,0,0,0-2.53,3.27,10.05,10.05,0,0,0-1.19,5c0,3.8,1.74,6.88,5.15,9.38a21.18,21.18,0,0,0,13.42,3.8c5.09-.14,9-1.19,11.66-3.37A10.2,10.2,0,0,0-8.36,157.61Z"/><polygon class="cls-3" points="30.08 103.32 18.74 103.32 18.74 91.98 13.25 91.98 13.25 103.32 1.91 103.32 1.91 108.81 13.25 108.81 13.25 120.15 18.74 120.15 18.74 108.81 30.08 108.81 30.08 103.32"/><path class="cls-3" d="M-23.19,126.16c2.84-.11,5.4-1,7.11-3.07a8.54,8.54,0,0,0,1.76-4.22,24.89,24.89,0,0,0,.24-3.64,28.73,28.73,0,0,0-3.27-12.88,14,14,0,0,0-4-5.07,9.67,9.67,0,0,0-5.87-2,8.81,8.81,0,0,0-7.3,3.54,12.58,12.58,0,0,0-2.35,8,25.71,25.71,0,0,0,3.43,12.2,16.34,16.34,0,0,0,4.29,5A9.44,9.44,0,0,0-23.19,126.16ZM-12.3,95.64A12.9,12.9,0,0,1-10,97.48a18.36,18.36,0,0,1,2.39,3.11,18.26,18.26,0,0,1,2,4.11,17.26,17.26,0,0,1,.71,5.53,16,16,0,0,1-2.56,9.28A24.34,24.34,0,0,1-10,122.62c-1,1-2.1,1.87-3.18,2.9A14.1,14.1,0,0,0-15,127.79a5.24,5.24,0,0,0-1,3.05,4.16,4.16,0,0,0,1,2.79c.58.69,1.11,1.32,1.63,1.85l3.67,3a34.38,34.38,0,0,1,6,6.16,15.1,15.1,0,0,1,2.53,9c.05,5.24-2.31,9.87-6.94,13.92-4.79,4.18-11.71,6.45-20.75,6.48-7.57,0-13.16-1.75-17-4.84s-5.65-6.47-5.65-10.57a15.41,15.41,0,0,1,1.84-6.68,15.71,15.71,0,0,1,6.46-6.47,31.71,31.71,0,0,1,11-4,73.72,73.72,0,0,1,9.5-.95,30.49,30.49,0,0,1-2.08-3.29,8,8,0,0,1-1.06-4.08,6.56,6.56,0,0,1,.4-2.39c.26-.67.46-1.29.66-1.85a29.39,29.39,0,0,1-3.47.21c-5.75,0-10-2-13.15-5.43a16.76,16.76,0,0,1-4.74-11.54A18.82,18.82,0,0,1-39.36,97.7a21.07,21.07,0,0,1,9.57-5,42.87,42.87,0,0,1,9.21-1H1l-6.67,3.9Zm4.17,62.19a10.17,10.17,0,0,0-2.68-7.17,58.86,58.86,0,0,0-8.88-7.12c-.69-.07-1.5,0-2.43-.1a25.39,25.39,0,0,0-4.23.21,33,33,0,0,0-6.86,1.53c-.56.19-1.33.52-2.32,1a12.62,12.62,0,0,0-3,2,11.42,11.42,0,0,0-2.53,3.27,10.05,10.05,0,0,0-1.19,5c0,3.8,1.74,6.88,5.15,9.38a21.18,21.18,0,0,0,13.42,3.8c5.09-.14,9-1.19,11.66-3.37A10.2,10.2,0,0,0-8.13,157.83Z"/><polygon class="cls-3" points="30.3 103.55 18.97 103.55 18.97 92.21 13.47 92.21 13.47 103.55 2.14 103.55 2.14 109.04 13.47 109.04 13.47 120.37 18.97 120.37 18.97 109.04 30.3 109.04 30.3 103.55"/><path class="cls-3" d="M-23,126.39c2.84-.11,5.4-1,7.11-3.07a8.54,8.54,0,0,0,1.76-4.22,24.89,24.89,0,0,0,.24-3.64,28.73,28.73,0,0,0-3.27-12.88,14,14,0,0,0-4-5.07,9.67,9.67,0,0,0-5.87-2,8.81,8.81,0,0,0-7.3,3.54,12.58,12.58,0,0,0-2.35,8,25.71,25.71,0,0,0,3.43,12.2,16.34,16.34,0,0,0,4.29,5A9.44,9.44,0,0,0-23,126.39Zm10.89-30.52a12.9,12.9,0,0,1,2.29,1.84,18.36,18.36,0,0,1,2.39,3.11,18.26,18.26,0,0,1,2,4.11,17.26,17.26,0,0,1,.71,5.53,16,16,0,0,1-2.56,9.28,24.34,24.34,0,0,1-2.56,3.11c-1,1-2.1,1.87-3.18,2.9A14.1,14.1,0,0,0-14.78,128a5.24,5.24,0,0,0-1,3.05,4.16,4.16,0,0,0,1,2.79c.58.69,1.11,1.32,1.63,1.85l3.67,3a34.38,34.38,0,0,1,6,6.16,15.1,15.1,0,0,1,2.53,9c.05,5.24-2.31,9.87-6.94,13.92-4.79,4.18-11.71,6.45-20.75,6.48-7.57,0-13.16-1.75-17-4.84s-5.65-6.47-5.65-10.57a15.41,15.41,0,0,1,1.84-6.68,15.71,15.71,0,0,1,6.46-6.47,31.71,31.71,0,0,1,11-4,73.72,73.72,0,0,1,9.5-.95,30.49,30.49,0,0,1-2.08-3.29,8,8,0,0,1-1.06-4.08,6.56,6.56,0,0,1,.4-2.39c.26-.67.46-1.29.66-1.85a29.39,29.39,0,0,1-3.47.21c-5.75,0-10-2-13.15-5.43a16.76,16.76,0,0,1-4.74-11.54,18.82,18.82,0,0,1,6.71-14.44,21.07,21.07,0,0,1,9.57-5,42.87,42.87,0,0,1,9.21-1H1.26l-6.67,3.9Zm4.17,62.19a10.17,10.17,0,0,0-2.68-7.17,58.86,58.86,0,0,0-8.88-7.12c-.69-.07-1.5,0-2.43-.1a25.39,25.39,0,0,0-4.23.21A33,33,0,0,0-33,145.41c-.56.19-1.33.52-2.32,1a12.62,12.62,0,0,0-3,2,11.42,11.42,0,0,0-2.53,3.27,10.05,10.05,0,0,0-1.19,5c0,3.8,1.74,6.88,5.15,9.38a21.18,21.18,0,0,0,13.42,3.8c5.09-.14,9-1.19,11.66-3.37A10.2,10.2,0,0,0-7.9,158.06Z"/><polygon class="cls-3" points="30.53 103.77 19.19 103.77 19.19 92.43 13.7 92.43 13.7 103.77 2.36 103.77 2.36 109.26 13.7 109.26 13.7 120.6 19.19 120.6 19.19 109.26 30.53 109.26 30.53 103.77"/><path class="cls-3" d="M-22.74,126.61c2.84-.11,5.4-1,7.11-3.07a8.54,8.54,0,0,0,1.76-4.22,24.89,24.89,0,0,0,.24-3.64,28.73,28.73,0,0,0-3.27-12.88,14,14,0,0,0-4-5.07,9.67,9.67,0,0,0-5.87-2,8.81,8.81,0,0,0-7.3,3.54,12.58,12.58,0,0,0-2.35,8A25.71,25.71,0,0,0-33,119.54a16.34,16.34,0,0,0,4.29,5A9.44,9.44,0,0,0-22.74,126.61Zm10.89-30.52a12.9,12.9,0,0,1,2.29,1.84A18.36,18.36,0,0,1-7.17,101a18.26,18.26,0,0,1,2,4.11,17.26,17.26,0,0,1,.71,5.53A16,16,0,0,1-7,120a24.34,24.34,0,0,1-2.56,3.11c-1,1-2.1,1.87-3.18,2.9a14.1,14.1,0,0,0-1.79,2.27,5.24,5.24,0,0,0-1,3.05,4.16,4.16,0,0,0,1,2.79c.58.69,1.11,1.32,1.63,1.85l3.67,3a34.38,34.38,0,0,1,6,6.16,15.1,15.1,0,0,1,2.53,9C-.66,159.29-3,163.93-7.65,168c-4.79,4.18-11.71,6.45-20.75,6.48-7.57,0-13.16-1.75-17-4.84S-51,163.15-51,159a15.41,15.41,0,0,1,1.84-6.68,15.71,15.71,0,0,1,6.46-6.47,31.71,31.71,0,0,1,11-4,73.72,73.72,0,0,1,9.5-.95,30.49,30.49,0,0,1-2.08-3.29,8,8,0,0,1-1.06-4.08,6.56,6.56,0,0,1,.4-2.39c.26-.67.46-1.29.66-1.85a29.39,29.39,0,0,1-3.47.21c-5.75,0-10-2-13.15-5.43a16.76,16.76,0,0,1-4.74-11.54,18.82,18.82,0,0,1,6.71-14.44,21.07,21.07,0,0,1,9.57-5,42.87,42.87,0,0,1,9.21-1H1.48l-6.67,3.9Zm4.17,62.19a10.17,10.17,0,0,0-2.68-7.17A58.86,58.86,0,0,0-19.24,144c-.69-.07-1.5,0-2.43-.1a25.39,25.39,0,0,0-4.23.21,33,33,0,0,0-6.86,1.53c-.56.19-1.33.52-2.32,1a12.62,12.62,0,0,0-3,2,11.42,11.42,0,0,0-2.53,3.27,10.05,10.05,0,0,0-1.19,5c0,3.8,1.74,6.88,5.15,9.38a21.18,21.18,0,0,0,13.42,3.8c5.09-.14,9-1.19,11.66-3.37A10.2,10.2,0,0,0-7.68,158.28Z"/><polygon class="cls-3" points="30.75 104 19.42 104 19.42 92.66 13.92 92.66 13.92 104 2.59 104 2.59 109.49 13.92 109.49 13.92 120.82 19.42 120.82 19.42 109.49 30.75 109.49 30.75 104"/><path class="cls-3" d="M-22.52,126.84c2.84-.11,5.4-1,7.11-3.07a8.54,8.54,0,0,0,1.76-4.22,24.89,24.89,0,0,0,.24-3.64A28.73,28.73,0,0,0-16.68,103a14,14,0,0,0-4-5.07,9.67,9.67,0,0,0-5.87-2,8.81,8.81,0,0,0-7.3,3.54,12.58,12.58,0,0,0-2.35,8,25.71,25.71,0,0,0,3.43,12.2,16.34,16.34,0,0,0,4.29,5A9.44,9.44,0,0,0-22.52,126.84Zm10.89-30.52a12.9,12.9,0,0,1,2.29,1.84,18.36,18.36,0,0,1,2.39,3.11,18.26,18.26,0,0,1,2,4.11,17.26,17.26,0,0,1,.71,5.53,16,16,0,0,1-2.56,9.28,24.34,24.34,0,0,1-2.56,3.11c-1,1-2.1,1.87-3.18,2.9a14.1,14.1,0,0,0-1.79,2.27,5.24,5.24,0,0,0-1,3.05,4.16,4.16,0,0,0,1,2.79c.58.69,1.11,1.32,1.63,1.85l3.67,3a34.38,34.38,0,0,1,6,6.16,15.1,15.1,0,0,1,2.53,9c.05,5.24-2.31,9.87-6.94,13.92-4.79,4.18-11.71,6.45-20.75,6.48-7.57,0-13.16-1.75-17-4.84s-5.65-6.47-5.65-10.57a15.41,15.41,0,0,1,1.84-6.68,15.71,15.71,0,0,1,6.46-6.47,31.71,31.71,0,0,1,11-4,73.72,73.72,0,0,1,9.5-.95A30.49,30.49,0,0,1-24,137.89a8,8,0,0,1-1.06-4.08,6.56,6.56,0,0,1,.4-2.39c.26-.67.46-1.29.66-1.85a29.39,29.39,0,0,1-3.47.21c-5.75,0-10-2-13.15-5.43a16.76,16.76,0,0,1-4.74-11.54,18.82,18.82,0,0,1,6.71-14.44,21.07,21.07,0,0,1,9.57-5,42.87,42.87,0,0,1,9.21-1H1.71L-5,96.32Zm4.17,62.19a10.17,10.17,0,0,0-2.68-7.17A58.86,58.86,0,0,0-19,144.22c-.69-.07-1.5,0-2.43-.1a25.39,25.39,0,0,0-4.23.21,33,33,0,0,0-6.86,1.53c-.56.19-1.33.52-2.32,1a12.62,12.62,0,0,0-3,2A11.42,11.42,0,0,0-40.42,152a10.05,10.05,0,0,0-1.19,5c0,3.8,1.74,6.88,5.15,9.38A21.18,21.18,0,0,0-23,170.16c5.09-.14,9-1.19,11.66-3.37A10.2,10.2,0,0,0-7.45,158.51Z"/><polygon class="cls-3" points="30.98 104.22 19.64 104.22 19.64 92.88 14.15 92.88 14.15 104.22 2.81 104.22 2.81 109.71 14.15 109.71 14.15 121.05 19.64 121.05 19.64 109.71 30.98 109.71 30.98 104.22"/><path class="cls-3" d="M-22.29,127.06c2.84-.11,5.4-1,7.11-3.07a8.54,8.54,0,0,0,1.76-4.22,24.89,24.89,0,0,0,.24-3.64,28.73,28.73,0,0,0-3.27-12.88,14,14,0,0,0-4-5.07,9.67,9.67,0,0,0-5.87-2,8.81,8.81,0,0,0-7.3,3.54,12.58,12.58,0,0,0-2.35,8A25.71,25.71,0,0,0-32.58,120a16.34,16.34,0,0,0,4.29,5A9.44,9.44,0,0,0-22.29,127.06ZM-11.4,96.54a12.9,12.9,0,0,1,2.29,1.84,18.36,18.36,0,0,1,2.39,3.11,18.26,18.26,0,0,1,2,4.11A17.26,17.26,0,0,1-4,111.14a16,16,0,0,1-2.56,9.28,24.34,24.34,0,0,1-2.56,3.11c-1,1-2.1,1.87-3.18,2.9a14.1,14.1,0,0,0-1.79,2.27,5.24,5.24,0,0,0-1,3.05,4.16,4.16,0,0,0,1,2.79c.58.69,1.11,1.32,1.63,1.85l3.67,3a34.38,34.38,0,0,1,6,6.16,15.1,15.1,0,0,1,2.53,9c.05,5.24-2.31,9.87-6.94,13.92-4.79,4.18-11.71,6.45-20.75,6.48-7.57,0-13.16-1.75-17-4.84s-5.65-6.47-5.65-10.57a15.41,15.41,0,0,1,1.84-6.68,15.71,15.71,0,0,1,6.46-6.47,31.71,31.71,0,0,1,11-4,73.72,73.72,0,0,1,9.5-.95,30.49,30.49,0,0,1-2.08-3.29A8,8,0,0,1-24.87,134a6.56,6.56,0,0,1,.4-2.39c.26-.67.46-1.29.66-1.85a29.39,29.39,0,0,1-3.47.21c-5.75,0-10-2-13.15-5.43A16.76,16.76,0,0,1-45.17,113,18.82,18.82,0,0,1-38.46,98.6a21.07,21.07,0,0,1,9.57-5,42.87,42.87,0,0,1,9.21-1H1.93l-6.67,3.9Zm4.17,62.19a10.17,10.17,0,0,0-2.68-7.17,58.86,58.86,0,0,0-8.88-7.12c-.69-.07-1.5,0-2.43-.1a25.39,25.39,0,0,0-4.23.21,33,33,0,0,0-6.86,1.53c-.56.19-1.33.52-2.32,1a12.62,12.62,0,0,0-3,2,11.42,11.42,0,0,0-2.53,3.27,10.05,10.05,0,0,0-1.19,5c0,3.8,1.74,6.88,5.15,9.38a21.18,21.18,0,0,0,13.42,3.8c5.09-.14,9-1.19,11.66-3.37A10.2,10.2,0,0,0-7.23,158.73Z"/><polygon class="cls-3" points="31.2 104.44 19.87 104.44 19.87 93.11 14.37 93.11 14.37 104.44 3.04 104.44 3.04 109.94 14.37 109.94 14.37 121.27 19.87 121.27 19.87 109.94 31.2 109.94 31.2 104.44"/><path class="cls-3" d="M-22.07,127.29c2.84-.11,5.4-1,7.11-3.07A8.54,8.54,0,0,0-13.19,120a24.89,24.89,0,0,0,.24-3.64,28.73,28.73,0,0,0-3.27-12.88,14,14,0,0,0-4-5.07,9.67,9.67,0,0,0-5.87-2,8.81,8.81,0,0,0-7.3,3.54,12.58,12.58,0,0,0-2.35,8,25.71,25.71,0,0,0,3.43,12.2,16.34,16.34,0,0,0,4.29,5A9.44,9.44,0,0,0-22.07,127.29Zm10.89-30.52a12.9,12.9,0,0,1,2.29,1.84,18.36,18.36,0,0,1,2.39,3.11,18.26,18.26,0,0,1,2,4.11,17.26,17.26,0,0,1,.71,5.53,16,16,0,0,1-2.56,9.28,24.34,24.34,0,0,1-2.56,3.11c-1,1-2.1,1.87-3.18,2.9a14.1,14.1,0,0,0-1.79,2.27,5.24,5.24,0,0,0-1,3.05,4.16,4.16,0,0,0,1,2.79c.58.69,1.11,1.32,1.63,1.85l3.67,3a34.38,34.38,0,0,1,6,6.16,15.1,15.1,0,0,1,2.53,9C0,160-2.35,164.6-7,168.65c-4.79,4.18-11.71,6.45-20.75,6.48-7.57,0-13.16-1.75-17-4.84s-5.65-6.47-5.65-10.57A15.41,15.41,0,0,1-48.48,153,15.71,15.71,0,0,1-42,146.57a31.71,31.71,0,0,1,11-4,73.72,73.72,0,0,1,9.5-.95,30.49,30.49,0,0,1-2.08-3.29,8,8,0,0,1-1.06-4.08,6.56,6.56,0,0,1,.4-2.39c.26-.67.46-1.29.66-1.85a29.39,29.39,0,0,1-3.47.21c-5.75,0-10-2-13.15-5.43a16.76,16.76,0,0,1-4.74-11.54,18.82,18.82,0,0,1,6.71-14.44,21.07,21.07,0,0,1,9.57-5,42.87,42.87,0,0,1,9.21-1H2.16l-6.67,3.9ZM-7,159a10.17,10.17,0,0,0-2.68-7.17,58.86,58.86,0,0,0-8.88-7.12c-.69-.07-1.5,0-2.43-.1a25.39,25.39,0,0,0-4.23.21,33,33,0,0,0-6.86,1.53c-.56.19-1.33.52-2.32,1a12.62,12.62,0,0,0-3,2A11.42,11.42,0,0,0-40,152.47a10.05,10.05,0,0,0-1.19,5c0,3.8,1.74,6.88,5.15,9.38a21.18,21.18,0,0,0,13.42,3.8c5.09-.14,9-1.19,11.66-3.37A10.2,10.2,0,0,0-7,159Z"/><polygon class="cls-3" points="31.43 104.67 20.09 104.67 20.09 93.33 14.6 93.33 14.6 104.67 3.26 104.67 3.26 110.16 14.6 110.16 14.6 121.5 20.09 121.5 20.09 110.16 31.43 110.16 31.43 104.67"/><path class="cls-3" d="M-21.84,127.51c2.84-.11,5.4-1,7.11-3.07A8.54,8.54,0,0,0-13,120.22a24.89,24.89,0,0,0,.24-3.64A28.73,28.73,0,0,0-16,103.69a14,14,0,0,0-4-5.07,9.67,9.67,0,0,0-5.87-2,8.81,8.81,0,0,0-7.3,3.54,12.58,12.58,0,0,0-2.35,8,25.71,25.71,0,0,0,3.43,12.2,16.34,16.34,0,0,0,4.29,5A9.44,9.44,0,0,0-21.84,127.51ZM-11,97a12.9,12.9,0,0,1,2.29,1.84,18.36,18.36,0,0,1,2.39,3.11,18.26,18.26,0,0,1,2,4.11,17.26,17.26,0,0,1,.71,5.53,16,16,0,0,1-2.56,9.28A24.34,24.34,0,0,1-8.69,124c-1,1-2.1,1.87-3.18,2.9a14.1,14.1,0,0,0-1.79,2.27,5.24,5.24,0,0,0-1,3.05,4.16,4.16,0,0,0,1,2.79c.58.69,1.11,1.32,1.63,1.85l3.67,3a34.38,34.38,0,0,1,6,6.16,15.1,15.1,0,0,1,2.53,9c.05,5.24-2.31,9.87-6.94,13.92-4.79,4.18-11.71,6.45-20.75,6.48-7.57,0-13.16-1.75-17-4.84S-50.1,164-50.1,159.95a15.41,15.41,0,0,1,1.84-6.68,15.71,15.71,0,0,1,6.46-6.47,31.71,31.71,0,0,1,11-4,73.72,73.72,0,0,1,9.5-.95,30.49,30.49,0,0,1-2.08-3.29,8,8,0,0,1-1.06-4.08,6.56,6.56,0,0,1,.4-2.39c.26-.67.46-1.29.66-1.85a29.39,29.39,0,0,1-3.47.21c-5.75,0-10-2-13.15-5.43a16.76,16.76,0,0,1-4.74-11.54A18.82,18.82,0,0,1-38,99a21.07,21.07,0,0,1,9.57-5,42.87,42.87,0,0,1,9.21-1H2.38L-4.29,97Zm4.17,62.19A10.17,10.17,0,0,0-9.46,152a58.86,58.86,0,0,0-8.88-7.12c-.69-.07-1.5,0-2.43-.1A25.39,25.39,0,0,0-25,145a33,33,0,0,0-6.86,1.53c-.56.19-1.33.52-2.32,1a12.62,12.62,0,0,0-3,2,11.42,11.42,0,0,0-2.53,3.27,10.05,10.05,0,0,0-1.19,5c0,3.8,1.74,6.88,5.15,9.38a21.18,21.18,0,0,0,13.42,3.8c5.09-.14,9-1.19,11.66-3.37A10.2,10.2,0,0,0-6.78,159.18Z"/><polygon class="cls-3" points="31.65 104.89 20.32 104.89 20.32 93.56 14.82 93.56 14.82 104.89 3.49 104.89 3.49 110.39 14.82 110.39 14.82 121.72 20.32 121.72 20.32 110.39 31.65 110.39 31.65 104.89"/><path class="cls-3" d="M-21.62,127.74c2.84-.11,5.4-1,7.11-3.07a8.54,8.54,0,0,0,1.76-4.22,24.89,24.89,0,0,0,.24-3.64,28.73,28.73,0,0,0-3.27-12.88,14,14,0,0,0-4-5.07,9.67,9.67,0,0,0-5.87-2,8.81,8.81,0,0,0-7.3,3.54,12.58,12.58,0,0,0-2.35,8,25.71,25.71,0,0,0,3.43,12.2,16.34,16.34,0,0,0,4.29,5A9.44,9.44,0,0,0-21.62,127.74Zm10.89-30.52a12.9,12.9,0,0,1,2.29,1.84A18.36,18.36,0,0,1-6,102.17a18.26,18.26,0,0,1,2,4.11,17.26,17.26,0,0,1,.71,5.53,16,16,0,0,1-2.56,9.28,24.34,24.34,0,0,1-2.56,3.11c-1,1-2.1,1.87-3.18,2.9a14.1,14.1,0,0,0-1.79,2.27,5.24,5.24,0,0,0-1,3.05,4.16,4.16,0,0,0,1,2.79c.58.69,1.11,1.32,1.63,1.85l3.67,3a34.38,34.38,0,0,1,6,6.16,15.1,15.1,0,0,1,2.53,9c.05,5.24-2.31,9.87-6.94,13.92-4.79,4.18-11.71,6.45-20.75,6.48-7.57,0-13.16-1.75-17-4.84s-5.65-6.47-5.65-10.57A15.41,15.41,0,0,1-48,153.49,15.71,15.71,0,0,1-41.58,147a31.71,31.71,0,0,1,11-4,73.72,73.72,0,0,1,9.5-.95,30.49,30.49,0,0,1-2.08-3.29,8,8,0,0,1-1.06-4.08,6.56,6.56,0,0,1,.4-2.39c.26-.67.46-1.29.66-1.85a29.39,29.39,0,0,1-3.47.21c-5.75,0-10-2-13.15-5.43a16.76,16.76,0,0,1-4.74-11.54,18.82,18.82,0,0,1,6.71-14.44,21.07,21.07,0,0,1,9.57-5,42.87,42.87,0,0,1,9.21-1H2.61l-6.67,3.9Zm4.17,62.19a10.17,10.17,0,0,0-2.68-7.17,58.86,58.86,0,0,0-8.88-7.12c-.69-.07-1.5,0-2.43-.1a25.39,25.39,0,0,0-4.23.21,33,33,0,0,0-6.86,1.53c-.56.19-1.33.52-2.32,1a12.62,12.62,0,0,0-3,2,11.42,11.42,0,0,0-2.53,3.27,10.05,10.05,0,0,0-1.19,5c0,3.8,1.74,6.88,5.15,9.38a21.18,21.18,0,0,0,13.42,3.8c5.09-.14,9-1.19,11.66-3.37A10.2,10.2,0,0,0-6.55,159.41Z"/><polygon class="cls-3" points="31.88 105.12 20.54 105.12 20.54 93.78 15.05 93.78 15.05 105.12 3.71 105.12 3.71 110.61 15.05 110.61 15.05 121.95 20.54 121.95 20.54 110.61 31.88 110.61 31.88 105.12"/><path class="cls-3" d="M-21.39,128c2.84-.11,5.4-1,7.11-3.07a8.54,8.54,0,0,0,1.76-4.22,24.89,24.89,0,0,0,.24-3.64,28.73,28.73,0,0,0-3.27-12.88,14,14,0,0,0-4-5.07,9.67,9.67,0,0,0-5.87-2,8.81,8.81,0,0,0-7.3,3.54,12.58,12.58,0,0,0-2.35,8,25.71,25.71,0,0,0,3.43,12.2,16.34,16.34,0,0,0,4.29,5A9.44,9.44,0,0,0-21.39,128ZM-10.5,97.44a12.9,12.9,0,0,1,2.29,1.84,18.36,18.36,0,0,1,2.39,3.11,18.26,18.26,0,0,1,2,4.11A17.26,17.26,0,0,1-3.12,112a16,16,0,0,1-2.56,9.28,24.34,24.34,0,0,1-2.56,3.11c-1,1-2.1,1.87-3.18,2.9a14.1,14.1,0,0,0-1.79,2.27,5.24,5.24,0,0,0-1,3.05,4.16,4.16,0,0,0,1,2.79c.58.69,1.11,1.32,1.63,1.85l3.67,3a34.38,34.38,0,0,1,6,6.16,15.1,15.1,0,0,1,2.53,9c.05,5.24-2.31,9.87-6.94,13.92-4.79,4.18-11.71,6.45-20.75,6.48-7.57,0-13.16-1.75-17-4.84s-5.65-6.47-5.65-10.57a15.41,15.41,0,0,1,1.84-6.68,15.71,15.71,0,0,1,6.46-6.47,31.71,31.71,0,0,1,11-4,73.72,73.72,0,0,1,9.5-.95A30.49,30.49,0,0,1-22.91,139,8,8,0,0,1-24,134.94a6.56,6.56,0,0,1,.4-2.39c.26-.67.46-1.29.66-1.85a29.39,29.39,0,0,1-3.47.21c-5.75,0-10-2-13.15-5.43a16.76,16.76,0,0,1-4.74-11.54A18.82,18.82,0,0,1-37.56,99.5a21.07,21.07,0,0,1,9.57-5,42.87,42.87,0,0,1,9.21-1H2.83l-6.67,3.9Zm4.17,62.19A10.17,10.17,0,0,0-9,152.46a58.86,58.86,0,0,0-8.88-7.12c-.69-.07-1.5,0-2.43-.1a25.39,25.39,0,0,0-4.23.21A33,33,0,0,0-31.41,147c-.56.19-1.33.52-2.32,1a12.62,12.62,0,0,0-3,2,11.42,11.42,0,0,0-2.53,3.27,10.05,10.05,0,0,0-1.19,5c0,3.8,1.74,6.88,5.15,9.38a21.18,21.18,0,0,0,13.42,3.8c5.09-.14,9-1.19,11.66-3.37A10.2,10.2,0,0,0-6.33,159.63Z"/><polygon class="cls-3" points="32.1 105.34 20.77 105.34 20.77 94.01 15.27 94.01 15.27 105.34 3.94 105.34 3.94 110.84 15.27 110.84 15.27 122.17 20.77 122.17 20.77 110.84 32.1 110.84 32.1 105.34"/><path class="cls-3" d="M-21.17,128.19c2.84-.11,5.4-1,7.11-3.07a8.54,8.54,0,0,0,1.76-4.22,24.89,24.89,0,0,0,.24-3.64,28.73,28.73,0,0,0-3.27-12.88,14,14,0,0,0-4-5.07,9.67,9.67,0,0,0-5.87-2,8.81,8.81,0,0,0-7.3,3.54,12.58,12.58,0,0,0-2.35,8,25.71,25.71,0,0,0,3.43,12.2,16.34,16.34,0,0,0,4.29,5A9.44,9.44,0,0,0-21.17,128.19Zm10.89-30.52A12.9,12.9,0,0,1-8,99.51a18.36,18.36,0,0,1,2.39,3.11,18.26,18.26,0,0,1,2,4.11,17.26,17.26,0,0,1,.71,5.53,16,16,0,0,1-2.56,9.28A24.34,24.34,0,0,1-8,124.65c-1,1-2.1,1.87-3.18,2.9A14.1,14.1,0,0,0-13,129.81a5.24,5.24,0,0,0-1,3.05,4.16,4.16,0,0,0,1,2.79c.58.69,1.11,1.32,1.63,1.85l3.67,3a34.38,34.38,0,0,1,6,6.16,15.1,15.1,0,0,1,2.53,9c.05,5.24-2.31,9.87-6.94,13.92-4.79,4.18-11.71,6.45-20.75,6.48-7.57,0-13.16-1.75-17-4.84s-5.65-6.47-5.65-10.57a15.41,15.41,0,0,1,1.84-6.68,15.71,15.71,0,0,1,6.46-6.47,31.71,31.71,0,0,1,11-4,73.72,73.72,0,0,1,9.5-.95,30.49,30.49,0,0,1-2.08-3.29,8,8,0,0,1-1.06-4.08,6.56,6.56,0,0,1,.4-2.39c.26-.67.46-1.29.66-1.85a29.39,29.39,0,0,1-3.47.21c-5.75,0-10-2-13.15-5.43A16.76,16.76,0,0,1-44,114.17a18.82,18.82,0,0,1,6.71-14.44,21.07,21.07,0,0,1,9.57-5,42.87,42.87,0,0,1,9.21-1H3.06l-6.67,3.9Zm4.17,62.19a10.17,10.17,0,0,0-2.68-7.17,58.86,58.86,0,0,0-8.88-7.12c-.69-.07-1.5,0-2.43-.1a25.39,25.39,0,0,0-4.23.21,33,33,0,0,0-6.86,1.53c-.56.19-1.33.52-2.32,1a12.62,12.62,0,0,0-3,2,11.42,11.42,0,0,0-2.53,3.27,10.05,10.05,0,0,0-1.19,5c0,3.8,1.74,6.88,5.15,9.38a21.18,21.18,0,0,0,13.42,3.8c5.09-.14,9-1.19,11.66-3.37A10.2,10.2,0,0,0-6.1,159.86Z"/><polygon class="cls-3" points="32.33 105.57 20.99 105.57 20.99 94.23 15.5 94.23 15.5 105.57 4.17 105.57 4.17 111.06 15.5 111.06 15.5 122.4 20.99 122.4 20.99 111.06 32.33 111.06 32.33 105.57"/><path class="cls-3" d="M-20.94,128.41c2.84-.11,5.4-1,7.11-3.07a8.54,8.54,0,0,0,1.76-4.22,24.89,24.89,0,0,0,.24-3.64A28.73,28.73,0,0,0-15.1,104.6a14,14,0,0,0-4-5.07,9.67,9.67,0,0,0-5.87-2,8.81,8.81,0,0,0-7.3,3.54,12.58,12.58,0,0,0-2.35,8,25.71,25.71,0,0,0,3.43,12.2,16.34,16.34,0,0,0,4.29,5A9.44,9.44,0,0,0-20.94,128.41Zm10.89-30.52a12.9,12.9,0,0,1,2.29,1.84,18.36,18.36,0,0,1,2.39,3.11,18.26,18.26,0,0,1,2,4.11,17.26,17.26,0,0,1,.71,5.53,16,16,0,0,1-2.56,9.28,24.34,24.34,0,0,1-2.56,3.11c-1,1-2.1,1.87-3.18,2.9A14.1,14.1,0,0,0-12.76,130a5.24,5.24,0,0,0-1,3.05,4.16,4.16,0,0,0,1,2.79c.58.69,1.11,1.32,1.63,1.85l3.67,3a34.38,34.38,0,0,1,6,6.16,15.1,15.1,0,0,1,2.53,9c.05,5.24-2.31,9.87-6.94,13.92-4.79,4.18-11.71,6.45-20.75,6.48-7.57,0-13.16-1.75-17-4.84s-5.65-6.47-5.65-10.57a15.41,15.41,0,0,1,1.84-6.68,15.71,15.71,0,0,1,6.46-6.47,31.71,31.71,0,0,1,11-4,73.72,73.72,0,0,1,9.5-.95,30.49,30.49,0,0,1-2.08-3.29,8,8,0,0,1-1.06-4.08,6.56,6.56,0,0,1,.4-2.39c.26-.67.46-1.29.66-1.85a29.39,29.39,0,0,1-3.47.21c-5.75,0-10-2-13.15-5.43a16.76,16.76,0,0,1-4.74-11.54,18.82,18.82,0,0,1,6.71-14.44,21.07,21.07,0,0,1,9.57-5,42.87,42.87,0,0,1,9.21-1H3.28l-6.67,3.9Zm4.17,62.19a10.17,10.17,0,0,0-2.68-7.17,58.86,58.86,0,0,0-8.88-7.12c-.69-.07-1.5,0-2.43-.1a25.39,25.39,0,0,0-4.23.21A33,33,0,0,0-31,147.43c-.56.19-1.33.52-2.32,1a12.62,12.62,0,0,0-3,2,11.42,11.42,0,0,0-2.53,3.27,10.05,10.05,0,0,0-1.19,5c0,3.8,1.74,6.88,5.15,9.38a21.18,21.18,0,0,0,13.42,3.8c5.09-.14,9-1.19,11.66-3.37A10.2,10.2,0,0,0-5.88,160.08Z"/><polygon class="cls-3" points="32.55 105.8 21.22 105.8 21.22 94.46 15.72 94.46 15.72 105.8 4.39 105.8 4.39 111.29 15.72 111.29 15.72 122.62 21.22 122.62 21.22 111.29 32.55 111.29 32.55 105.8"/><path class="cls-3" d="M-20.72,128.64c2.84-.11,5.4-1,7.11-3.07a8.54,8.54,0,0,0,1.76-4.22,24.89,24.89,0,0,0,.24-3.64,28.73,28.73,0,0,0-3.27-12.88,14,14,0,0,0-4-5.07,9.67,9.67,0,0,0-5.87-2,8.81,8.81,0,0,0-7.3,3.54,12.58,12.58,0,0,0-2.35,8A25.71,25.71,0,0,0-31,121.56a16.34,16.34,0,0,0,4.29,5A9.44,9.44,0,0,0-20.72,128.64ZM-9.82,98.12A12.9,12.9,0,0,1-7.54,100a18.36,18.36,0,0,1,2.39,3.11,18.26,18.26,0,0,1,2,4.11,17.26,17.26,0,0,1,.71,5.53A16,16,0,0,1-5,122a24.34,24.34,0,0,1-2.56,3.11c-1,1-2.1,1.87-3.18,2.9a14.1,14.1,0,0,0-1.79,2.27,5.24,5.24,0,0,0-1,3.05,4.16,4.16,0,0,0,1,2.79c.58.69,1.11,1.32,1.63,1.85l3.67,3a34.38,34.38,0,0,1,6,6.16,15.1,15.1,0,0,1,2.53,9C1.36,161.32-1,166-5.63,170c-4.79,4.18-11.71,6.45-20.75,6.48-7.57,0-13.16-1.75-17-4.84S-49,165.17-49,161.07a15.41,15.41,0,0,1,1.84-6.68,15.71,15.71,0,0,1,6.46-6.47,31.71,31.71,0,0,1,11-4,73.72,73.72,0,0,1,9.5-.95,30.49,30.49,0,0,1-2.08-3.29,8,8,0,0,1-1.06-4.08,6.56,6.56,0,0,1,.4-2.39c.26-.67.46-1.29.66-1.85a29.39,29.39,0,0,1-3.47.21c-5.75,0-10-2-13.15-5.43a16.76,16.76,0,0,1-4.74-11.54,18.82,18.82,0,0,1,6.71-14.44,21.07,21.07,0,0,1,9.57-5,42.87,42.87,0,0,1,9.21-1H3.51l-6.67,3.9Zm4.17,62.19a10.17,10.17,0,0,0-2.68-7.17A58.86,58.86,0,0,0-17.21,146c-.69-.07-1.5,0-2.43-.1a25.39,25.39,0,0,0-4.23.21,33,33,0,0,0-6.86,1.53c-.56.19-1.33.52-2.32,1a12.62,12.62,0,0,0-3,2,11.42,11.42,0,0,0-2.53,3.27,10.05,10.05,0,0,0-1.19,5c0,3.8,1.74,6.88,5.15,9.38A21.18,21.18,0,0,0-21.24,172c5.09-.14,9-1.19,11.66-3.37A10.2,10.2,0,0,0-5.65,160.31Z"/><polygon class="cls-3" points="32.78 106.02 21.44 106.02 21.44 94.68 15.95 94.68 15.95 106.02 4.62 106.02 4.62 111.51 15.95 111.51 15.95 122.85 21.44 122.85 21.44 111.51 32.78 111.51 32.78 106.02"/><path class="cls-3" d="M-20.49,128.86c2.84-.11,5.4-1,7.11-3.07a8.54,8.54,0,0,0,1.76-4.22,24.89,24.89,0,0,0,.24-3.64A28.73,28.73,0,0,0-14.65,105a14,14,0,0,0-4-5.07,9.67,9.67,0,0,0-5.87-2,8.81,8.81,0,0,0-7.3,3.54,12.58,12.58,0,0,0-2.35,8,25.71,25.71,0,0,0,3.43,12.2,16.34,16.34,0,0,0,4.29,5A9.44,9.44,0,0,0-20.49,128.86ZM-9.6,98.34a12.9,12.9,0,0,1,2.29,1.84,18.36,18.36,0,0,1,2.39,3.11,18.26,18.26,0,0,1,2,4.11,17.26,17.26,0,0,1,.71,5.53,16,16,0,0,1-2.56,9.28,24.34,24.34,0,0,1-2.56,3.11c-1,1-2.1,1.87-3.18,2.9a14.1,14.1,0,0,0-1.79,2.27,5.24,5.24,0,0,0-1,3.05,4.16,4.16,0,0,0,1,2.79c.58.69,1.11,1.32,1.63,1.85l3.67,3a34.38,34.38,0,0,1,6,6.16,15.1,15.1,0,0,1,2.53,9c.05,5.24-2.31,9.87-6.94,13.92-4.79,4.18-11.71,6.45-20.75,6.48-7.57,0-13.16-1.75-17-4.84s-5.65-6.47-5.65-10.57a15.41,15.41,0,0,1,1.84-6.68,15.71,15.71,0,0,1,6.46-6.47,31.71,31.71,0,0,1,11-4,73.72,73.72,0,0,1,9.5-.95A30.49,30.49,0,0,1-22,139.92a8,8,0,0,1-1.06-4.08,6.56,6.56,0,0,1,.4-2.39c.26-.67.46-1.29.66-1.85a29.39,29.39,0,0,1-3.47.21c-5.75,0-10-2-13.15-5.43a16.76,16.76,0,0,1-4.74-11.54,18.82,18.82,0,0,1,6.71-14.44,21.07,21.07,0,0,1,9.57-5,42.87,42.87,0,0,1,9.21-1H3.73l-6.67,3.9Zm4.17,62.19a10.17,10.17,0,0,0-2.68-7.17A58.86,58.86,0,0,0-17,146.25c-.69-.07-1.5,0-2.43-.1a25.39,25.39,0,0,0-4.23.21,33,33,0,0,0-6.86,1.53c-.56.19-1.33.52-2.32,1a12.62,12.62,0,0,0-3,2,11.42,11.42,0,0,0-2.53,3.27,10.05,10.05,0,0,0-1.19,5c0,3.8,1.74,6.88,5.15,9.38A21.18,21.18,0,0,0-21,172.18c5.09-.14,9-1.19,11.66-3.37A10.2,10.2,0,0,0-5.43,160.53Z"/><polygon class="cls-3" points="33 106.25 21.67 106.25 21.67 94.91 16.17 94.91 16.17 106.25 4.84 106.25 4.84 111.74 16.17 111.74 16.17 123.07 21.67 123.07 21.67 111.74 33 111.74 33 106.25"/><path class="cls-3" d="M-20.27,129.09c2.84-.11,5.4-1,7.11-3.07a8.54,8.54,0,0,0,1.76-4.22,24.89,24.89,0,0,0,.24-3.64,28.73,28.73,0,0,0-3.27-12.88,14,14,0,0,0-4-5.07,9.67,9.67,0,0,0-5.87-2,8.81,8.81,0,0,0-7.3,3.54,12.58,12.58,0,0,0-2.35,8A25.71,25.71,0,0,0-30.56,122a16.34,16.34,0,0,0,4.29,5A9.44,9.44,0,0,0-20.27,129.09ZM-9.37,98.57a12.9,12.9,0,0,1,2.29,1.84,18.36,18.36,0,0,1,2.39,3.11,18.26,18.26,0,0,1,2,4.11A17.26,17.26,0,0,1-2,113.16a16,16,0,0,1-2.56,9.28,24.34,24.34,0,0,1-2.56,3.11c-1,1-2.1,1.87-3.18,2.9a14.1,14.1,0,0,0-1.79,2.27,5.24,5.24,0,0,0-1,3.05,4.16,4.16,0,0,0,1,2.79c.58.69,1.11,1.32,1.63,1.85l3.67,3a34.38,34.38,0,0,1,6,6.16,15.1,15.1,0,0,1,2.53,9c.05,5.24-2.31,9.87-6.94,13.92-4.79,4.18-11.71,6.45-20.75,6.48-7.57,0-13.16-1.75-17-4.84s-5.65-6.47-5.65-10.57a15.41,15.41,0,0,1,1.84-6.68,15.71,15.71,0,0,1,6.46-6.47,31.71,31.71,0,0,1,11-4,73.72,73.72,0,0,1,9.5-.95,30.49,30.49,0,0,1-2.08-3.29,8,8,0,0,1-1.06-4.08,6.56,6.56,0,0,1,.4-2.39c.26-.67.46-1.29.66-1.85a29.39,29.39,0,0,1-3.47.21c-5.75,0-10-2-13.15-5.43a16.76,16.76,0,0,1-4.74-11.54,18.82,18.82,0,0,1,6.71-14.44,21.07,21.07,0,0,1,9.57-5,42.87,42.87,0,0,1,9.21-1H4l-6.67,3.9Zm4.17,62.19a10.17,10.17,0,0,0-2.68-7.17,58.86,58.86,0,0,0-8.88-7.12c-.69-.07-1.5,0-2.43-.1a25.39,25.39,0,0,0-4.23.21,33,33,0,0,0-6.86,1.53c-.56.19-1.33.52-2.32,1a12.62,12.62,0,0,0-3,2,11.42,11.42,0,0,0-2.53,3.27,10.05,10.05,0,0,0-1.19,5c0,3.8,1.74,6.88,5.15,9.38a21.18,21.18,0,0,0,13.42,3.8c5.09-.14,9-1.19,11.66-3.37A10.2,10.2,0,0,0-5.2,160.76Z"/><polygon class="cls-3" points="33.23 106.47 21.89 106.47 21.89 95.13 16.4 95.13 16.4 106.47 5.07 106.47 5.07 111.96 16.4 111.96 16.4 123.3 21.89 123.3 21.89 111.96 33.23 111.96 33.23 106.47"/><path class="cls-3" d="M-20,129.31c2.84-.11,5.4-1,7.11-3.07A8.54,8.54,0,0,0-11.17,122a24.89,24.89,0,0,0,.24-3.64A28.73,28.73,0,0,0-14.2,105.5a14,14,0,0,0-4-5.07,9.67,9.67,0,0,0-5.87-2,8.81,8.81,0,0,0-7.3,3.54,12.58,12.58,0,0,0-2.35,8,25.71,25.71,0,0,0,3.43,12.2,16.34,16.34,0,0,0,4.29,5A9.44,9.44,0,0,0-20,129.31ZM-9.15,98.79a12.9,12.9,0,0,1,2.29,1.84,18.36,18.36,0,0,1,2.39,3.11,18.26,18.26,0,0,1,2,4.11,17.26,17.26,0,0,1,.71,5.53,16,16,0,0,1-2.56,9.28,24.34,24.34,0,0,1-2.56,3.11c-1,1-2.1,1.87-3.18,2.9a14.1,14.1,0,0,0-1.79,2.27,5.24,5.24,0,0,0-1,3.05,4.16,4.16,0,0,0,1,2.79c.58.69,1.11,1.32,1.63,1.85l3.67,3a34.38,34.38,0,0,1,6,6.16,15.1,15.1,0,0,1,2.53,9C2,162-.33,166.63-5,170.68c-4.79,4.18-11.71,6.45-20.75,6.48-7.57,0-13.16-1.75-17-4.84s-5.65-6.47-5.65-10.57a15.41,15.41,0,0,1,1.84-6.68A15.71,15.71,0,0,1-40,148.6a31.71,31.71,0,0,1,11-4,73.72,73.72,0,0,1,9.5-.95,30.49,30.49,0,0,1-2.08-3.29,8,8,0,0,1-1.06-4.08,6.56,6.56,0,0,1,.4-2.39c.26-.67.46-1.29.66-1.85a29.39,29.39,0,0,1-3.47.21c-5.75,0-10-2-13.15-5.43a16.76,16.76,0,0,1-4.74-11.54,18.82,18.82,0,0,1,6.71-14.44,21.07,21.07,0,0,1,9.57-5,42.87,42.87,0,0,1,9.21-1H4.18l-6.67,3.9ZM-5,161a10.17,10.17,0,0,0-2.68-7.17,58.86,58.86,0,0,0-8.88-7.12c-.69-.07-1.5,0-2.43-.1a25.39,25.39,0,0,0-4.23.21,33,33,0,0,0-6.86,1.53c-.56.19-1.33.52-2.32,1a12.62,12.62,0,0,0-3,2,11.42,11.42,0,0,0-2.53,3.27,10.05,10.05,0,0,0-1.19,5c0,3.8,1.74,6.88,5.15,9.38a21.18,21.18,0,0,0,13.42,3.8c5.09-.14,9-1.19,11.66-3.37A10.2,10.2,0,0,0-5,161Z"/><polygon class="cls-3" points="33.45 106.7 22.12 106.7 22.12 95.36 16.62 95.36 16.62 106.7 5.29 106.7 5.29 112.19 16.62 112.19 16.62 123.52 22.12 123.52 22.12 112.19 33.45 112.19 33.45 106.7"/><path class="cls-3" d="M-19.82,129.54c2.84-.11,5.4-1,7.11-3.07a8.54,8.54,0,0,0,1.76-4.22,24.89,24.89,0,0,0,.24-3.64A28.73,28.73,0,0,0-14,105.72a14,14,0,0,0-4-5.07,9.67,9.67,0,0,0-5.87-2,8.81,8.81,0,0,0-7.3,3.54,12.58,12.58,0,0,0-2.35,8,25.71,25.71,0,0,0,3.43,12.2,16.34,16.34,0,0,0,4.29,5A9.44,9.44,0,0,0-19.82,129.54ZM-8.92,99a12.9,12.9,0,0,1,2.29,1.84A18.36,18.36,0,0,1-4.25,104a18.26,18.26,0,0,1,2,4.11,17.26,17.26,0,0,1,.71,5.53,16,16,0,0,1-2.56,9.28A24.34,24.34,0,0,1-6.66,126c-1,1-2.1,1.87-3.18,2.9a14.1,14.1,0,0,0-1.79,2.27,5.24,5.24,0,0,0-1,3.05,4.16,4.16,0,0,0,1,2.79c.58.69,1.11,1.32,1.63,1.85l3.67,3a34.38,34.38,0,0,1,6,6.16,15.1,15.1,0,0,1,2.53,9c.05,5.24-2.31,9.87-6.94,13.92-4.79,4.18-11.71,6.45-20.75,6.48-7.57,0-13.16-1.75-17-4.84s-5.65-6.47-5.65-10.57a15.41,15.41,0,0,1,1.84-6.68,15.71,15.71,0,0,1,6.46-6.47,31.71,31.71,0,0,1,11-4,73.72,73.72,0,0,1,9.5-.95,30.49,30.49,0,0,1-2.08-3.29,8,8,0,0,1-1.06-4.08,6.56,6.56,0,0,1,.4-2.39c.26-.67.46-1.29.66-1.85a29.39,29.39,0,0,1-3.47.21c-5.75,0-10-2-13.15-5.43a16.76,16.76,0,0,1-4.74-11.54A18.82,18.82,0,0,1-36,101.07a21.07,21.07,0,0,1,9.57-5,42.87,42.87,0,0,1,9.21-1H4.41L-2.26,99Zm4.17,62.19A10.17,10.17,0,0,0-7.43,154a58.86,58.86,0,0,0-8.88-7.12c-.69-.07-1.5,0-2.43-.1A25.39,25.39,0,0,0-23,147a33,33,0,0,0-6.86,1.53c-.56.19-1.33.52-2.32,1a12.62,12.62,0,0,0-3,2,11.42,11.42,0,0,0-2.53,3.27,10.05,10.05,0,0,0-1.19,5c0,3.8,1.74,6.88,5.15,9.38a21.18,21.18,0,0,0,13.42,3.8c5.09-.14,9-1.19,11.66-3.37A10.2,10.2,0,0,0-4.75,161.21Z"/><polygon class="cls-3" points="33.68 106.92 22.34 106.92 22.34 95.58 16.85 95.58 16.85 106.92 5.51 106.92 5.51 112.41 16.85 112.41 16.85 123.75 22.34 123.75 22.34 112.41 33.68 112.41 33.68 106.92"/><path class="cls-3" d="M-19.59,129.76c2.84-.11,5.4-1,7.11-3.07a8.54,8.54,0,0,0,1.76-4.22,24.89,24.89,0,0,0,.24-3.64,28.73,28.73,0,0,0-3.27-12.88,14,14,0,0,0-4-5.07,9.67,9.67,0,0,0-5.87-2,8.81,8.81,0,0,0-7.3,3.54,12.58,12.58,0,0,0-2.35,8,25.71,25.71,0,0,0,3.43,12.2,16.34,16.34,0,0,0,4.29,5A9.44,9.44,0,0,0-19.59,129.76ZM-8.7,99.24a12.9,12.9,0,0,1,2.29,1.84A18.36,18.36,0,0,1-4,104.2a18.26,18.26,0,0,1,2,4.11,17.26,17.26,0,0,1,.71,5.53,16,16,0,0,1-2.56,9.28,24.34,24.34,0,0,1-2.56,3.11c-1,1-2.1,1.87-3.18,2.9a14.1,14.1,0,0,0-1.79,2.27,5.24,5.24,0,0,0-1,3.05,4.16,4.16,0,0,0,1,2.79c.58.69,1.11,1.32,1.63,1.85l3.67,3a34.38,34.38,0,0,1,6,6.16,15.1,15.1,0,0,1,2.53,9c.05,5.24-2.31,9.87-6.94,13.92-4.79,4.18-11.71,6.45-20.75,6.48-7.57,0-13.16-1.75-17-4.84s-5.65-6.47-5.65-10.57A15.41,15.41,0,0,1-46,155.51,15.71,15.71,0,0,1-39.55,149a31.71,31.71,0,0,1,11-4,73.72,73.72,0,0,1,9.5-.95,30.49,30.49,0,0,1-2.08-3.29,8,8,0,0,1-1.06-4.08,6.56,6.56,0,0,1,.4-2.39c.26-.67.46-1.29.66-1.85a29.39,29.39,0,0,1-3.47.21c-5.75,0-10-2-13.15-5.43a16.76,16.76,0,0,1-4.74-11.54,18.82,18.82,0,0,1,6.71-14.44,21.07,21.07,0,0,1,9.57-5,42.87,42.87,0,0,1,9.21-1H4.63L-2,99.24Zm4.17,62.19a10.17,10.17,0,0,0-2.68-7.17,58.86,58.86,0,0,0-8.88-7.12c-.69-.07-1.5,0-2.43-.1a25.39,25.39,0,0,0-4.23.21,33,33,0,0,0-6.86,1.53c-.56.19-1.33.52-2.32,1a12.62,12.62,0,0,0-3,2A11.42,11.42,0,0,0-37.5,155a10.05,10.05,0,0,0-1.19,5c0,3.8,1.74,6.88,5.15,9.38a21.18,21.18,0,0,0,13.42,3.8c5.09-.14,9-1.19,11.66-3.37A10.2,10.2,0,0,0-4.53,161.43Z"/><polygon class="cls-3" points="33.9 107.15 22.57 107.15 22.57 95.81 17.07 95.81 17.07 107.15 5.74 107.15 5.74 112.64 17.07 112.64 17.07 123.97 22.57 123.97 22.57 112.64 33.9 112.64 33.9 107.15"/><path class="cls-3" d="M-19.37,130c2.84-.11,5.4-1,7.11-3.07a8.54,8.54,0,0,0,1.76-4.22,24.89,24.89,0,0,0,.24-3.64,28.73,28.73,0,0,0-3.27-12.88,14,14,0,0,0-4-5.07,9.67,9.67,0,0,0-5.87-2,8.81,8.81,0,0,0-7.3,3.54,12.58,12.58,0,0,0-2.35,8,25.71,25.71,0,0,0,3.43,12.2,16.34,16.34,0,0,0,4.29,5A9.44,9.44,0,0,0-19.37,130ZM-8.47,99.47a12.9,12.9,0,0,1,2.29,1.84,18.36,18.36,0,0,1,2.39,3.11,18.26,18.26,0,0,1,2,4.11,17.26,17.26,0,0,1,.71,5.53,16,16,0,0,1-2.56,9.28,24.34,24.34,0,0,1-2.56,3.11c-1,1-2.1,1.87-3.18,2.9a14.1,14.1,0,0,0-1.79,2.27,5.24,5.24,0,0,0-1,3.05,4.16,4.16,0,0,0,1,2.79c.58.69,1.11,1.32,1.63,1.85l3.67,3a34.38,34.38,0,0,1,6,6.16,15.1,15.1,0,0,1,2.53,9c.05,5.24-2.31,9.87-6.94,13.92C-9.06,175.53-16,177.8-25,177.83c-7.57,0-13.16-1.75-17-4.84s-5.65-6.47-5.65-10.57a15.41,15.41,0,0,1,1.84-6.68,15.71,15.71,0,0,1,6.46-6.47,31.71,31.71,0,0,1,11-4,73.72,73.72,0,0,1,9.5-.95A30.49,30.49,0,0,1-20.88,141,8,8,0,0,1-21.95,137a6.56,6.56,0,0,1,.4-2.39c.26-.67.46-1.29.66-1.85a29.39,29.39,0,0,1-3.47.21c-5.75,0-10-2-13.15-5.43A16.76,16.76,0,0,1-42.24,116a18.82,18.82,0,0,1,6.71-14.44,21.07,21.07,0,0,1,9.57-5,42.87,42.87,0,0,1,9.21-1H4.86l-6.67,3.9Zm4.17,62.19A10.17,10.17,0,0,0-7,154.49a58.86,58.86,0,0,0-8.88-7.12c-.69-.07-1.5,0-2.43-.1a25.39,25.39,0,0,0-4.23.21A33,33,0,0,0-29.38,149c-.56.19-1.33.52-2.32,1a12.62,12.62,0,0,0-3,2,11.42,11.42,0,0,0-2.53,3.27,10.05,10.05,0,0,0-1.19,5c0,3.8,1.74,6.88,5.15,9.38a21.18,21.18,0,0,0,13.42,3.8c5.09-.14,9-1.19,11.66-3.37A10.2,10.2,0,0,0-4.3,161.66Z"/><polygon class="cls-3" points="34.13 107.37 22.79 107.37 22.79 96.03 17.3 96.03 17.3 107.37 5.96 107.37 5.96 112.86 17.3 112.86 17.3 124.2 22.79 124.2 22.79 112.86 34.13 112.86 34.13 107.37"/><path class="cls-3" d="M-19.14,130.21c2.84-.11,5.4-1,7.11-3.07a8.54,8.54,0,0,0,1.76-4.22,24.89,24.89,0,0,0,.24-3.64A28.73,28.73,0,0,0-13.3,106.4a14,14,0,0,0-4-5.07,9.67,9.67,0,0,0-5.87-2,8.81,8.81,0,0,0-7.3,3.54,12.58,12.58,0,0,0-2.35,8,25.71,25.71,0,0,0,3.43,12.2,16.34,16.34,0,0,0,4.29,5A9.44,9.44,0,0,0-19.14,130.21ZM-8.25,99.69A12.9,12.9,0,0,1-6,101.54a18.36,18.36,0,0,1,2.39,3.11,18.26,18.26,0,0,1,2,4.11,17.26,17.26,0,0,1,.71,5.53,16,16,0,0,1-2.56,9.28A24.34,24.34,0,0,1-6,126.67c-1,1-2.1,1.87-3.18,2.9A14.1,14.1,0,0,0-11,131.84a5.24,5.24,0,0,0-1,3.05,4.16,4.16,0,0,0,1,2.79c.58.69,1.11,1.32,1.63,1.85l3.67,3a34.38,34.38,0,0,1,6,6.16,15.1,15.1,0,0,1,2.53,9c.05,5.24-2.31,9.87-6.94,13.92-4.79,4.18-11.71,6.45-20.75,6.48-7.57,0-13.16-1.75-17-4.84s-5.65-6.47-5.65-10.57A15.41,15.41,0,0,1-45.56,156a15.71,15.71,0,0,1,6.46-6.47,31.71,31.71,0,0,1,11-4,73.72,73.72,0,0,1,9.5-.95,30.49,30.49,0,0,1-2.08-3.29,8,8,0,0,1-1.06-4.08,6.56,6.56,0,0,1,.4-2.39c.26-.67.46-1.29.66-1.85a29.39,29.39,0,0,1-3.47.21c-5.75,0-10-2-13.15-5.43A16.76,16.76,0,0,1-42,116.19a18.82,18.82,0,0,1,6.71-14.44,21.07,21.07,0,0,1,9.57-5,42.87,42.87,0,0,1,9.21-1H5.08l-6.67,3.9Zm4.17,62.19a10.17,10.17,0,0,0-2.68-7.17,58.86,58.86,0,0,0-8.88-7.12c-.69-.07-1.5,0-2.43-.1a25.39,25.39,0,0,0-4.23.21,33,33,0,0,0-6.86,1.53c-.56.19-1.33.52-2.32,1a12.62,12.62,0,0,0-3,2A11.42,11.42,0,0,0-37,155.4a10.05,10.05,0,0,0-1.19,5c0,3.8,1.74,6.88,5.15,9.38a21.18,21.18,0,0,0,13.42,3.8c5.09-.14,9-1.19,11.66-3.37A10.2,10.2,0,0,0-4.08,161.88Z"/><polygon class="cls-3" points="34.35 107.6 23.02 107.6 23.02 96.26 17.52 96.26 17.52 107.6 6.19 107.6 6.19 113.09 17.52 113.09 17.52 124.42 23.02 124.42 23.02 113.09 34.35 113.09 34.35 107.6"/><path class="cls-3" d="M-18.92,130.44c2.84-.11,5.4-1,7.11-3.07A8.54,8.54,0,0,0-10,123.15a24.89,24.89,0,0,0,.24-3.64,28.73,28.73,0,0,0-3.27-12.88,14,14,0,0,0-4-5.07,9.67,9.67,0,0,0-5.87-2,8.81,8.81,0,0,0-7.3,3.54,12.58,12.58,0,0,0-2.35,8,25.71,25.71,0,0,0,3.43,12.2,16.34,16.34,0,0,0,4.29,5A9.44,9.44,0,0,0-18.92,130.44ZM-8,99.92a12.9,12.9,0,0,1,2.29,1.84,18.36,18.36,0,0,1,2.39,3.11,18.26,18.26,0,0,1,2,4.11,17.26,17.26,0,0,1,.71,5.53,16,16,0,0,1-2.56,9.28,24.34,24.34,0,0,1-2.56,3.11c-1,1-2.1,1.87-3.18,2.9a14.1,14.1,0,0,0-1.79,2.27,5.24,5.24,0,0,0-1,3.05,4.16,4.16,0,0,0,1,2.79c.58.69,1.11,1.32,1.63,1.85l3.67,3a34.38,34.38,0,0,1,6,6.16,15.1,15.1,0,0,1,2.53,9c.05,5.24-2.31,9.87-6.94,13.92-4.79,4.18-11.71,6.45-20.75,6.48-7.57,0-13.16-1.75-17-4.84s-5.65-6.47-5.65-10.57a15.41,15.41,0,0,1,1.84-6.68,15.71,15.71,0,0,1,6.46-6.47,31.71,31.71,0,0,1,11-4,73.72,73.72,0,0,1,9.5-.95,30.49,30.49,0,0,1-2.08-3.29,8,8,0,0,1-1.06-4.08,6.56,6.56,0,0,1,.4-2.39c.26-.67.46-1.29.66-1.85a29.39,29.39,0,0,1-3.47.21c-5.75,0-10-2-13.15-5.43a16.76,16.76,0,0,1-4.74-11.54A18.82,18.82,0,0,1-35.08,102a21.07,21.07,0,0,1,9.57-5,42.87,42.87,0,0,1,9.21-1H5.31l-6.67,3.9Zm4.17,62.19a10.17,10.17,0,0,0-2.68-7.17,58.86,58.86,0,0,0-8.88-7.12c-.69-.07-1.5,0-2.43-.1a25.39,25.39,0,0,0-4.23.21,33,33,0,0,0-6.86,1.53c-.56.19-1.33.52-2.32,1a12.62,12.62,0,0,0-3,2,11.42,11.42,0,0,0-2.53,3.27,10.05,10.05,0,0,0-1.19,5c0,3.8,1.74,6.88,5.15,9.38a21.18,21.18,0,0,0,13.42,3.8c5.09-.14,9-1.19,11.66-3.37A10.2,10.2,0,0,0-3.85,162.11Z"/><polygon class="cls-3" points="34.58 107.82 23.24 107.82 23.24 96.48 17.75 96.48 17.75 107.82 6.42 107.82 6.42 113.31 17.75 113.31 17.75 124.65 23.24 124.65 23.24 113.31 34.58 113.31 34.58 107.82"/><path class="cls-3" d="M-18.69,130.66c2.84-.11,5.4-1,7.11-3.07a8.54,8.54,0,0,0,1.76-4.22,24.89,24.89,0,0,0,.24-3.64,28.73,28.73,0,0,0-3.27-12.88,14,14,0,0,0-4-5.07,9.67,9.67,0,0,0-5.87-2,8.81,8.81,0,0,0-7.3,3.54,12.58,12.58,0,0,0-2.35,8A25.71,25.71,0,0,0-29,123.59a16.34,16.34,0,0,0,4.29,5A9.44,9.44,0,0,0-18.69,130.66ZM-7.8,100.14A12.9,12.9,0,0,1-5.51,102a18.36,18.36,0,0,1,2.39,3.11,18.26,18.26,0,0,1,2,4.11,17.26,17.26,0,0,1,.71,5.53A16,16,0,0,1-3,124a24.34,24.34,0,0,1-2.56,3.11c-1,1-2.1,1.87-3.18,2.9a14.1,14.1,0,0,0-1.79,2.27,5.24,5.24,0,0,0-1,3.05,4.16,4.16,0,0,0,1,2.79c.58.69,1.11,1.32,1.63,1.85l3.67,3a34.38,34.38,0,0,1,6,6.16,15.1,15.1,0,0,1,2.53,9C3.39,163.35,1,168-3.6,172c-4.79,4.18-11.71,6.45-20.75,6.48-7.57,0-13.16-1.75-17-4.84s-5.65-6.47-5.65-10.57a15.41,15.41,0,0,1,1.84-6.68,15.71,15.71,0,0,1,6.46-6.47,31.71,31.71,0,0,1,11-4,73.72,73.72,0,0,1,9.5-.95,30.49,30.49,0,0,1-2.08-3.29,8,8,0,0,1-1.06-4.08,6.56,6.56,0,0,1,.4-2.39c.26-.67.46-1.29.66-1.85a29.39,29.39,0,0,1-3.47.21c-5.75,0-10-2-13.15-5.43a16.76,16.76,0,0,1-4.74-11.54,18.82,18.82,0,0,1,6.71-14.44,21.07,21.07,0,0,1,9.57-5,42.87,42.87,0,0,1,9.21-1H5.53l-6.67,3.9Zm4.17,62.19a10.17,10.17,0,0,0-2.68-7.17A58.86,58.86,0,0,0-15.18,148c-.69-.07-1.5,0-2.43-.1a25.39,25.39,0,0,0-4.23.21,33,33,0,0,0-6.86,1.53c-.56.19-1.33.52-2.32,1a12.62,12.62,0,0,0-3,2,11.42,11.42,0,0,0-2.53,3.27,10.05,10.05,0,0,0-1.19,5c0,3.8,1.74,6.88,5.15,9.38A21.18,21.18,0,0,0-19.21,174c5.09-.14,9-1.19,11.66-3.37A10.2,10.2,0,0,0-3.63,162.33Z"/><polygon class="cls-3" points="34.8 108.05 23.47 108.05 23.47 96.71 17.98 96.71 17.98 108.05 6.64 108.05 6.64 113.54 17.98 113.54 17.98 124.87 23.47 124.87 23.47 113.54 34.8 113.54 34.8 108.05"/><path class="cls-3" d="M-18.46,130.89c2.84-.11,5.4-1,7.11-3.07a8.54,8.54,0,0,0,1.76-4.22A24.89,24.89,0,0,0-9.35,120a28.73,28.73,0,0,0-3.27-12.88,14,14,0,0,0-4-5.07,9.67,9.67,0,0,0-5.87-2,8.81,8.81,0,0,0-7.3,3.54,12.58,12.58,0,0,0-2.35,8,25.71,25.71,0,0,0,3.43,12.2,16.34,16.34,0,0,0,4.29,5A9.44,9.44,0,0,0-18.46,130.89Zm10.89-30.52a12.9,12.9,0,0,1,2.29,1.84,18.36,18.36,0,0,1,2.39,3.11,18.26,18.26,0,0,1,2,4.11A17.26,17.26,0,0,1-.2,115a16,16,0,0,1-2.56,9.28,24.34,24.34,0,0,1-2.56,3.11c-1,1-2.1,1.87-3.18,2.9a14.1,14.1,0,0,0-1.79,2.27,5.24,5.24,0,0,0-1,3.05,4.16,4.16,0,0,0,1,2.79c.58.69,1.11,1.32,1.63,1.85l3.67,3a34.38,34.38,0,0,1,6,6.16,15.1,15.1,0,0,1,2.53,9c.05,5.24-2.31,9.87-6.94,13.92-4.79,4.18-11.71,6.45-20.75,6.48-7.57,0-13.16-1.75-17-4.84s-5.65-6.47-5.65-10.57a15.41,15.41,0,0,1,1.84-6.68,15.71,15.71,0,0,1,6.46-6.47,31.71,31.71,0,0,1,11-4,73.72,73.72,0,0,1,9.5-.95A30.49,30.49,0,0,1-20,141.94,8,8,0,0,1-21,137.87a6.56,6.56,0,0,1,.4-2.39c.26-.67.46-1.29.66-1.85a29.39,29.39,0,0,1-3.47.21c-5.75,0-10-2-13.15-5.43a16.76,16.76,0,0,1-4.74-11.54,18.82,18.82,0,0,1,6.71-14.44,21.07,21.07,0,0,1,9.57-5,42.87,42.87,0,0,1,9.21-1H5.76l-6.67,3.9Zm4.17,62.19a10.17,10.17,0,0,0-2.68-7.17A58.86,58.86,0,0,0-15,148.27c-.69-.07-1.5,0-2.43-.1a25.39,25.39,0,0,0-4.23.21,33,33,0,0,0-6.86,1.53c-.56.19-1.33.52-2.32,1a12.62,12.62,0,0,0-3,2,11.42,11.42,0,0,0-2.53,3.27,10.05,10.05,0,0,0-1.19,5c0,3.8,1.74,6.88,5.15,9.38A21.18,21.18,0,0,0-19,174.21c5.09-.14,9-1.19,11.66-3.37A10.2,10.2,0,0,0-3.4,162.56Z"/><polygon class="cls-3" points="35.03 108.27 23.69 108.27 23.69 96.93 18.2 96.93 18.2 108.27 6.87 108.27 6.87 113.76 18.2 113.76 18.2 125.1 23.69 125.1 23.69 113.76 35.03 113.76 35.03 108.27"/><path class="cls-3" d="M-18.24,131.11c2.84-.11,5.4-1,7.11-3.07a8.54,8.54,0,0,0,1.76-4.22,24.89,24.89,0,0,0,.24-3.64A28.73,28.73,0,0,0-12.4,107.3a14,14,0,0,0-4-5.07,9.67,9.67,0,0,0-5.87-2,8.81,8.81,0,0,0-7.3,3.54,12.58,12.58,0,0,0-2.35,8A25.71,25.71,0,0,0-28.53,124a16.34,16.34,0,0,0,4.29,5A9.44,9.44,0,0,0-18.24,131.11Zm10.89-30.52a12.9,12.9,0,0,1,2.29,1.84,18.36,18.36,0,0,1,2.39,3.11,18.26,18.26,0,0,1,2,4.11A17.26,17.26,0,0,1,0,115.19a16,16,0,0,1-2.56,9.28,24.34,24.34,0,0,1-2.56,3.11c-1,1-2.1,1.87-3.18,2.9a14.1,14.1,0,0,0-1.79,2.27,5.24,5.24,0,0,0-1,3.05,4.16,4.16,0,0,0,1,2.79c.58.69,1.11,1.32,1.63,1.85l3.67,3a34.38,34.38,0,0,1,6,6.16,15.1,15.1,0,0,1,2.53,9c.05,5.24-2.31,9.87-6.94,13.92-4.79,4.18-11.71,6.45-20.75,6.48-7.57,0-13.16-1.75-17-4.84s-5.65-6.47-5.65-10.57a15.41,15.41,0,0,1,1.84-6.68,15.71,15.71,0,0,1,6.46-6.47,31.71,31.71,0,0,1,11-4,73.72,73.72,0,0,1,9.5-.95,30.49,30.49,0,0,1-2.08-3.29,8,8,0,0,1-1.06-4.08,6.56,6.56,0,0,1,.4-2.39c.26-.67.46-1.29.66-1.85a29.39,29.39,0,0,1-3.47.21c-5.75,0-10-2-13.15-5.43a16.76,16.76,0,0,1-4.74-11.54,18.82,18.82,0,0,1,6.71-14.44,21.07,21.07,0,0,1,9.57-5,42.87,42.87,0,0,1,9.21-1H6l-6.67,3.9Zm4.17,62.19a10.17,10.17,0,0,0-2.68-7.17,58.86,58.86,0,0,0-8.88-7.12c-.69-.07-1.5,0-2.43-.1a25.39,25.39,0,0,0-4.23.21,33,33,0,0,0-6.86,1.53c-.56.19-1.33.52-2.32,1a12.62,12.62,0,0,0-3,2,11.42,11.42,0,0,0-2.53,3.27,10.05,10.05,0,0,0-1.19,5c0,3.8,1.74,6.88,5.15,9.38a21.18,21.18,0,0,0,13.42,3.8c5.09-.14,9-1.19,11.66-3.37A10.2,10.2,0,0,0-3.18,162.78Z"/><polygon class="cls-3" points="35.25 108.5 23.92 108.5 23.92 97.16 18.43 97.16 18.43 108.5 7.09 108.5 7.09 113.99 18.43 113.99 18.43 125.32 23.92 125.32 23.92 113.99 35.25 113.99 35.25 108.5"/><path class="cls-3" d="M-18,131.34c2.84-.11,5.4-1,7.11-3.07A8.54,8.54,0,0,0-9.14,124a24.89,24.89,0,0,0,.24-3.64,28.73,28.73,0,0,0-3.27-12.88,14,14,0,0,0-4-5.07,9.67,9.67,0,0,0-5.87-2,8.81,8.81,0,0,0-7.3,3.54,12.58,12.58,0,0,0-2.35,8,25.71,25.71,0,0,0,3.43,12.2,16.34,16.34,0,0,0,4.29,5A9.44,9.44,0,0,0-18,131.34Zm10.89-30.52a12.9,12.9,0,0,1,2.29,1.84,18.36,18.36,0,0,1,2.39,3.11,18.26,18.26,0,0,1,2,4.11,17.26,17.26,0,0,1,.71,5.53,16,16,0,0,1-2.56,9.28,24.34,24.34,0,0,1-2.56,3.11c-1,1-2.1,1.87-3.18,2.9A14.1,14.1,0,0,0-9.83,133a5.24,5.24,0,0,0-1,3.05,4.16,4.16,0,0,0,1,2.79c.58.69,1.11,1.32,1.63,1.85l3.67,3a34.38,34.38,0,0,1,6,6.16,15.1,15.1,0,0,1,2.53,9c.05,5.24-2.31,9.87-6.94,13.92-4.79,4.18-11.71,6.45-20.75,6.48-7.57,0-13.16-1.75-17-4.84s-5.65-6.47-5.65-10.57a15.41,15.41,0,0,1,1.84-6.68A15.71,15.71,0,0,1-38,150.62a31.71,31.71,0,0,1,11-4,73.72,73.72,0,0,1,9.5-.95,30.49,30.49,0,0,1-2.08-3.29,8,8,0,0,1-1.06-4.08,6.56,6.56,0,0,1,.4-2.39c.26-.67.46-1.29.66-1.85a29.39,29.39,0,0,1-3.47.21c-5.75,0-10-2-13.15-5.43a16.76,16.76,0,0,1-4.74-11.54,18.82,18.82,0,0,1,6.71-14.44,21.07,21.07,0,0,1,9.57-5,42.87,42.87,0,0,1,9.21-1H6.21l-6.67,3.9ZM-3,163a10.17,10.17,0,0,0-2.68-7.17,58.86,58.86,0,0,0-8.88-7.12c-.69-.07-1.5,0-2.43-.1a25.39,25.39,0,0,0-4.23.21A33,33,0,0,0-28,150.36c-.56.19-1.33.52-2.32,1a12.62,12.62,0,0,0-3,2,11.42,11.42,0,0,0-2.53,3.27,10.05,10.05,0,0,0-1.19,5c0,3.8,1.74,6.88,5.15,9.38a21.18,21.18,0,0,0,13.42,3.8c5.09-.14,9-1.19,11.66-3.37A10.2,10.2,0,0,0-3,163Z"/><polygon class="cls-3" points="35.48 108.72 24.14 108.72 24.14 97.38 18.65 97.38 18.65 108.72 7.32 108.72 7.32 114.22 18.65 114.22 18.65 125.55 24.14 125.55 24.14 114.22 35.48 114.22 35.48 108.72"/><path class="cls-3" d="M-17.79,131.56c2.84-.11,5.4-1,7.11-3.07a8.54,8.54,0,0,0,1.76-4.22,24.89,24.89,0,0,0,.24-3.64,28.73,28.73,0,0,0-3.27-12.88,14,14,0,0,0-4-5.07,9.67,9.67,0,0,0-5.87-2,8.81,8.81,0,0,0-7.3,3.54,12.58,12.58,0,0,0-2.35,8,25.71,25.71,0,0,0,3.43,12.2,16.34,16.34,0,0,0,4.29,5A9.44,9.44,0,0,0-17.79,131.56ZM-6.9,101a12.9,12.9,0,0,1,2.29,1.84A18.36,18.36,0,0,1-2.22,106a18.26,18.26,0,0,1,2,4.11,17.26,17.26,0,0,1,.71,5.53,16,16,0,0,1-2.56,9.28A24.34,24.34,0,0,1-4.64,128c-1,1-2.1,1.87-3.18,2.9a14.1,14.1,0,0,0-1.79,2.27,5.24,5.24,0,0,0-1,3.05,4.16,4.16,0,0,0,1,2.79c.58.69,1.11,1.32,1.63,1.85l3.67,3a34.38,34.38,0,0,1,6,6.16,15.1,15.1,0,0,1,2.53,9c.05,5.24-2.31,9.87-6.94,13.92-4.79,4.18-11.71,6.45-20.75,6.48-7.57,0-13.16-1.75-17-4.84S-46,168.1-46,164a15.41,15.41,0,0,1,1.84-6.68,15.71,15.71,0,0,1,6.46-6.47,31.71,31.71,0,0,1,11-4,73.72,73.72,0,0,1,9.5-.95,30.49,30.49,0,0,1-2.08-3.29,8,8,0,0,1-1.06-4.08,6.56,6.56,0,0,1,.4-2.39c.26-.67.46-1.29.66-1.85a29.39,29.39,0,0,1-3.47.21c-5.75,0-10-2-13.15-5.43a16.76,16.76,0,0,1-4.74-11.54A18.82,18.82,0,0,1-34,103.1a21.07,21.07,0,0,1,9.57-5,42.87,42.87,0,0,1,9.21-1H6.43L-.24,101Zm4.17,62.19a10.17,10.17,0,0,0-2.68-7.17,58.86,58.86,0,0,0-8.88-7.12c-.69-.07-1.5,0-2.43-.1a25.39,25.39,0,0,0-4.23.21,33,33,0,0,0-6.86,1.53c-.56.19-1.33.52-2.32,1a12.62,12.62,0,0,0-3,2,11.42,11.42,0,0,0-2.53,3.27,10.05,10.05,0,0,0-1.19,5c0,3.8,1.74,6.88,5.15,9.38a21.18,21.18,0,0,0,13.42,3.8c5.09-.14,9-1.19,11.66-3.37A10.2,10.2,0,0,0-2.73,163.23Z"/><polygon class="cls-3" points="35.7 108.95 24.37 108.95 24.37 97.61 18.88 97.61 18.88 108.95 7.54 108.95 7.54 114.44 18.88 114.44 18.88 125.77 24.37 125.77 24.37 114.44 35.7 114.44 35.7 108.95"/><path class="cls-3" d="M-17.56,131.79c2.84-.11,5.4-1,7.11-3.07a8.54,8.54,0,0,0,1.76-4.22,24.89,24.89,0,0,0,.24-3.64A28.73,28.73,0,0,0-11.72,108a14,14,0,0,0-4-5.07,9.67,9.67,0,0,0-5.87-2,8.81,8.81,0,0,0-7.3,3.54,12.58,12.58,0,0,0-2.35,8,25.71,25.71,0,0,0,3.43,12.2,16.34,16.34,0,0,0,4.29,5A9.44,9.44,0,0,0-17.56,131.79Zm10.89-30.52a12.9,12.9,0,0,1,2.29,1.84A18.36,18.36,0,0,1-2,106.22a18.26,18.26,0,0,1,2,4.11,17.26,17.26,0,0,1,.71,5.53,16,16,0,0,1-2.56,9.28,24.34,24.34,0,0,1-2.56,3.11c-1,1-2.1,1.87-3.18,2.9a14.1,14.1,0,0,0-1.79,2.27,5.24,5.24,0,0,0-1,3.05,4.16,4.16,0,0,0,1,2.79c.58.69,1.11,1.32,1.63,1.85l3.67,3a34.38,34.38,0,0,1,6,6.16,15.1,15.1,0,0,1,2.53,9c.05,5.24-2.31,9.87-6.94,13.92-4.79,4.18-11.71,6.45-20.75,6.48-7.57,0-13.16-1.75-17-4.84s-5.65-6.47-5.65-10.57A15.41,15.41,0,0,1-44,157.54a15.71,15.71,0,0,1,6.46-6.47,31.71,31.71,0,0,1,11-4,73.72,73.72,0,0,1,9.5-.95,30.49,30.49,0,0,1-2.08-3.29,8,8,0,0,1-1.06-4.08,6.56,6.56,0,0,1,.4-2.39c.26-.67.46-1.29.66-1.85a29.39,29.39,0,0,1-3.47.21c-5.75,0-10-2-13.15-5.43a16.76,16.76,0,0,1-4.74-11.54,18.82,18.82,0,0,1,6.71-14.44,21.07,21.07,0,0,1,9.57-5,42.87,42.87,0,0,1,9.21-1H6.66L0,101.27Zm4.17,62.19a10.17,10.17,0,0,0-2.68-7.17,58.86,58.86,0,0,0-8.88-7.12c-.69-.07-1.5,0-2.43-.1a25.39,25.39,0,0,0-4.23.21,33,33,0,0,0-6.86,1.53c-.56.19-1.33.52-2.32,1a12.62,12.62,0,0,0-3,2A11.42,11.42,0,0,0-35.47,157a10.05,10.05,0,0,0-1.19,5c0,3.8,1.74,6.88,5.15,9.38a21.18,21.18,0,0,0,13.42,3.8c5.09-.14,9-1.19,11.66-3.37A10.2,10.2,0,0,0-2.5,163.46Z"/><polygon class="cls-3" points="35.93 109.17 24.59 109.17 24.59 97.83 19.1 97.83 19.1 109.17 7.77 109.17 7.77 114.67 19.1 114.67 19.1 126 24.59 126 24.59 114.67 35.93 114.67 35.93 109.17"/><path class="cls-3" d="M-17.34,132c2.84-.11,5.4-1,7.11-3.07a8.54,8.54,0,0,0,1.76-4.22,24.89,24.89,0,0,0,.24-3.64A28.73,28.73,0,0,0-11.5,108.2a14,14,0,0,0-4-5.07,9.67,9.67,0,0,0-5.87-2,8.81,8.81,0,0,0-7.3,3.54,12.58,12.58,0,0,0-2.35,8,25.71,25.71,0,0,0,3.43,12.2,16.34,16.34,0,0,0,4.29,5A9.44,9.44,0,0,0-17.34,132Zm10.89-30.52a12.9,12.9,0,0,1,2.29,1.84,18.36,18.36,0,0,1,2.39,3.11,18.26,18.26,0,0,1,2,4.11,17.26,17.26,0,0,1,.71,5.53,16,16,0,0,1-2.56,9.28,24.34,24.34,0,0,1-2.56,3.11c-1,1-2.1,1.87-3.18,2.9a14.1,14.1,0,0,0-1.79,2.27,5.24,5.24,0,0,0-1,3.05,4.16,4.16,0,0,0,1,2.79c.58.69,1.11,1.32,1.63,1.85l3.67,3a34.38,34.38,0,0,1,6,6.16,15.1,15.1,0,0,1,2.53,9c.05,5.24-2.31,9.87-6.94,13.92C-7,177.56-14,179.83-23,179.86c-7.57,0-13.16-1.75-17-4.84s-5.65-6.47-5.65-10.57a15.41,15.41,0,0,1,1.84-6.68,15.71,15.71,0,0,1,6.46-6.47,31.71,31.71,0,0,1,11-4,73.72,73.72,0,0,1,9.5-.95,30.49,30.49,0,0,1-2.08-3.29A8,8,0,0,1-19.92,139a6.56,6.56,0,0,1,.4-2.39c.26-.67.46-1.29.66-1.85a29.39,29.39,0,0,1-3.47.21c-5.75,0-10-2-13.15-5.43A16.76,16.76,0,0,1-40.22,118a18.82,18.82,0,0,1,6.71-14.44,21.07,21.07,0,0,1,9.57-5,42.87,42.87,0,0,1,9.21-1H6.88l-6.67,3.9Zm4.17,62.19A10.17,10.17,0,0,0-5,156.52a58.86,58.86,0,0,0-8.88-7.12c-.69-.07-1.5,0-2.43-.1a25.39,25.39,0,0,0-4.23.21A33,33,0,0,0-27.36,151c-.56.19-1.33.52-2.32,1a12.62,12.62,0,0,0-3,2,11.42,11.42,0,0,0-2.53,3.27,10.05,10.05,0,0,0-1.19,5c0,3.8,1.74,6.88,5.15,9.38a21.18,21.18,0,0,0,13.42,3.8c5.09-.14,9-1.19,11.66-3.37A10.2,10.2,0,0,0-2.28,163.68Z"/><polygon class="cls-3" points="36.15 109.4 24.82 109.4 24.82 98.06 19.32 98.06 19.32 109.4 7.99 109.4 7.99 114.89 19.32 114.89 19.32 126.22 24.82 126.22 24.82 114.89 36.15 114.89 36.15 109.4"/><path class="cls-3" d="M-17.11,132.24c2.84-.11,5.4-1,7.11-3.07a8.54,8.54,0,0,0,1.76-4.22A24.89,24.89,0,0,0-8,121.3a28.73,28.73,0,0,0-3.27-12.88,14,14,0,0,0-4-5.07,9.67,9.67,0,0,0-5.87-2,8.81,8.81,0,0,0-7.3,3.54,12.58,12.58,0,0,0-2.35,8,25.71,25.71,0,0,0,3.43,12.2,16.34,16.34,0,0,0,4.29,5A9.44,9.44,0,0,0-17.11,132.24Zm10.89-30.52a12.9,12.9,0,0,1,2.29,1.84,18.36,18.36,0,0,1,2.39,3.11,18.26,18.26,0,0,1,2,4.11,17.26,17.26,0,0,1,.71,5.53,16,16,0,0,1-2.56,9.28A24.34,24.34,0,0,1-4,128.7c-1,1-2.1,1.87-3.18,2.9a14.1,14.1,0,0,0-1.79,2.27,5.24,5.24,0,0,0-1,3.05,4.16,4.16,0,0,0,1,2.79c.58.69,1.11,1.32,1.63,1.85l3.67,3a34.38,34.38,0,0,1,6,6.16,15.1,15.1,0,0,1,2.53,9C5,164.92,2.6,169.56-2,173.6c-4.79,4.18-11.71,6.45-20.75,6.48-7.57,0-13.16-1.75-17-4.84s-5.65-6.47-5.65-10.57A15.41,15.41,0,0,1-43.53,158a15.71,15.71,0,0,1,6.46-6.47,31.71,31.71,0,0,1,11-4,73.72,73.72,0,0,1,9.5-.95,30.49,30.49,0,0,1-2.08-3.29,8,8,0,0,1-1.06-4.08,6.56,6.56,0,0,1,.4-2.39c.26-.67.46-1.29.66-1.85a29.39,29.39,0,0,1-3.47.21c-5.75,0-10-2-13.15-5.43A16.76,16.76,0,0,1-40,118.22a18.82,18.82,0,0,1,6.71-14.44,21.07,21.07,0,0,1,9.57-5,42.87,42.87,0,0,1,9.21-1H7.11l-6.67,3.9Zm4.17,62.19a10.17,10.17,0,0,0-2.68-7.17,58.86,58.86,0,0,0-8.88-7.12c-.69-.07-1.5,0-2.43-.1a25.39,25.39,0,0,0-4.23.21,33,33,0,0,0-6.86,1.53c-.56.19-1.33.52-2.32,1a12.62,12.62,0,0,0-3,2A11.42,11.42,0,0,0-35,157.43a10.05,10.05,0,0,0-1.19,5c0,3.8,1.74,6.88,5.15,9.38a21.18,21.18,0,0,0,13.42,3.8c5.09-.14,9-1.19,11.66-3.37A10.2,10.2,0,0,0-2.05,163.91Z"/><polygon class="cls-3" points="36.38 109.62 25.04 109.62 25.04 98.28 19.55 98.28 19.55 109.62 8.22 109.62 8.22 115.11 19.55 115.11 19.55 126.45 25.04 126.45 25.04 115.11 36.38 115.11 36.38 109.62"/><path class="cls-3" d="M-16.89,132.46c2.84-.11,5.4-1,7.11-3.07A8.54,8.54,0,0,0-8,125.17a24.89,24.89,0,0,0,.24-3.64A28.73,28.73,0,0,0-11,108.65a14,14,0,0,0-4-5.07,9.67,9.67,0,0,0-5.87-2,8.81,8.81,0,0,0-7.3,3.54,12.58,12.58,0,0,0-2.35,8,25.71,25.71,0,0,0,3.43,12.2,16.34,16.34,0,0,0,4.29,5A9.44,9.44,0,0,0-16.89,132.46ZM-6,101.94a12.9,12.9,0,0,1,2.29,1.84,18.36,18.36,0,0,1,2.39,3.11,18.26,18.26,0,0,1,2,4.11,17.26,17.26,0,0,1,.71,5.53,16,16,0,0,1-2.56,9.28,24.34,24.34,0,0,1-2.56,3.11c-1,1-2.1,1.87-3.18,2.9a14.1,14.1,0,0,0-1.79,2.27,5.24,5.24,0,0,0-1,3.05,4.16,4.16,0,0,0,1,2.79c.58.69,1.11,1.32,1.63,1.85l3.67,3a34.38,34.38,0,0,1,6,6.16,15.1,15.1,0,0,1,2.53,9c.05,5.24-2.31,9.87-6.94,13.92-4.79,4.18-11.71,6.45-20.75,6.48-7.57,0-13.16-1.75-17-4.84s-5.65-6.47-5.65-10.57a15.41,15.41,0,0,1,1.84-6.68,15.71,15.71,0,0,1,6.46-6.47,31.71,31.71,0,0,1,11-4,73.72,73.72,0,0,1,9.5-.95,30.49,30.49,0,0,1-2.08-3.29,8,8,0,0,1-1.06-4.08,6.56,6.56,0,0,1,.4-2.39c.26-.67.46-1.29.66-1.85a29.39,29.39,0,0,1-3.47.21c-5.75,0-10-2-13.15-5.43a16.76,16.76,0,0,1-4.74-11.54A18.82,18.82,0,0,1-33.06,104a21.07,21.07,0,0,1,9.57-5,42.87,42.87,0,0,1,9.21-1H7.33l-6.67,3.9Zm4.17,62.19A10.17,10.17,0,0,0-4.51,157a58.86,58.86,0,0,0-8.88-7.12c-.69-.07-1.5,0-2.43-.1A25.39,25.39,0,0,0-20,150a33,33,0,0,0-6.86,1.53c-.56.19-1.33.52-2.32,1a12.62,12.62,0,0,0-3,2,11.42,11.42,0,0,0-2.53,3.27,10.05,10.05,0,0,0-1.19,5c0,3.8,1.74,6.88,5.15,9.38a21.18,21.18,0,0,0,13.42,3.8c5.09-.14,9-1.19,11.66-3.37A10.2,10.2,0,0,0-1.83,164.13Z"/><polygon class="cls-3" points="36.6 109.85 25.27 109.85 25.27 98.51 19.78 98.51 19.78 109.85 8.44 109.85 8.44 115.34 19.78 115.34 19.78 126.67 25.27 126.67 25.27 115.34 36.6 115.34 36.6 109.85"/><path class="cls-3" d="M-16.66,132.69c2.84-.11,5.4-1,7.11-3.07a8.54,8.54,0,0,0,1.76-4.22,24.89,24.89,0,0,0,.24-3.64,28.73,28.73,0,0,0-3.27-12.88,14,14,0,0,0-4-5.07,9.67,9.67,0,0,0-5.87-2,8.81,8.81,0,0,0-7.3,3.54,12.58,12.58,0,0,0-2.35,8A25.71,25.71,0,0,0-27,125.61a16.34,16.34,0,0,0,4.29,5A9.44,9.44,0,0,0-16.66,132.69Zm10.89-30.52A12.9,12.9,0,0,1-3.48,104a18.36,18.36,0,0,1,2.39,3.11,18.26,18.26,0,0,1,2,4.11,17.26,17.26,0,0,1,.71,5.53A16,16,0,0,1-1,126a24.34,24.34,0,0,1-2.56,3.11c-1,1-2.1,1.87-3.18,2.9a14.1,14.1,0,0,0-1.79,2.27,5.24,5.24,0,0,0-1,3.05,4.16,4.16,0,0,0,1,2.79c.58.69,1.11,1.32,1.63,1.85l3.67,3a34.38,34.38,0,0,1,6,6.16,15.1,15.1,0,0,1,2.53,9C5.41,165.37,3,170-1.57,174.05c-4.79,4.18-11.71,6.45-20.75,6.48-7.57,0-13.16-1.75-17-4.84s-5.65-6.47-5.65-10.57a15.41,15.41,0,0,1,1.84-6.68A15.71,15.71,0,0,1-36.62,152a31.71,31.71,0,0,1,11-4,73.72,73.72,0,0,1,9.5-.95,30.49,30.49,0,0,1-2.08-3.29,8,8,0,0,1-1.06-4.08,6.56,6.56,0,0,1,.4-2.39c.26-.67.46-1.29.66-1.85a29.39,29.39,0,0,1-3.47.21c-5.75,0-10-2-13.15-5.43a16.76,16.76,0,0,1-4.74-11.54,18.82,18.82,0,0,1,6.71-14.44,21.07,21.07,0,0,1,9.57-5,42.87,42.87,0,0,1,9.21-1H7.56l-6.67,3.9Zm4.17,62.19a10.17,10.17,0,0,0-2.68-7.17,58.86,58.86,0,0,0-8.88-7.12c-.69-.07-1.5,0-2.43-.1a25.39,25.39,0,0,0-4.23.21,33,33,0,0,0-6.86,1.53c-.56.19-1.33.52-2.32,1a12.62,12.62,0,0,0-3,2,11.42,11.42,0,0,0-2.53,3.27,10.05,10.05,0,0,0-1.19,5c0,3.8,1.74,6.88,5.15,9.38A21.18,21.18,0,0,0-17.19,176c5.09-.14,9-1.19,11.66-3.37A10.2,10.2,0,0,0-1.6,164.36Z"/><polygon class="cls-3" points="36.83 110.07 25.49 110.07 25.49 98.73 20 98.73 20 110.07 8.67 110.07 8.67 115.56 20 115.56 20 126.9 25.49 126.9 25.49 115.56 36.83 115.56 36.83 110.07"/><path class="cls-3" d="M-16.44,132.91c2.84-.11,5.4-1,7.11-3.07a8.54,8.54,0,0,0,1.76-4.22A24.89,24.89,0,0,0-7.33,122,28.73,28.73,0,0,0-10.6,109.1a14,14,0,0,0-4-5.07,9.67,9.67,0,0,0-5.87-2,8.81,8.81,0,0,0-7.3,3.54,12.58,12.58,0,0,0-2.35,8,25.71,25.71,0,0,0,3.43,12.2,16.34,16.34,0,0,0,4.29,5A9.44,9.44,0,0,0-16.44,132.91Zm10.89-30.52a12.9,12.9,0,0,1,2.29,1.84,18.36,18.36,0,0,1,2.39,3.11,18.26,18.26,0,0,1,2,4.11A17.26,17.26,0,0,1,1.83,117a16,16,0,0,1-2.56,9.28,24.34,24.34,0,0,1-2.56,3.11c-1,1-2.1,1.87-3.18,2.9a14.1,14.1,0,0,0-1.79,2.27,5.24,5.24,0,0,0-1,3.05,4.16,4.16,0,0,0,1,2.79c.58.69,1.11,1.32,1.63,1.85l3.67,3a34.38,34.38,0,0,1,6,6.16,15.1,15.1,0,0,1,2.53,9c.05,5.24-2.31,9.87-6.94,13.92-4.79,4.18-11.71,6.45-20.75,6.48-7.57,0-13.16-1.75-17-4.84s-5.65-6.47-5.65-10.57a15.41,15.41,0,0,1,1.84-6.68,15.71,15.71,0,0,1,6.46-6.47,31.71,31.71,0,0,1,11-4,73.72,73.72,0,0,1,9.5-.95A30.49,30.49,0,0,1-18,144,8,8,0,0,1-19,139.89a6.56,6.56,0,0,1,.4-2.39c.26-.67.46-1.29.66-1.85a29.39,29.39,0,0,1-3.47.21c-5.75,0-10-2-13.15-5.43a16.76,16.76,0,0,1-4.74-11.54,18.82,18.82,0,0,1,6.71-14.44,21.07,21.07,0,0,1,9.57-5,42.87,42.87,0,0,1,9.21-1H7.78l-6.67,3.9Zm4.17,62.19a10.17,10.17,0,0,0-2.68-7.17,58.86,58.86,0,0,0-8.88-7.12c-.69-.07-1.5,0-2.43-.1a25.39,25.39,0,0,0-4.23.21,33,33,0,0,0-6.86,1.53c-.56.19-1.33.52-2.32,1a12.62,12.62,0,0,0-3,2,11.42,11.42,0,0,0-2.53,3.27,10.05,10.05,0,0,0-1.19,5c0,3.8,1.74,6.88,5.15,9.38A21.18,21.18,0,0,0-17,176.24c5.09-.14,9-1.19,11.66-3.37A10.2,10.2,0,0,0-1.38,164.58Z"/><polygon class="cls-3" points="37.05 110.3 25.72 110.3 25.72 98.96 20.23 98.96 20.23 110.3 8.89 110.3 8.89 115.79 20.23 115.79 20.23 127.12 25.72 127.12 25.72 115.79 37.05 115.79 37.05 110.3"/><path class="cls-3" d="M-16.21,133.14c2.84-.11,5.4-1,7.11-3.07a8.54,8.54,0,0,0,1.76-4.22,24.89,24.89,0,0,0,.24-3.64,28.73,28.73,0,0,0-3.27-12.88,14,14,0,0,0-4-5.07,9.67,9.67,0,0,0-5.87-2,8.81,8.81,0,0,0-7.3,3.54,12.58,12.58,0,0,0-2.35,8,25.71,25.71,0,0,0,3.43,12.2,16.34,16.34,0,0,0,4.29,5A9.44,9.44,0,0,0-16.21,133.14Zm10.89-30.52A12.9,12.9,0,0,1-3,104.46a18.36,18.36,0,0,1,2.39,3.11,18.26,18.26,0,0,1,2,4.11,17.26,17.26,0,0,1,.71,5.53,16,16,0,0,1-2.56,9.28,24.34,24.34,0,0,1-2.56,3.11c-1,1-2.1,1.87-3.18,2.9A14.1,14.1,0,0,0-8,134.77a5.24,5.24,0,0,0-1,3.05,4.16,4.16,0,0,0,1,2.79c.58.69,1.11,1.32,1.63,1.85l3.67,3a34.38,34.38,0,0,1,6,6.16,15.1,15.1,0,0,1,2.53,9c.05,5.24-2.31,9.87-6.94,13.92C-5.91,178.68-12.83,181-21.87,181c-7.57,0-13.16-1.75-17-4.84s-5.65-6.47-5.65-10.57a15.41,15.41,0,0,1,1.84-6.68,15.71,15.71,0,0,1,6.46-6.47,31.71,31.71,0,0,1,11-4,73.72,73.72,0,0,1,9.5-.95,30.49,30.49,0,0,1-2.08-3.29,8,8,0,0,1-1.06-4.08,6.56,6.56,0,0,1,.4-2.39c.26-.67.46-1.29.66-1.85a29.39,29.39,0,0,1-3.47.21c-5.75,0-10-2-13.15-5.43a16.76,16.76,0,0,1-4.74-11.54,18.82,18.82,0,0,1,6.71-14.44,21.07,21.07,0,0,1,9.57-5,42.87,42.87,0,0,1,9.21-1H8l-6.67,3.9Zm4.17,62.19a10.17,10.17,0,0,0-2.68-7.17,58.86,58.86,0,0,0-8.88-7.12c-.69-.07-1.5,0-2.43-.1a25.39,25.39,0,0,0-4.23.21,33,33,0,0,0-6.86,1.53c-.56.19-1.33.52-2.32,1a12.62,12.62,0,0,0-3,2,11.42,11.42,0,0,0-2.53,3.27,10.05,10.05,0,0,0-1.19,5c0,3.8,1.74,6.88,5.15,9.38a21.18,21.18,0,0,0,13.42,3.8c5.09-.14,9-1.19,11.66-3.37A10.2,10.2,0,0,0-1.15,164.81Z"/><polygon class="cls-3" points="37.28 110.52 25.94 110.52 25.94 99.18 20.45 99.18 20.45 110.52 9.12 110.52 9.12 116.02 20.45 116.02 20.45 127.35 25.94 127.35 25.94 116.02 37.28 116.02 37.28 110.52"/><path class="cls-3" d="M-16,133.36c2.84-.11,5.4-1,7.11-3.07a8.54,8.54,0,0,0,1.76-4.22,24.89,24.89,0,0,0,.24-3.64,28.73,28.73,0,0,0-3.27-12.88,14,14,0,0,0-4-5.07,9.67,9.67,0,0,0-5.87-2,8.81,8.81,0,0,0-7.3,3.54,12.58,12.58,0,0,0-2.35,8,25.71,25.71,0,0,0,3.43,12.2,16.34,16.34,0,0,0,4.29,5A9.44,9.44,0,0,0-16,133.36ZM-5.1,102.84a12.9,12.9,0,0,1,2.29,1.84A18.36,18.36,0,0,1-.42,107.8a18.26,18.26,0,0,1,2,4.11,17.26,17.26,0,0,1,.71,5.53,16,16,0,0,1-2.56,9.28,24.34,24.34,0,0,1-2.56,3.11c-1,1-2.1,1.87-3.18,2.9A14.1,14.1,0,0,0-7.81,135a5.24,5.24,0,0,0-1,3.05,4.16,4.16,0,0,0,1,2.79c.58.69,1.11,1.32,1.63,1.85l3.67,3a34.38,34.38,0,0,1,6,6.16,15.1,15.1,0,0,1,2.53,9c.05,5.24-2.31,9.87-6.94,13.92-4.79,4.18-11.71,6.45-20.75,6.48-7.57,0-13.16-1.75-17-4.84s-5.65-6.47-5.65-10.57a15.41,15.41,0,0,1,1.84-6.68,15.71,15.71,0,0,1,6.46-6.47,31.71,31.71,0,0,1,11-4,73.72,73.72,0,0,1,9.5-.95,30.49,30.49,0,0,1-2.08-3.29,8,8,0,0,1-1.06-4.08,6.56,6.56,0,0,1,.4-2.39c.26-.67.46-1.29.66-1.85a29.39,29.39,0,0,1-3.47.21c-5.75,0-10-2-13.15-5.43a16.76,16.76,0,0,1-4.74-11.54,18.82,18.82,0,0,1,6.71-14.44,21.07,21.07,0,0,1,9.57-5,42.87,42.87,0,0,1,9.21-1H8.23l-6.67,3.9ZM-.93,165a10.17,10.17,0,0,0-2.68-7.17,58.86,58.86,0,0,0-8.88-7.12c-.69-.07-1.5,0-2.43-.1a25.39,25.39,0,0,0-4.23.21A33,33,0,0,0-26,152.38c-.56.19-1.33.52-2.32,1a12.62,12.62,0,0,0-3,2,11.42,11.42,0,0,0-2.53,3.27,10.05,10.05,0,0,0-1.19,5c0,3.8,1.74,6.88,5.15,9.38a21.18,21.18,0,0,0,13.42,3.8c5.09-.14,9-1.19,11.66-3.37A10.2,10.2,0,0,0-.93,165Z"/><polygon class="cls-3" points="37.51 110.75 26.17 110.75 26.17 99.41 20.68 99.41 20.68 110.75 9.34 110.75 9.34 116.24 20.68 116.24 20.68 127.58 26.17 127.58 26.17 116.24 37.51 116.24 37.51 110.75"/><path class="cls-3" d="M-15.76,133.59c2.84-.11,5.4-1,7.11-3.07a8.54,8.54,0,0,0,1.76-4.22,24.89,24.89,0,0,0,.24-3.64,28.73,28.73,0,0,0-3.27-12.88,14,14,0,0,0-4-5.07,9.67,9.67,0,0,0-5.87-2,8.81,8.81,0,0,0-7.3,3.54,12.58,12.58,0,0,0-2.35,8,25.71,25.71,0,0,0,3.43,12.2,16.34,16.34,0,0,0,4.29,5A9.44,9.44,0,0,0-15.76,133.59Zm10.89-30.52a12.9,12.9,0,0,1,2.29,1.84A18.36,18.36,0,0,1-.19,108a18.26,18.26,0,0,1,2,4.11,17.26,17.26,0,0,1,.71,5.53,16,16,0,0,1-2.56,9.28,24.34,24.34,0,0,1-2.56,3.11c-1,1-2.1,1.87-3.18,2.9a14.1,14.1,0,0,0-1.79,2.27,5.24,5.24,0,0,0-1,3.05,4.16,4.16,0,0,0,1,2.79c.58.69,1.11,1.32,1.63,1.85l3.67,3a34.38,34.38,0,0,1,6,6.16,15.1,15.1,0,0,1,2.53,9c.05,5.24-2.31,9.87-6.94,13.92-4.79,4.18-11.71,6.45-20.75,6.48-7.57,0-13.16-1.75-17-4.84S-44,170.13-44,166a15.41,15.41,0,0,1,1.84-6.68,15.71,15.71,0,0,1,6.46-6.47,31.71,31.71,0,0,1,11-4,73.72,73.72,0,0,1,9.5-.95,30.49,30.49,0,0,1-2.08-3.29,8,8,0,0,1-1.06-4.08,6.56,6.56,0,0,1,.4-2.39c.26-.67.46-1.29.66-1.85a29.39,29.39,0,0,1-3.47.21c-5.75,0-10-2-13.15-5.43a16.76,16.76,0,0,1-4.74-11.54,18.82,18.82,0,0,1,6.71-14.44,21.07,21.07,0,0,1,9.57-5,42.87,42.87,0,0,1,9.21-1H8.46l-6.67,3.9ZM-.7,165.26a10.17,10.17,0,0,0-2.68-7.17A58.86,58.86,0,0,0-12.26,151c-.69-.07-1.5,0-2.43-.1a25.39,25.39,0,0,0-4.23.21,33,33,0,0,0-6.86,1.53c-.56.19-1.33.52-2.32,1a12.62,12.62,0,0,0-3,2,11.42,11.42,0,0,0-2.53,3.27,10.05,10.05,0,0,0-1.19,5c0,3.8,1.74,6.88,5.15,9.38a21.18,21.18,0,0,0,13.42,3.8c5.09-.14,9-1.19,11.66-3.37A10.2,10.2,0,0,0-.7,165.26Z"/><polygon class="cls-3" points="37.73 110.97 26.39 110.97 26.39 99.63 20.9 99.63 20.9 110.97 9.57 110.97 9.57 116.47 20.9 116.47 20.9 127.8 26.39 127.8 26.39 116.47 37.73 116.47 37.73 110.97"/><path class="cls-3" d="M-15.54,133.81c2.84-.11,5.4-1,7.11-3.07a8.54,8.54,0,0,0,1.76-4.22,24.89,24.89,0,0,0,.24-3.64A28.73,28.73,0,0,0-9.7,110a14,14,0,0,0-4-5.07,9.67,9.67,0,0,0-5.87-2,8.81,8.81,0,0,0-7.3,3.54,12.58,12.58,0,0,0-2.35,8,25.71,25.71,0,0,0,3.43,12.2,16.34,16.34,0,0,0,4.29,5A9.44,9.44,0,0,0-15.54,133.81Zm10.89-30.52a12.9,12.9,0,0,1,2.29,1.84A18.36,18.36,0,0,1,0,108.25a18.26,18.26,0,0,1,2,4.11,17.26,17.26,0,0,1,.71,5.53,16,16,0,0,1-2.56,9.28,24.34,24.34,0,0,1-2.56,3.11c-1,1-2.1,1.87-3.18,2.9a14.1,14.1,0,0,0-1.79,2.27,5.24,5.24,0,0,0-1,3.05,4.16,4.16,0,0,0,1,2.79c.58.69,1.11,1.32,1.63,1.85l3.67,3a34.38,34.38,0,0,1,6,6.16,15.1,15.1,0,0,1,2.53,9c.05,5.24-2.31,9.87-6.94,13.92-4.79,4.18-11.71,6.45-20.75,6.48-7.57,0-13.16-1.75-17-4.84s-5.65-6.47-5.65-10.57A15.41,15.41,0,0,1-42,159.57a15.71,15.71,0,0,1,6.46-6.47,31.71,31.71,0,0,1,11-4,73.72,73.72,0,0,1,9.5-.95,30.49,30.49,0,0,1-2.08-3.29,8,8,0,0,1-1.06-4.08,6.56,6.56,0,0,1,.4-2.39c.26-.67.46-1.29.66-1.85a29.39,29.39,0,0,1-3.47.21c-5.75,0-10-2-13.15-5.43a16.76,16.76,0,0,1-4.74-11.54,18.82,18.82,0,0,1,6.71-14.44,21.07,21.07,0,0,1,9.57-5,42.87,42.87,0,0,1,9.21-1H8.68L2,103.29Zm4.17,62.19a10.17,10.17,0,0,0-2.68-7.17A58.86,58.86,0,0,0-12,151.2c-.69-.07-1.5,0-2.43-.1a25.39,25.39,0,0,0-4.23.21,33,33,0,0,0-6.86,1.53c-.56.19-1.33.52-2.32,1a12.62,12.62,0,0,0-3,2A11.42,11.42,0,0,0-33.45,159a10.05,10.05,0,0,0-1.19,5c0,3.8,1.74,6.88,5.15,9.38a21.18,21.18,0,0,0,13.42,3.8c5.09-.14,9-1.19,11.66-3.37A10.2,10.2,0,0,0-.48,165.48Z"/><polygon class="cls-3" points="37.95 111.2 26.62 111.2 26.62 99.86 21.13 99.86 21.13 111.2 9.79 111.2 9.79 116.69 21.13 116.69 21.13 128.03 26.62 128.03 26.62 116.69 37.95 116.69 37.95 111.2"/><path class="cls-3" d="M-15.31,134c2.84-.11,5.4-1,7.11-3.07a8.54,8.54,0,0,0,1.76-4.22,24.89,24.89,0,0,0,.24-3.64,28.73,28.73,0,0,0-3.27-12.88,14,14,0,0,0-4-5.07,9.67,9.67,0,0,0-5.87-2,8.81,8.81,0,0,0-7.3,3.54,12.58,12.58,0,0,0-2.35,8A25.71,25.71,0,0,0-25.6,127a16.34,16.34,0,0,0,4.29,5A9.44,9.44,0,0,0-15.31,134Zm10.89-30.52a12.9,12.9,0,0,1,2.29,1.84,18.36,18.36,0,0,1,2.39,3.11,18.26,18.26,0,0,1,2,4.11A17.26,17.26,0,0,1,3,118.12a16,16,0,0,1-2.56,9.28,24.34,24.34,0,0,1-2.56,3.11c-1,1-2.1,1.87-3.18,2.9a14.1,14.1,0,0,0-1.79,2.27,5.24,5.24,0,0,0-1,3.05,4.16,4.16,0,0,0,1,2.79c.58.69,1.11,1.32,1.63,1.85l3.67,3a34.38,34.38,0,0,1,6,6.16,15.1,15.1,0,0,1,2.53,9c.05,5.24-2.31,9.87-6.94,13.92C-5,179.59-11.93,181.86-21,181.88c-7.57,0-13.16-1.75-17-4.84s-5.65-6.47-5.65-10.57a15.41,15.41,0,0,1,1.84-6.68,15.71,15.71,0,0,1,6.46-6.47,31.71,31.71,0,0,1,11-4,73.72,73.72,0,0,1,9.5-.95,30.49,30.49,0,0,1-2.08-3.29A8,8,0,0,1-17.9,141a6.56,6.56,0,0,1,.4-2.39c.26-.67.46-1.29.66-1.85a29.39,29.39,0,0,1-3.47.21c-5.75,0-10-2-13.15-5.43A16.76,16.76,0,0,1-38.19,120a18.82,18.82,0,0,1,6.71-14.44,21.07,21.07,0,0,1,9.57-5,42.87,42.87,0,0,1,9.21-1H8.91l-6.67,3.9Zm4.17,62.19a10.17,10.17,0,0,0-2.68-7.17,58.86,58.86,0,0,0-8.88-7.12c-.69-.07-1.5,0-2.43-.1a25.39,25.39,0,0,0-4.23.21,33,33,0,0,0-6.86,1.53c-.56.19-1.33.52-2.32,1a12.62,12.62,0,0,0-3,2,11.42,11.42,0,0,0-2.53,3.27,10.05,10.05,0,0,0-1.19,5c0,3.8,1.74,6.88,5.15,9.38a21.18,21.18,0,0,0,13.42,3.8c5.09-.14,9-1.19,11.66-3.37A10.2,10.2,0,0,0-.25,165.71Z"/><polygon class="cls-3" points="38.18 111.42 26.84 111.42 26.84 100.08 21.35 100.08 21.35 111.42 10.02 111.42 10.02 116.92 21.35 116.92 21.35 128.25 26.84 128.25 26.84 116.92 38.18 116.92 38.18 111.42"/><path class="cls-3" d="M-15.09,134.27c2.84-.11,5.4-1,7.11-3.07A8.54,8.54,0,0,0-6.22,127,24.89,24.89,0,0,0-6,123.33a28.73,28.73,0,0,0-3.27-12.88,14,14,0,0,0-4-5.07,9.67,9.67,0,0,0-5.87-2,8.81,8.81,0,0,0-7.3,3.54,12.58,12.58,0,0,0-2.35,8,25.71,25.71,0,0,0,3.43,12.2,16.34,16.34,0,0,0,4.29,5A9.44,9.44,0,0,0-15.09,134.27ZM-4.2,103.74a12.9,12.9,0,0,1,2.29,1.84A18.36,18.36,0,0,1,.48,108.7a18.26,18.26,0,0,1,2,4.11,17.26,17.26,0,0,1,.71,5.53,16,16,0,0,1-2.56,9.28,24.34,24.34,0,0,1-2.56,3.11c-1,1-2.1,1.87-3.18,2.9a14.1,14.1,0,0,0-1.79,2.27,5.24,5.24,0,0,0-1,3.05,4.16,4.16,0,0,0,1,2.79c.58.69,1.11,1.32,1.63,1.85l3.67,3a34.38,34.38,0,0,1,6,6.16,15.1,15.1,0,0,1,2.53,9C7,166.95,4.62,171.58,0,175.63c-4.79,4.18-11.71,6.45-20.75,6.48-7.57,0-13.16-1.75-17-4.84s-5.65-6.47-5.65-10.57A15.41,15.41,0,0,1-41.51,160,15.71,15.71,0,0,1-35,153.55a31.71,31.71,0,0,1,11-4,73.72,73.72,0,0,1,9.5-.95,30.49,30.49,0,0,1-2.08-3.29,8,8,0,0,1-1.06-4.08,6.56,6.56,0,0,1,.4-2.39c.26-.67.46-1.29.66-1.85a29.39,29.39,0,0,1-3.47.21c-5.75,0-10-2-13.15-5.43A16.76,16.76,0,0,1-38,120.24a18.82,18.82,0,0,1,6.71-14.44,21.07,21.07,0,0,1,9.57-5,42.87,42.87,0,0,1,9.21-1H9.13l-6.67,3.9ZM0,165.93a10.17,10.17,0,0,0-2.68-7.17,58.86,58.86,0,0,0-8.88-7.12c-.69-.07-1.5,0-2.43-.1a25.39,25.39,0,0,0-4.23.21,33,33,0,0,0-6.86,1.53c-.56.19-1.33.52-2.32,1a12.62,12.62,0,0,0-3,2A11.42,11.42,0,0,0-33,159.45a10.05,10.05,0,0,0-1.19,5c0,3.8,1.74,6.88,5.15,9.38a21.18,21.18,0,0,0,13.42,3.8c5.09-.14,9-1.19,11.66-3.37A10.2,10.2,0,0,0,0,165.93Z"/><polygon class="cls-3" points="38.41 111.65 27.07 111.65 27.07 100.31 21.58 100.31 21.58 111.65 10.24 111.65 10.24 117.14 21.58 117.14 21.58 128.47 27.07 128.47 27.07 117.14 38.41 117.14 38.41 111.65"/><path class="cls-3" d="M-14.86,134.49c2.84-.11,5.4-1,7.11-3.07A8.54,8.54,0,0,0-6,127.2a24.89,24.89,0,0,0,.24-3.64A28.73,28.73,0,0,0-9,110.67a14,14,0,0,0-4-5.07,9.67,9.67,0,0,0-5.87-2,8.81,8.81,0,0,0-7.3,3.54,12.58,12.58,0,0,0-2.35,8,25.71,25.71,0,0,0,3.43,12.2,16.34,16.34,0,0,0,4.29,5A9.44,9.44,0,0,0-14.86,134.49ZM-4,104a12.9,12.9,0,0,1,2.29,1.84,18.36,18.36,0,0,1,2.39,3.11,18.26,18.26,0,0,1,2,4.11,17.26,17.26,0,0,1,.71,5.53,16,16,0,0,1-2.56,9.28A24.34,24.34,0,0,1-1.71,131c-1,1-2.1,1.87-3.18,2.9a14.1,14.1,0,0,0-1.79,2.27,5.24,5.24,0,0,0-1,3.05,4.16,4.16,0,0,0,1,2.79c.58.69,1.11,1.32,1.63,1.85l3.67,3a34.38,34.38,0,0,1,6,6.16,15.1,15.1,0,0,1,2.53,9c.05,5.24-2.31,9.87-6.94,13.92-4.79,4.18-11.71,6.45-20.75,6.48-7.57,0-13.16-1.75-17-4.84s-5.65-6.47-5.65-10.57a15.41,15.41,0,0,1,1.84-6.68,15.71,15.71,0,0,1,6.46-6.47,31.71,31.71,0,0,1,11-4,73.72,73.72,0,0,1,9.5-.95,30.49,30.49,0,0,1-2.08-3.29,8,8,0,0,1-1.06-4.08,6.56,6.56,0,0,1,.4-2.39c.26-.67.46-1.29.66-1.85a29.39,29.39,0,0,1-3.47.21c-5.75,0-10-2-13.15-5.43a16.76,16.76,0,0,1-4.74-11.54A18.82,18.82,0,0,1-31,106a21.07,21.07,0,0,1,9.57-5,42.87,42.87,0,0,1,9.21-1H9.36L2.69,104ZM.2,166.16A10.17,10.17,0,0,0-2.48,159a58.86,58.86,0,0,0-8.88-7.12c-.69-.07-1.5,0-2.43-.1A25.39,25.39,0,0,0-18,152a33,33,0,0,0-6.86,1.53c-.56.19-1.33.52-2.32,1a12.62,12.62,0,0,0-3,2,11.42,11.42,0,0,0-2.53,3.27,10.05,10.05,0,0,0-1.19,5c0,3.8,1.74,6.88,5.15,9.38a21.18,21.18,0,0,0,13.42,3.8c5.09-.14,9-1.19,11.66-3.37A10.2,10.2,0,0,0,.2,166.16Z"/><polygon class="cls-3" points="38.63 111.87 27.29 111.87 27.29 100.53 21.8 100.53 21.8 111.87 10.47 111.87 10.47 117.37 21.8 117.37 21.8 128.7 27.29 128.7 27.29 117.37 38.63 117.37 38.63 111.87"/><path class="cls-3" d="M-14.64,134.72c2.84-.11,5.4-1,7.11-3.07a8.54,8.54,0,0,0,1.76-4.22,24.89,24.89,0,0,0,.24-3.64A28.73,28.73,0,0,0-8.8,110.9a14,14,0,0,0-4-5.07,9.67,9.67,0,0,0-5.87-2,8.81,8.81,0,0,0-7.3,3.54,12.58,12.58,0,0,0-2.35,8,25.71,25.71,0,0,0,3.43,12.2,16.34,16.34,0,0,0,4.29,5A9.44,9.44,0,0,0-14.64,134.72Zm10.89-30.52A12.9,12.9,0,0,1-1.46,106a18.36,18.36,0,0,1,2.39,3.11,18.26,18.26,0,0,1,2,4.11,17.26,17.26,0,0,1,.71,5.53,16,16,0,0,1-2.56,9.28,24.34,24.34,0,0,1-2.56,3.11c-1,1-2.1,1.87-3.18,2.9a14.1,14.1,0,0,0-1.79,2.27,5.24,5.24,0,0,0-1,3.05,4.16,4.16,0,0,0,1,2.79c.58.69,1.11,1.32,1.63,1.85l3.67,3a34.38,34.38,0,0,1,6,6.16,15.1,15.1,0,0,1,2.53,9c.05,5.24-2.31,9.87-6.94,13.92-4.79,4.18-11.71,6.45-20.75,6.48-7.57,0-13.16-1.75-17-4.84s-5.65-6.47-5.65-10.57a15.41,15.41,0,0,1,1.84-6.68A15.71,15.71,0,0,1-34.6,154a31.71,31.71,0,0,1,11-4,73.72,73.72,0,0,1,9.5-.95,30.49,30.49,0,0,1-2.08-3.29,8,8,0,0,1-1.06-4.08,6.56,6.56,0,0,1,.4-2.39c.26-.67.46-1.29.66-1.85a29.39,29.39,0,0,1-3.47.21c-5.75,0-10-2-13.15-5.43a16.76,16.76,0,0,1-4.74-11.54,18.82,18.82,0,0,1,6.71-14.44,21.07,21.07,0,0,1,9.57-5,42.87,42.87,0,0,1,9.21-1H9.58l-6.67,3.9ZM.42,166.38a10.17,10.17,0,0,0-2.68-7.17,58.86,58.86,0,0,0-8.88-7.12c-.69-.07-1.5,0-2.43-.1a25.39,25.39,0,0,0-4.23.21,33,33,0,0,0-6.86,1.53c-.56.19-1.33.52-2.32,1a12.62,12.62,0,0,0-3,2,11.42,11.42,0,0,0-2.53,3.27,10.05,10.05,0,0,0-1.19,5c0,3.8,1.74,6.88,5.15,9.38A21.18,21.18,0,0,0-15.16,178c5.09-.14,9-1.19,11.66-3.37A10.2,10.2,0,0,0,.42,166.38Z"/><polygon class="cls-3" points="38.85 112.1 27.52 112.1 27.52 100.76 22.03 100.76 22.03 112.1 10.69 112.1 10.69 117.59 22.03 117.59 22.03 128.93 27.52 128.93 27.52 117.59 38.85 117.59 38.85 112.1"/><path class="cls-3" d="M-14.41,134.94a10.1,10.1,0,0,0,7.11-3.07,11.13,11.13,0,0,0,1.76-4.22A35,35,0,0,0-5.3,124a28.47,28.47,0,0,0-3.27-12.88,14.38,14.38,0,0,0-4-5.07,10.39,10.39,0,0,0-5.87-2,9.51,9.51,0,0,0-7.3,3.54,13.28,13.28,0,0,0-2.35,8,25.61,25.61,0,0,0,3.43,12.2,16.69,16.69,0,0,0,4.29,5A9.44,9.44,0,0,0-14.41,134.94Zm10.89-30.52a14.48,14.48,0,0,1,2.29,1.84,19.75,19.75,0,0,1,2.39,3.11,20.65,20.65,0,0,1,2,4.11A19.29,19.29,0,0,1,3.86,119q-.09,5.8-2.56,9.28a28.9,28.9,0,0,1-2.56,3.11q-1.5,1.42-3.18,2.9a14.81,14.81,0,0,0-1.79,2.27,5,5,0,0,0-1,3.05,4,4,0,0,0,1,2.79,21.26,21.26,0,0,0,1.63,1.85l3.67,3a37,37,0,0,1,6,6.16,15.73,15.73,0,0,1,2.53,9q0,7.85-6.94,13.92-7.18,6.27-20.75,6.48-11.35-.11-17-4.84-5.64-4.42-5.65-10.57a15.13,15.13,0,0,1,1.84-6.68,15.82,15.82,0,0,1,6.46-6.47,33.69,33.69,0,0,1,11-4,83.92,83.92,0,0,1,9.5-.95A23.18,23.18,0,0,1-15.93,146,7.51,7.51,0,0,1-17,141.92a6.12,6.12,0,0,1,.4-2.39l.66-1.85a30.89,30.89,0,0,1-3.47.21q-8.63-.11-13.15-5.43a16.19,16.19,0,0,1-4.74-11.54q0-8,6.71-14.44a23.55,23.55,0,0,1,9.57-5,46.3,46.3,0,0,1,9.21-1H9.81l-6.67,3.9ZM.65,166.61A10.52,10.52,0,0,0-2,159.44a65.59,65.59,0,0,0-8.88-7.12,24.09,24.09,0,0,0-2.43-.1,28.34,28.34,0,0,0-4.23.21A46.68,46.68,0,0,0-24.43,154q-.83.32-2.32,1a14.24,14.24,0,0,0-3,2,11.31,11.31,0,0,0-2.53,3.27,9.73,9.73,0,0,0-1.19,5q0,5.69,5.15,9.38,4.91,3.69,13.42,3.8,7.64-.11,11.66-3.37A10.22,10.22,0,0,0,.65,166.61Z"/><polygon class="cls-3" points="39.08 112.32 27.74 112.32 27.74 100.98 22.25 100.98 22.25 112.32 10.92 112.32 10.92 117.82 22.25 117.82 22.25 129.15 27.74 129.15 27.74 117.82 39.08 117.82 39.08 112.32"/></g><rect class="cls-4" width="112" height="112.67"/><path class="cls-5" d="M74.93,28.44l-6.65,8L54.53,26.05,43.89,35.37,61.63,52.44l-2.44,1.11L53.65,48,28.8,61.83l28.36,51c15.73-.09,54.83-.17,54.83-.17s.09-47.57.17-60.83"/><path class="cls-6" d="M58.16,51.72c-4.3,9.18-5.71,11.47-5.42,13.87C53.17,69.26,65.1,68,66,67.1c1.4-1.45.86-3.45-3.92-15.38C61.65,50.64,58.88,50.18,58.16,51.72Zm8.44-.9c-2-2-.67-4.58.9-4.52,7.21-.05,14.18-.95,15.37.9,1.35,2.11-2.82,12.69-4.82,12.36C76.29,59.27,72.83,56.4,66.6,50.82Zm-.51-9.24a2.34,2.34,0,0,1-2.8-2.82c.35-2.08,2.82-13.16,5.42-13.87s11,5.19,10.25,8.44C78.36,35,69.88,40.17,66.09,41.58ZM54.25,24.89c-2.71-.6-12.07,4.94-11.15,8.14.49,1.9,7.47,6.28,11.75,9,1.5,1,4-.6,3.62-2.71C57.92,36.16,56.09,25.32,54.25,24.89ZM26.52,48.41c-.93,7.05,2.56,14.68,5.12,15.07,1.67.26,17-10.33,21.39-13.27,1.43-1,1.82-4.39-2.11-4.22C36.45,46.6,26.83,46.12,26.52,48.41Z"/></svg>